<?xml version="1.0" encoding="utf-8"?>
<!-- Generator: Adobe Illustrator 21.1.0, SVG Export Plug-In . SVG Version: 6.00 Build 0)  -->
<svg version="1.1" id="Calque_1" xmlns="http://www.w3.org/2000/svg" xmlns:xlink="http://www.w3.org/1999/xlink" x="0px" y="0px"
	 viewBox="0 0 432 432" style="enable-background:new 0 0 432 432;" xml:space="preserve">
<style type="text/css">
	.st0{fill:#FF85A1;}
	.st1{fill:#FF577D;}
	.st2{fill:#FF8AA4;}
</style>
<g>
	<g>
		<path d="M282.2,277.7c0.5-0.7,0.6-1.5,0.7-2.3c1.6-7,4.3-13.5,7.8-19.6c3.1-5.4,6.7-10.6,10.4-15.7c0.4-0.6,0.9-1.1,1.4-1.6
			c2.5-2.5,6-2.3,8.3,0.3c1,1.1,1.5,2.4,1.9,3.8c0.5,1.7,0.6,3.5,0.7,5.3c0.1,4.9-0.2,9.8-0.4,14.7c-0.1,2.2-0.2,4.3-0.2,6.5
			c-0.1,5.8-0.2,11.6-0.3,17.4c0,1.6,0.1,3.2,0.4,4.8c0.2,0.9,0.4,1.7,0.9,2.5c0.8,1.3,1.9,1.7,3.3,1.1c1-0.4,1.7-1,2.4-1.8
			c1-1.2,1.6-2.6,2.2-4c1.1-3,1.9-6.1,2.5-9.2c1.3-6.6,2.3-13.2,3-19.8c0.4-3.6,0.8-7.2,1.2-10.8c0.2-1.4,0.1-2.8-0.2-4.2
			c-0.9-5.3-1.2-10.7-0.8-16c2.4-18,11.3-22.7,12.3-23.3c5.2-3.2,10.5-3.2,15.9-0.7c2.6,1.2,4.8,3,6.6,5.2c2.1,2.4,3.8,5.1,5.2,8
			c0.2,0.3,0.3,0.6,0.5,0.9c0.4,0,0.3-0.3,0.4-0.6c0.3-0.9,0.6-1.9,1-2.7c0.4-0.9,0.9-1.7,1.7-2.4c2.2-2,5.3-1.3,6.4,1.5
			c0.6,1.4,0.6,2.9,0.6,4.3c-0.1,2.2-0.4,4.4-0.7,6.6c-0.4,3.4-0.8,6.7-1.2,10.1c-0.6,5.5-1,11-1.4,16.5c-0.2,2.9-0.4,5.8-0.5,8.8
			c-0.3,5.5-0.7,11.1-1.2,16.6c-0.4,4.2-0.7,8.5-1.3,12.7c-0.9,6.6-1.9,13.2-4.2,19.6c-1.6,4.6-3.6,9-6.4,13
			c-1.6,2.2-3.3,4.3-5.4,6.1c-1.3,1.1-2.7,2.1-4.3,2.9c-3.5,1.6-6.9,1.6-10.4-0.1c-4-1.9-6.6-5.2-8-9.3c-1.5-4.4-1.7-8.9-0.7-13.5
			c1.4-6.5,4.4-12.2,9.2-16.8c1.6-1.5,3.3-2.8,5.5-3.3c2.4-0.6,4.6-0.1,6.6,1.5c0.4,0.3,0.8,0.6,1.1,0.9c0.4,0.4,0.6,0.9,0.3,1.5
			c-0.3,0.6-0.8,0.8-1.4,0.8c-1.2-0.1-2.4-0.2-3.5-0.8c-1.4-0.7-2.8-0.6-4.1,0.1c-1.1,0.5-2,1.2-2.8,2c-4.6,4.4-7.5,9.8-8.5,16.2
			c-0.5,3.5-0.3,7,0.9,10.3c0.8,2.4,2.1,4.4,4.2,5.9c0.7,0.5,1.5,1,2.4,1.3c2.5,0.9,4.7,0.5,6.6-1.3c1.1-1.1,2-2.3,2.8-3.6
			c2.2-3.7,3.6-7.7,4.8-11.8c1.7-6.1,3-12.3,4-18.6c0.9-5.5,1.5-11.1,1.9-16.6c0.4-5,0.8-9.9,1-14.9c0.2-3.9,0.5-7.9,0.8-11.8
			c0-0.3,0-0.6,0-1c-0.3,0.1-0.4,0.4-0.5,0.6c-1.6,3.5-3.3,6.9-5.2,10.1c-1.4,2.3-2.9,4.5-4.9,6.4c-1.1,1.1-2.3,2-3.6,2.8
			c-2.5,1.4-5.1,1.5-7.7,0.4c-1.6-0.7-3-1.8-4.3-3c-3.2-3.1-5.5-6.7-7.1-10.9c-0.1-0.3-0.2-0.7-0.4-1c-0.3,0.1-0.2,0.3-0.2,0.5
			c-0.9,9.2-1.9,18.4-3.8,27.5c-0.7,3.2-1.6,6.4-2.9,9.5c-0.8,1.8-1.8,3.4-3.2,4.7c-1.2,1.2-2.7,2-4.4,2.3c-2.1,0.3-4-0.3-5.6-1.8
			c-1.3-1.2-2.3-2.6-3.1-4.1c-2-3.7-3.3-7.7-4.2-11.8c-1-4.7-1.1-9.5-1-14.4c0.1-2.6,0.2-5.2,0.3-7.8c0.1-3.9,0.4-7.7,0.5-11.6
			c0-0.4,0.1-0.8-0.1-1.2c-0.4,0.1-0.6,0.4-0.9,0.7c-1.8,1.8-3.4,3.7-4.9,5.8c-4.4,6.1-8,12.7-10.1,20.1c-1,3.4-1.5,6.9-2,10.4
			c-0.1,0.5-0.2,1-0.3,1.5c-0.6,1.8-2.1,2.6-4,2.2c-1.3-0.3-2.4-1.1-3.3-2c-1.6-1.6-2.8-3.5-3.9-5.4c-2.2-4-3.4-8.4-4-12.9
			c-0.2-1.7-0.4-3.5-0.7-5.2c-1.3,0.5-2.5,0.9-3.8,1.3c-0.4,0.1-0.4,0.5-0.5,0.9c-0.4,1.8-0.7,3.6-1.2,5.4c-1.3,5.6-2.8,11.1-5,16.4
			c-0.9,2.2-1.9,4.2-3.3,6.2c-0.8,1.1-1.6,2-2.7,2.8c-2.4,1.7-4.9,1.9-7.6,0.6c-1.2-0.6-2.3-1.5-3.3-2.4c-3.5-3.5-5.9-7.7-7.2-12.5
			c-0.1-0.2-0.1-0.5-0.2-0.7c0-0.1-0.1-0.1-0.2-0.2c-0.1,0.4-0.2,0.7-0.3,1c-1.4,5.1-2.6,10.3-4.4,15.3c-0.7,1.8-1.3,3.7-2.1,5.4
			c-0.7,1.5-1.5,2.8-2.7,3.9c-2.3,2.2-5,2.2-7.4,0.2c-0.4-0.4-0.8-0.8-1.2-1.2c-4.6-5.2-7.3-11.2-7.9-18.1
			c-0.4-4.4-0.2-8.8,0.2-13.2c0.6-7.5,2.2-14.7,4.2-21.9c0.7-2.3,1.5-4.6,2.6-6.8c0.1-0.2,0.2-0.4,0.2-0.7c-0.2-0.3-0.5-0.2-0.7-0.2
			c-2,0.1-3.9,0.1-5.9,0.2c-2.2,0.1-4.5,0.3-6.7,0.4c-0.2,0-0.3,0-0.5,0.2c0.1,1.1,0.3,2.2,0.4,3.3c0.5,5.1,0.5,10.2,0,15.2
			c-0.7,8.1-2.5,16-5.5,23.5c-0.7,1.7-1.6,3.4-2.7,4.9c-1.2,1.6-2.6,2.8-4.4,3.6c-2.7,1.2-5.2,0.9-7.5-0.8c-1.1-0.8-2.1-1.9-2.9-3
			c-4.8-6.4-8.1-13.5-9.3-21.4c-0.5-3.5-0.9-7-1.2-10.6c0-0.2,0-0.4-0.1-0.6c-0.3-0.1-0.4,0.1-0.5,0.3c-4.1,4.7-8.4,9.3-12.2,14.4
			c-0.7,1-0.7,0.7,0,1.7c1.9,2.7,3.7,5.4,5,8.4c1.6,3.7,2.5,7.5,2.2,11.5c-0.4,5-2.7,8.7-7.5,10.6c-3.4,1.3-6.4,0.7-9.1-1.8
			c-2.4-2.3-3.5-5-3.4-8.3c0.2-4.1,1.3-8,3.1-11.6c0.2-0.4,0.4-0.8,0.7-1.2c0.4-0.5,0.3-0.9-0.1-1.4c-1.3-1.7-2.6-3.5-3.9-5.2
			c-2.5-3.2-5.1-6.3-7.5-9.5c-3-3.9-5.5-8.1-7.1-12.8c-1.9-5.3-2.3-10.7-0.7-16.1c0.7-2.6,1.9-4.9,3.8-6.7c2.9-2.8,6.2-3.5,9.9-2.2
			c2.6,0.9,4.8,2.6,6.5,4.7c1.1,1.4,2.1,2.9,2.8,4.5c2.2,5,3.2,10.3,3.4,15.7c0,0.7-0.1,1.4-0.2,2.1c-0.1,0.7-0.5,1-1,1
			c-0.5,0-0.9-0.3-1-1c-0.2-1.3-0.4-2.5-0.6-3.8c-0.6-3.8-1.5-7.5-2.9-11c-0.9-2.2-2.1-4.2-3.8-5.8c-1.3-1.3-2.8-2.2-4.6-2.5
			c-1.6-0.3-2.8,0.3-3.7,1.7c-0.7,1.2-1,2.4-1.1,3.8c-0.1,2.6,0.3,5.1,1.2,7.5c1.8,5.2,4.4,9.9,7.8,14.3c3.1,4,6.3,8,9.5,12
			c0.1,0.2,0.3,0.3,0.4,0.4c0.3,0,0.4-0.3,0.5-0.4c4.2-5.5,8.7-10.8,13.4-15.8c0.4-0.5,0.6-0.9,0.5-1.6c-0.3-3.1-0.5-6.1-0.7-9.2
			c-0.1-2,0.1-1.5-1.6-1.4c-1.1,0.1-2.3,0.3-3.4,0.5c-0.7,0.1-1.3,0.1-2-0.1c-0.6-0.2-1-0.5-1.1-1.2c-0.1-0.6,0.2-1.1,0.7-1.4
			c0.4-0.3,0.8-0.4,1.2-0.5c1.7-0.5,3.4-0.9,5.1-1.3c0.9-0.2,0.9-0.2,0.9-1.1c0-3.8,0-7.7,0.3-11.5c0.2-2.4,0.4-4.9,1-7.2
			c0.3-1.1,0.7-2,1.3-3c0.4-0.6,1-1.2,1.7-1.6c1.5-0.8,3-0.6,4.2,0.6c1,1,1.4,2.3,1.7,3.7c0.5,2.6,0.5,5.3,0.6,8
			c0.1,2.9,0,5.8,0.1,8.7c0,0.3-0.1,0.7,0.2,1.1c0.8-0.1,1.7-0.2,2.6-0.3c1.2-0.1,2.4-0.2,3.5,0.2c0.6,0.2,1,0.5,1.1,1.1
			c0.1,0.7-0.3,1.1-0.8,1.4c-1,0.7-2.2,0.9-3.4,1c-0.7,0.1-1.4,0.2-2.2,0.4c-0.8,0.1-0.8,0.2-0.8,0.9c0.1,1.7,0.1,3.3,0.3,5
			c0.2,2.9,0.5,5.8,0.7,8.6c0.4,4.7,0.9,9.4,1.6,14c0.5,3,0.7,6,1.1,9c0.4,3.4,1,6.8,2.3,10.1c0.3,0.7,0.6,1.3,1,1.9
			c0.8,1.1,1.7,1.4,3,1c0.9-0.3,1.6-0.8,2.3-1.4c1-1,1.8-2.2,2.5-3.4c1.8-3.3,3-6.8,3.9-10.3c1.6-5.9,2.5-11.8,2.8-17.9
			c0.2-4.2,0.2-8.3-0.3-12.4c-0.1-0.7,0-1.4-0.3-1.9c-0.4-0.6-1.2-0.3-1.8-0.4c-1.1-0.2-2.2-0.3-3.3-0.7c-4.4-1.5-6.9-4.7-7.8-9.1
			c-0.4-2,0.1-3.8,1.3-5.4c1.4-1.8,3.5-2.4,5.6-1.6c1.5,0.6,2.6,1.6,3.6,2.8c1,1.3,1.8,2.8,2.4,4.3c0.8,2.1,1.4,4.4,1.9,6.6
			c0.2,0.9,0.2,0.9,1.1,0.8c3.4-0.1,6.8-0.6,10.2-1.1c2.2-0.3,4.4-0.7,6.5-1.3c2.2-0.6,4.2,0.2,5.3,2.2c1,1.7,1.1,3.5,0.8,5.4
			c-0.2,1.5-0.6,2.9-1,4.3c-1.5,5.6-2.9,11.2-3.8,16.9c-0.9,5.8-1.3,11.6-1,17.5c0.1,2,0.1,4,0.2,6c0.1,2.2,0.2,4.4,0.6,6.6
			c0.3,1.4,0.6,2.8,1.3,4.1c0.6,1,1,1.1,1.9,0.3c0.8-0.7,1.3-1.6,1.8-2.6c0.9-1.9,1.6-3.8,2.3-5.7c2.4-6.7,4.2-13.5,6.4-20.2
			c0.1-0.4,0.1-0.7,0.1-1.1c-0.3-4.3-0.1-8.6,0.4-12.9c0.1-0.6-0.1-1.1-0.5-1.6c-3.2-3.6-4.9-7.9-5.5-12.6c-1.1-8.4,0.8-16.2,5-23.5
			c1.1-2,2.6-3.8,4.4-5.3c2.6-2.1,5.6-3.4,9-3.5c3.5-0.1,6.6,1.1,9.4,3.3c3.4,2.7,5.7,6.2,7.5,10.2c1.6,3.6,2.4,7.4,2.9,11.3
			c0.6,4.7,0.6,9.4,0.4,14.1c-0.1,2.4-0.3,4.9-0.7,7.3c-0.1,0.4-0.1,0.8-0.1,1.4c1.2-0.2,2.2-0.7,3.2-1.1c0.4-0.2,0.2-0.5,0.2-0.8
			c-0.1-2-0.1-4,0-6c0.3-6.7,1.5-13.2,4.2-19.3c1.9-4.2,4.5-7.9,8.1-10.9c1.5-1.3,3.2-2.3,5.1-3c1.2-0.4,2.4-0.6,3.6-0.5
			c3.2,0.4,5.5,2.7,6.2,6.1c0.6,2.8,0.2,5.5-0.5,8.2c-1.4,4.9-3.8,9.2-6.7,13.3c-2.4,3.3-5.2,6.3-8.4,8.8c-0.6,0.5-0.8,1-0.8,1.8
			c0.2,5,1.1,9.9,1.9,14.8C281.4,273.2,281.8,275.5,282.2,277.7z M350.3,209.1c-1.8-0.1-3.3,0.7-4.6,1.9c-1.6,1.4-2.8,3-3.7,4.9
			c-0.9,1.7-1.6,3.6-2.2,5.4c-2,6.9-1.9,14-0.9,21c0.6,4.4,1.9,8.6,3.2,12.9c0.7,2.4,1.5,4.8,2.8,7c0.4,0.7,0.9,1.4,1.5,2
			c0.4,0.4,0.9,0.6,1.5,0.4c0.6-0.1,1.1-0.3,1.5-0.6c1.1-0.6,2-1.4,2.9-2.2c1.9-1.8,3.3-3.9,4.7-6.1c3.2-5.4,5.7-11.1,7.9-16.9
			c0.1-0.3,0.2-0.6,0.2-0.9c0.3-3.1,0.7-6.2,1.2-9.2c0-0.3,0-0.6-0.1-0.9c-1.1-4.2-2.8-8.1-5.3-11.6c-1.3-1.8-2.8-3.5-4.6-4.8
			C354.5,209.8,352.5,209.1,350.3,209.1z M234.2,252.3c0.3-0.3,0.3-0.6,0.3-0.8c0.3-1.6,0.6-3.2,1.1-4.7c0.4-1.2,0.9-2.3,1.9-3.1
			c2-1.8,4.8-1.5,6.3,0.6c0.5,0.6,0.8,1.3,1,2.1c0.3,1,0.4,2.1,0.4,3.1c0,2-0.3,4-0.5,6c-0.2,1.5-0.3,3-0.5,4.6
			c-0.1,0.5,0.1,0.8,0.6,0.9c0.6,0.1,1.1,0.3,1.7,0.4c5.1,1,10.1,0.5,15.1-0.7c0.6-0.1,0.7-0.5,0.7-1c0.4-2.6,0.7-5.2,0.9-7.8
			c0.4-6.1,0.2-12.1-0.9-18.1c-0.8-4.1-2.2-7.9-4.6-11.3c-1.4-2-3-3.7-4.9-5.1c-2.2-1.5-4.6-2.1-7.3-1.7c-2.4,0.4-4.5,1.5-6.3,3.1
			c-1.7,1.5-2.9,3.4-3.9,5.4c-1.5,3.2-2.6,6.5-3.3,10c-0.8,4.1-1,8.2-0.1,12.3C232.4,248.6,233.1,250.5,234.2,252.3z M243.9,264
			c-0.2,2.8-0.1,5.4,0.1,8.1c0.3,3.5,0.9,7,1.4,10.6c0.3,2.1,0.6,4.1,1.5,6.1c0.3,0.7,0.6,1.3,1.1,1.9c0.6,0.7,1.2,0.8,2.1,0.5
			c0.5-0.2,1-0.5,1.4-0.9c0.8-0.7,1.4-1.5,1.9-2.3c1-1.6,1.8-3.2,2.6-4.9c2.7-6.1,4.3-12.6,5.7-19.1c0-0.1,0.1-0.3-0.1-0.4
			C255.7,264.8,249.9,265.4,243.9,264z M279.1,251.7c0.1,0,0.2,0,0.2,0.1c0.2-0.2,0.4-0.3,0.6-0.5c4.7-4.1,8.4-9,11.1-14.6
			c0.9-2,1.7-4,2.1-6.1c0.4-1.9,0.5-3.9-0.2-5.8c-1-2.8-3.3-3.4-5.6-1.7c-1.3,0.9-2.1,2.2-2.9,3.5c-0.8,1.5-1.4,3.1-1.8,4.7
			c-1.6,5.4-2.8,10.9-3.3,16.5C279.2,249.1,279.2,250.4,279.1,251.7z M147.9,282.8c-0.5,0.6-0.7,1.3-1,1.9c-1.4,3.1-2.2,6.4-2,9.8
			c0.1,2.5,1.2,4.4,3.2,5.8c1.4,1,2.9,0.9,4.3,0c1.4-0.8,2.2-1.9,2.1-3.6c-0.1-1.4-0.5-2.7-1.1-4c-1.5-3.4-3.5-6.5-5.4-9.7
			C148.1,283,148,282.9,147.9,282.8z M198.1,240.3c-0.7-3.2-1.6-6.2-3.4-8.9c-0.4-0.6-0.8-1.1-1.4-1.6c-0.4-0.4-0.9-0.7-1.4-0.9
			c-1.1-0.4-1.8-0.2-2.3,0.9c-0.6,1.3-0.7,2.6-0.4,4C190,238,193.6,240.6,198.1,240.3z"/>
		<g>
			<g>
				<path class="st1" d="M76.4,260.3c0.3-0.2,0.5-0.5,0.6-0.8c2.2-3.8,4.3-7.7,6.1-11.7c2.1-4.6,3.8-9.4,4.4-14.5
					c0.3-2.9,0.4-5.7-0.3-8.5c-2.1-8.9-11-14.8-19.7-13.1c-4,0.8-7.3,2.6-9.8,5.9c-1.3,1.8-2.3,3.8-2.8,6c-1,4.1-0.8,8.2,0.1,12.3
					c2,9.1,6.1,17.3,11.1,25.1c3.5,5.5,7.6,10.6,11.9,15.6c3.2,3.8,6.5,7.5,9.9,11.1c1.9,1.9,3.7,3.9,5.6,5.8
					c3.2,3.2,6.8,5.9,10.2,8.9c0.6,0.6,0.7,0.6,1.2-0.1c1.2-1.6,2.3-3.3,3.3-4.9c0.5-0.8,0.5-0.9-0.2-1.4
					c-5.1-3.5-9.6-7.6-13.9-11.9c-2-2-4-4-5.9-6c-4-4.2-7.9-8.6-11.2-13.5c-1.9-2.9-4-5.7-5.8-8.7c-3.6-5.9-6.3-12.2-8.2-18.8
					c-1.1-3.9-1.1-7.7,0.3-11.5c1.2-3,3.2-5.3,6.3-6.5c2.5-1,5-0.4,6.9,1.6c0.9,1,1.5,2.1,2,3.3c1,2.9,1.1,5.8,0.7,8.8
					c-0.5,3.4-1.5,6.7-2.7,9.8c-1.3,3.2-2.9,6.3-4.6,9.3c-0.3,0.5-0.4,0.9,0,1.4c1.3,2.1,2.5,4.3,3.9,6.3
					C75.8,259.7,76,260.1,76.4,260.3z"/>
				<path class="st1" d="M70.4,270.9c0.2-0.4,0.2-1-0.1-1.4c-1.7-2.1-3.3-4.3-4.8-6.6c-0.1-0.1-0.1-0.3-0.3-0.2
					c-0.3,0.2-0.5,0.6-0.7,0.9c-10,16.2-12.9,25.1-8.5,43.5c0.2,0.9,1.6,0.7,2.2,0.6c1.5-0.4,2.9-1.6,4.5-2c0.2,0,0.4-0.1,0.5-0.2
					C64.8,304.2,57,295.8,70.4,270.9z"/>
			</g>
			<path d="M85.7,290.8c-1.4,3.7-7.3,22.4-20.1,17.1c-0.4-0.2-0.8-0.2-1.2,0c-0.9,0.4-2.4,1-5,1.9c-0.5,0.2-0.5,0.8-0.1,1
				c11.7,7,21.5,5.5,31.3-14.8c0.2-0.3,0.4-0.6,0-1c-1.4-1.4-2.8-2.9-4.3-4.4C86.2,290.5,85.8,290.6,85.7,290.8z"/>
			<path d="M112.4,254.2c-12.9,6.7-21.7,22-19.7,23.9c4.8,4.7,4.8,5,5.1,5c0.3-0.2,0.4-0.6,0.5-0.8c8.3-14.5,18.6-17.9,19.5-19.7
				C115.7,260,113.9,257.2,112.4,254.2z"/>
		</g>
	</g>
	<path d="M290.4,151.9c-0.1,0-0.3,0.1-0.4,0.1c-2.9,1.5-6.1,2.3-9.3,2.8c-1.7,0.3-3.4,0.2-5.1,0c-0.8-0.1-0.8-0.1-0.9,0.7
		c-0.6,6-1.7,11.9-3.3,17.8c-1.6,6-3.5,11.9-5.9,17.6c-1.4,3.3-3.2,6.4-5.9,8.9c-0.6,0.6-1.3,1.2-2,1.7c-2.1,1.4-4.3,1.4-6.4,0.1
		c-1.2-0.7-2.1-1.7-3-2.7c-2.5-3.2-4.8-6.5-6.8-10.1c-2.8-4.9-4.6-10.1-6-15.5c-0.9-3.3-1.7-6.6-2.4-10c-0.1-0.3-0.1-0.5-0.4-0.8
		c-0.1,0.3-0.1,0.7-0.2,1c-1.1,8.3-2.2,16.5-3.1,24.8c-0.5,4.6-1,9.3-1.3,14c-0.1,1.8-0.4,3.5-1,5.2c-0.3,0.8-0.6,1.5-1,2.2
		c-1.2,1.9-3.4,2.2-5.2,0.9c-0.6-0.5-1.1-1-1.5-1.7c-0.6-0.9-1-1.9-1.4-2.9c-2.1-4.7-4.2-9.5-5.4-14.5c-0.9-3.7-1.6-7.4-1.8-11.2
		c-0.5-7.1-0.4-14.3-0.1-21.4c0.1-2.2,0.2-4.5,0.3-6.7c-0.3,0.2-0.3,0.6-0.4,0.9c-1.4,5.3-2.7,10.6-4.3,15.8c-0.8,2.5-1.6,5-2.7,7.3
		c-0.7,1.5-1.6,2.8-2.7,4c-3,3-6.9,3.1-10,0.2c-1-1-1.8-2.1-2.5-3.3c-0.2-0.3-0.4-0.7-0.6-1c-0.4,0.1-0.3,0.4-0.4,0.7
		c-1.5,6-2.8,12-4.2,18c-0.6,2.5-1.3,4.9-2.3,7.3c-0.6,1.3-1.3,2.6-2.2,3.8c-2.1,2.5-5,3.2-7.9,1.7c-1.5-0.7-2.7-1.8-3.8-3.1
		c-2.1-2.6-3.7-5.5-4.9-8.6c-1.7-4.3-2.6-8.7-2.9-13.3c-0.4-4.9-0.4-9.9,0-14.8c0.4-4.7,1.2-9.3,2.1-13.8c0.9-4.2,1.8-8.4,2.5-12.6
		c0.1-0.7,0.2-1.4,0.3-2.2c0.1-0.6,0-0.7-0.6-0.6c-1.3,0.3-2.6,0.7-3.8,1.1c-1.7,0.6-3.4,1.3-5.1,1.9c-0.4,0.2-0.7,0.4-0.8,0.9
		c-2.2,9.1-6.8,16.8-13,23.7c-0.9,1-1.7,1.9-2.7,2.8c-0.6,0.6-0.7,1.1-0.5,1.9c0.7,3,1.1,6.1,1,9.2c-0.2,6.2-1.8,11.8-5.8,16.7
		c-2.4,3-5.4,5.4-8.9,7c-1.8,0.8-3.6,1.3-5.6,1.1c-4-0.5-6.6-3.5-6.4-7.5c0.1-2.1,0.7-4,1.6-5.8c1.1-2.3,2.7-4.3,4.3-6.2
		c2.4-2.8,5-5.3,7.7-7.8c0.5-0.5,0.7-0.9,0.6-1.6c-0.6-4.4-1.7-8.7-3.6-12.7c-0.8-1.6-1.7-3.1-2.9-4.4c-2.3-2.5-4.5-2.7-7.3-0.7
		c-1.7,1.2-3,2.8-4.1,4.5c-2.4,3.6-4,7.6-5.3,11.7c-1.7,5.6-2.5,11.3-2.1,17.1c0.2,2.4,0.5,4.8,1.1,7.1c0,0.2,0.1,0.3,0.1,0.5
		c0.2,1,0.1,1.8-0.7,2.4c-0.9,0.6-1.8,0.6-2.8,0.2c-0.5-0.2-0.9-0.6-1.2-1c-0.5-0.6-0.9-1.2-1.3-1.8c-4.6-8.1-8.3-16.6-10.4-25.7
		c-1.1-4.9-1.7-9.8-2.2-14.8c-0.4-4.2-0.6-8.4-0.5-12.6c0-0.9,0-0.9-0.9-0.7c-1,0.2-1.9,0.3-2.9,0.2c-0.2,0-0.5-0.1-0.7-0.1
		c-0.8-0.2-1.3-0.6-1.3-1.2c0-0.6,0.4-0.9,1.2-1.1c1.3-0.3,2.6-0.7,3.9-1.2c0.6-0.2,0.8-0.5,0.8-1.1c0.2-3,0.5-6,1-9
		c1.2-7.5,3.7-14.6,8-20.9c2.1-3.1,4.6-6,7.7-8.2c2.5-1.7,5.1-3,8.1-3.4c5.3-0.7,9.7,2.5,10.5,7.8c0.4,2.3,0.1,4.5-0.5,6.7
		c-1.1,3.8-3,7.3-5.4,10.5c-3.3,4.6-7.5,8.4-12.1,11.7c-1.5,1-3,2-4.6,3c-0.6,0.3-0.8,0.7-0.8,1.4c-0.3,8.6,0.2,17.2,1.6,25.7
		c0.6,3.7,1.2,7.4,1.8,11c0.1,0.4,0.2,0.7,0.2,1.1c0.4-0.2,0.3-0.6,0.4-0.9c1.3-6,3.4-11.8,6.3-17.2c1.4-2.6,3.1-5.1,5.3-7.1
		c2.1-2,4.6-3.2,7.5-3.5c4-0.5,7.3,0.8,10.3,3.4c2.2,1.9,3.8,4.2,5.1,6.7c1.1,2,1.9,4,2.6,6.2c0.1,0.3,0.2,0.7,0.4,1.1
		c6.7-6.9,12.1-14.4,14.7-23.8c-0.4-0.2-0.7,0-1,0c-3.2,0.9-6.4,1.4-9.7,1.1c-5.9-0.6-10.4-3.4-12.5-9.1c-1.9-5.3-0.9-10.4,2.8-14.7
		c3.4-4,8.8-5,13.5-2.6c3.5,1.7,6,4.5,7.8,7.9c1.9,3.4,2.6,7.1,2.4,10.9c0,0.5,0,0.9-0.1,1.4c0,0.1,0,0.1,0,0.2
		c0.3,0.1,0.6-0.1,0.9-0.2c3-1.3,5.9-2.6,8.7-4.4c1.2-0.7,2.4-1.4,3.9-1.4c2.5-0.1,4.5,0.9,5.9,3c1,1.4,1.4,3,1.5,4.7
		c0.2,2.2-0.1,4.4-0.5,6.6c-0.8,4.5-1.7,9-2.5,13.6c-1.2,6.8-1.8,13.6-1.3,20.5c0.2,3.5,0.7,7,1.1,10.5c0.3,2.8,0.7,5.6,1.4,8.4
		c0.2,0.8,0.5,1.6,0.9,2.4c0.5,0.9,0.6,0.9,1.3,0.1c0.6-0.8,1.1-1.8,1.6-2.7c0.8-1.7,1.4-3.5,2-5.3c2.1-7.3,4.2-14.5,6.3-21.8
		c0.2-0.7,0.1-1.2-0.1-1.8c-2.3-8.5-1.4-16.8,2.5-24.7c1.1-2.3,2.6-4.3,4.3-6.1c5.4-5.5,12.6-6.5,19.1-4c0.3,0.1,0.6,0.3,1,0.4
		c0.4-0.9,0.3-1.9,0.5-2.8c0.3-1.5,0.6-3,1.1-4.5c1-2.9,4.1-3.3,6.2-1.9c0.9,0.6,1.5,1.4,2,2.4c0.7,1.4,1.1,2.9,1.2,4.4
		c0.3,2.3,0.3,4.5,0.2,6.8c-0.4,10.1-1,20.2-0.9,30.3c0,4.5,0.3,9.1,0.5,13.6c0.3,5.5,0.4,11,0.5,16.5c0,0.4,0,0.8,0.1,1.1
		c0.3,0,0.3-0.1,0.3-0.3c0.5-5.2,1.6-10.3,2.4-15.4c0.8-5.2,1.6-10.5,2.4-15.7c0.8-5,1.5-10,2.8-14.9c0.1-0.4,0.1-0.8,0-1.2
		c-0.5-3.8-0.8-7.6-0.8-11.5c0-1.4,0.1-2.9,0.5-4.3c0.3-1.1,0.7-2,1.4-2.9c1.5-1.9,3.8-2.1,5.6-0.4c1,1,1.6,2.2,2.1,3.5
		c0.8,2.1,1.3,4.4,1.6,6.6c0.8,4.6,1.5,9.2,2.4,13.7c1.1,5.1,2.3,10.2,3.8,15.2c1.7,5.5,2.8,11.2,4.2,16.7c0.5,2,1.1,4,2,5.8
		c0.8,1.7,0.9,1.9,2.5,0.5c1.3-1.1,2.3-2.4,3.2-3.8c1.6-2.4,2.7-5,3.8-7.7c3.8-9.7,6.7-19.6,8.1-29.9c0.2-1.5,0.2-1.5-1.2-2
		c-7.6-2.7-12.6-7.8-14.9-15.5c-1.5-5-1-9.9,1.3-14.6c0.8-1.6,1.9-3.1,3.3-4.3c1.1-1,2.4-1.7,3.9-2c3.1-0.6,5.6,0.4,7.4,2.9
		c1.4,1.9,2,4.1,2.5,6.4c1.1,5,1.2,10,1.2,15.1c0,2.8-0.1,5.5-0.3,8.3c-0.1,0.9,0,0.9,0.8,1.1c2.8,0.7,5.5,0.4,8.3-0.2
		c1.8-0.4,3.6-1.1,5.4-1.8c0.6-0.2,0.8-0.6,0.8-1.2c0.1-3.9,0.6-7.7,1.6-11.5c1-3.4,2.4-6.6,4.5-9.5c2.2-2.9,4.9-5,8.2-6.4
		c1.1-0.5,2.2-0.7,3.4-0.8c2.2-0.2,4.2,0.4,6,1.8c5.1,4.2,6.9,11.3,3.8,17.7c-1.4,2.9-3.5,5.1-6.2,6.7c-2.6,1.6-5.5,2.6-8.5,3.1
		c-0.8,0.1-0.8,0.1-0.8,0.9c0.4,8.5,1.8,16.7,6.1,24.2c1.1,2,2.1,4,3.3,5.9c0.9,1.4,1.9,2.7,3.1,3.9c3.2,3.1,7,3.8,11.1,2.2
		c2.9-1.1,5.3-2.9,7.4-5.2c2.1-2.3,3.8-4.8,5.3-7.5c1.4-2.5,2.6-5,3.7-7.6c0.6-1.5,1.3-2.9,2.1-4.3c0.1-0.2,0.2-0.4,0.3-0.5
		c0.4-0.6,0.9-0.9,1.5-0.7c0.6,0.2,0.9,0.7,0.7,1.5c-0.2,1-0.5,2-0.8,3c-2.4,6.9-5.8,13.2-10.7,18.6c-2.7,3-5.8,5.4-9.5,6.8
		c-5.2,2-10.4,1.8-15.5-0.5c-6.8-3.1-11.9-7.9-15-14.8c-2.5-5.6-4-11.4-4.8-17.4c-0.2-1.8-0.4-3.5-0.5-5.3
		C290.6,152.4,290.6,152.2,290.4,151.9z M193.5,166.5c0,1.9,0.1,3.8,0.5,5.7c0.3,1.7,0.8,3.3,1.8,4.8c0.5,0.8,0.9,0.9,1.7,0.4
		c0.2-0.1,0.5-0.3,0.7-0.5c0.9-0.8,1.5-1.7,2.1-2.7c1.1-1.9,2-3.9,2.8-6c3.1-8.6,5.3-17.5,7.8-26.3c0.2-0.7,0.2-0.7-0.6-0.9
		c-3.6-1.1-7.5-0.6-10.3,2.9c-1.5,1.8-2.6,3.9-3.4,6.1C194.5,155.2,193.8,160.8,193.5,166.5z M95.4,135c0.4,0,0.6-0.1,0.8-0.3
		c2-1.2,3.9-2.4,5.8-3.8c4.8-3.6,8.8-7.9,11.6-13.3c1.2-2.2,2.1-4.4,2.5-6.9c0.4-2.5,0.1-4.9-1.6-6.9c-1.4-1.6-3.1-2.1-5.2-1.6
		c-0.7,0.2-1.4,0.5-2,0.9c-1.8,1.1-3.2,2.6-4.3,4.3c-1.1,1.7-2,3.5-2.7,5.4c-2.1,5.7-3.5,11.6-4.4,17.6
		C95.7,132.1,95.4,133.5,95.4,135z M152.3,135.8c0-4.5-1.4-8.4-4.4-11.7c-1.4-1.5-3-2.8-4.8-3.6c-3.2-1.4-6.5-0.6-8.6,2.1
		c-2.3,3.1-3.2,6.6-2.3,10.4c0.9,3.9,3.6,6.3,7.5,7.2c4.1,1,8.1,0.3,12-0.9c0.4-0.1,0.5-0.4,0.6-0.8
		C152.2,137.6,152.2,136.7,152.3,135.8z M272.6,149.7c0.2-1.9,0.3-3.8,0.3-5.7c0.1-4.9,0.1-9.8-0.7-14.6c-0.3-1.9-0.7-3.8-1.5-5.5
		c-0.4-0.9-0.8-1.7-1.5-2.4c-1.3-1.3-3-1.4-4.4-0.2c-0.6,0.5-1,1.1-1.4,1.7c-0.7,1.3-1.2,2.6-1.5,4c-0.9,4.7-0.2,9.2,1.7,13.6
		c1.6,3.8,4.3,6.6,7.9,8.7C271.9,149.5,272.1,149.7,272.6,149.7z M317,132.8c0-0.6,0-1.1-0.1-1.5c-0.4-2.8-1.7-4.9-4.2-6.3
		c-1.3-0.7-2.1-0.6-3.1,0.4c-0.9,0.8-1.5,1.8-2,2.8c-1.2,2.5-2.4,5.1-3.2,7.8c-0.9,2.7-1.4,5.5-1.6,8.4c0,0.4,0,0.7,0.5,0.6
		c2.7-0.4,5.4-0.9,7.7-2.3C314.8,140.5,316.7,137,317,132.8z M126.6,180.5c-0.3,0-0.5,0.2-0.6,0.3c-2.1,2.1-4.1,4.2-6,6.5
		c-1.3,1.6-2.6,3.3-3.5,5.2c-0.7,1.3-1.2,2.7-1.3,4.2c-0.1,0.9,0.1,1.8,0.5,2.6c0.7,1.2,1.8,1.6,3.1,1.3c1.2-0.3,2.1-1.1,3-1.9
		c2.2-2.2,3.7-4.8,4.3-7.8c0.2-1,0.3-2.1,0.4-3.1C126.7,185.4,126.7,183,126.6,180.5z"/>
</g>
</svg>
