<svg xmlns="http://www.w3.org/2000/svg" xmlns:xlink="http://www.w3.org/1999/xlink" version="1.1" width="341" height="232" enable-background="new 0 0 432 432" xml:space="preserve"><rect id="backgroundrect" width="100%" height="100%" x="0" y="0" fill="none" stroke="none"/>

<g class="currentLayer" style=""><title>Layer 1</title><g id="svg_1" class="">
	<g id="svg_2">
		<g id="svg_3">
			<path fill="#1D1D1B" d="M153.82599713134766,3.650001892089847 c1.8920000000000001,0.136 2.838,-0.405 2.838,-1.622 c0,-1.353 -0.7440000000000001,-1.961 -2.23,-1.8250000000000002 H143.68799713134766 c-2.298,-0.136 -3.92,0.811 -4.866,2.839 l-12.978,35.484 l-14.396,-36.295 c-1.15,-1.217 -2.704,-1.8920000000000001 -4.664,-2.027 h-10.949 c-1.8930000000000002,0.136 -2.839,0.7440000000000001 -2.839,1.8250000000000002 c0,1.081 0.8780000000000001,1.5550000000000002 2.636,1.4180000000000001 c2.028,0.406 3.042,2.028 3.042,4.867 v36.904 c0,3.109 -1.082,4.731 -3.245,4.867 c-1.8930000000000002,-0.136 -2.906,0.406 -3.042,1.6230000000000002 c0,1.352 0.9460000000000001,2.027 2.839,2.027 l13.383000000000001,-0.202 c2.1630000000000003,0.269 3.244,-0.3390000000000001 3.244,-1.8250000000000002 c-0.136,-1.081 -1.216,-1.6230000000000002 -3.244,-1.6230000000000002 c-2.704,-0.406 -4.123,-1.8250000000000002 -4.258,-4.258 v-36.701 l17.235,42.582 c0.9460000000000001,1.08 1.8920000000000001,1.149 2.838,0.202 l15.918,-43.392 l-0.10200000000000001,37.714 c-0.136,2.434 -1.082,3.786 -2.839,4.056 c-2.164,0.136 -3.244,0.7440000000000001 -3.244,1.8250000000000002 c0,1.081 1.081,1.622 3.244,1.622 h16.221 c1.7570000000000001,0 2.636,-0.6080000000000001 2.636,-1.8250000000000002 s-0.8790000000000001,-1.7570000000000001 -2.636,-1.622 c-1.8920000000000001,-0.135 -2.838,-1.5550000000000002 -2.838,-4.258 v-37.309 C150.91999713134766,5.47500189208985 151.93299713134766,3.7860018920898426 153.82599713134766,3.650001892089847 z" id="svg_4"/>
			<path fill="#1D1D1B" d="M208.57399713134765,0.0000018920898412488896 h-12.572 c-1.758,0 -2.636,0.6750000000000002 -2.636,2.028 c0.134,1.216 1.081,1.689 2.839,1.4180000000000001 c2.297,0.542 3.109,2.028 2.434,4.461 l-9.834,16.424 l-9.429,-15.005 c-1.8930000000000002,-3.244 -1.758,-5.136 0.405,-5.6770000000000005 c2.028,0.136 3.042,-0.405 3.042,-1.622 c0,-1.217 -1.014,-1.8250000000000002 -3.042,-1.8250000000000002 H164.97799713134765 c-1.7570000000000001,0 -2.636,0.6080000000000001 -2.636,1.8250000000000002 c0,1.216 0.8780000000000001,1.7570000000000001 2.636,1.622 c1.352,0.271 2.906,1.961 4.664,5.069 l12.368,21.088 v16.83 c0,2.298 -1.149,3.515 -3.446,3.6500000000000004 c-2.299,-0.27 -3.447,0.203 -3.447,1.42 c-0.03400000000000001,1.352 0.979,2.027 3.042,2.027 h16.879 c1.859,0 2.789,-0.6080000000000001 2.789,-1.8250000000000002 c0,-1.081 -0.9460000000000001,-1.622 -2.838,-1.622 c-2.299,-0.135 -3.448,-1.352 -3.448,-3.6500000000000004 v-19.466 l12.166,-19.263 c1.6230000000000002,-2.434 3.245,-3.717 4.867,-3.853 c1.8920000000000001,0 2.838,-0.6760000000000002 2.838,-2.027 C211.27699713134766,0.6750018920898384 210.32999713134765,0.0000018920898412488896 208.57399713134765,0.0000018920898412488896 z" id="svg_5"/>
		</g>
		<g id="svg_6">
			<path fill="#1D1D1B" d="M157.03099713134765,67.01200189208984 C155.12399713134766,83.13700189208984 140.03999713134766,109.31600189208984 132.23799713134767,109.31600189208984 c-6.241,0 9.709,-29.474 11.617,-41.437 c0,-3.294 -5.721,-8.323 -7.455,-5.722 c-4.589,6.845 -9.435,17.442 -12.238,27.248 c-0.22500000000000003,0.038000000000000006 -0.43600000000000005,0.13 -0.5870000000000001,0.31900000000000006 c-3.121,3.987 -11.27,15.431000000000001 -18.724,15.431000000000001 c-6.242,0 13.522,-25.486 16.817,-37.45 c0.6930000000000002,-4.335 -7.108,-7.456 -8.495,-4.162 c-0.6930000000000002,1.735 -3.467,6.242 -4.508,8.148 c0,-5.2 -7.108,-9.188 -10.923,-6.9350000000000005 c-6.976,4.46 -19.91,16.769 -24.721,28.412 c-7.901,7.692 -21.871,17.438 -27.943,12.686 c11.096,-8.462 35.022,-39.825 30.341,-51.937 c-0.8670000000000001,-2.6550000000000002 -4.161,-3.983 -6.415,-5.477 c-9.709,-8.296 -69.004,115.489 -39.53,105.865 c11.789,-3.816 24.793,-35.012 22.019,-43.972 c6.953,-2.25 14.457,-7.198 19.953,-11.917 c-0.7280000000000001,4.085 -0.11600000000000002,7.914 2.544,11.072 c5.547,6.414 18.725,-8.149000000000001 23.751,-13.697000000000001 c-1.213,3.988 -2.601,13.697000000000001 3.122,13.697000000000001 c8.216,0 17.239,-8.563 21.968,-14.724 c-2.193,10.464 -1.296,18.884 5.94,18.884 c16.124,0 38.664,-38.316 38.664,-50.106 C167.43399713134767,60.251001892089846 157.37799713134766,63.89100189208983 157.03099713134765,67.01200189208984 zM71.94899713134765,56.24200189208983 c7.977,0 -18.551,40.321 -29.819,48.451 C51.490997131347655,86.60600189208984 69.86899713134765,56.24200189208983 71.94899713134765,56.24200189208983 zM29.47199713134765,150.65800189208986 c-4.162,0 6.068,-30.532 7.802,-34.016 c1.733,-3.818 2.947,-5.809 4.334,-6.307 C55.30499713134766,105.02600189208985 40.39399713134766,150.65800189208986 29.47199713134765,150.65800189208986 zM89.24599713134765,99.95400189208985 c-3.121,2.948 -6.416,5.547 -10.056,7.455 c-5.722,-1.561 24.272,-42.479 27.393,-32.595 c-0.6930000000000002,2.253 -1.733,4.161 -2.601,6.069 C100.51399713134765,86.08300189208984 100.34199713134765,89.20400189208985 89.24599713134765,99.95400189208985 z" id="svg_7"/>
			<path fill="#1D1D1B" d="M267.80399713134767,57.41700189208984 c4.6530000000000005,0.31000000000000005 7.29,-4.189 8.531,-7.136 c1.863,-3.879 -3.878,-9.618 -6.6690000000000005,-5.74 C268.4239971313477,46.40100189208985 264.0799971313477,57.106001892089836 267.80399713134767,57.41700189208984 z" id="svg_8"/>
			<path fill="#1D1D1B" d="M333.68699713134765,89.72500189208984 c-6.415,9.883000000000001 -19.246,19.244 -31.034,14.91 c-4.682,-1.56 -4.507,-4.508 -0.521,-11.616 c0.8680000000000001,0.8650000000000001 2.775,1.041 3.295,1.041 c14.912,0 22.887,-16.644 22.887,-22.019 c0,-2.774 -5.029,-12.31 -9.883000000000001,-10.577 c-5.798,1.984 -23.81,19.546 -25.21,34.485 c-3.9210000000000003,4.674 -9.369,10.072 -14.489,10.072 c-8.497,0 8.147,-29.3 15.604,-45.771 c11.27,2.948 11.962,-1.733 10.401,-5.202 c-0.17300000000000001,2.948 -3.988,2.081 -7.801,0.521 c0.519,-1.213 3.293,-6.9350000000000005 3.64,-7.6290000000000004 c4.508,-7.628 -4.854,-9.536 -5.027,-9.188 c-2.253,3.294 -6.07,10.229 -8.323,14.217 c-4.854,-2.4290000000000003 -12.098,-0.6940000000000002 -9.324,5.721 c1.3880000000000001,-3.467 3.084,-2.427 6.897,-0.8670000000000001 c-5.012,9.78 -10.955,22.086 -14.2,32.332 c-3.33,4.306 -11.178,15.001 -18.392,15.001 c-6.243,0 13.35,-25.313 16.644,-37.276 c0.521,-3.294 -4.68,-8.323 -6.761,-5.722 c-6.848,8.655 -14.885,22.053 -18.265,32.39 c-4.787,5.428 -12.866,13.588000000000001 -18.659,13.588000000000001 c-6.241,0 11.269,-25.594 16.817,-33.851 c0,-5.7780000000000005 -13.176,-9.082 -15.777,-11.062 c5.028,-8.421 6.415,-14.861 -3.641,-14.861 c-10.229,0 -12.136,17.172 -2.775,19.978 c-3.119,6.11 -15.256,17.669 -21.151,17.999 c2.774,-9.907 2.427,-19.484 -4.507,-21.961 c-1.733,-0.6600000000000001 -3.295,-0.6600000000000001 -5.375,1.1560000000000001 c-3.64,-1.816 -5.894,-4.457 -9.015,-1.486 c-9.536,9.082 -23.232,31.87 -14.91,41.447 c3.294,3.632 9.362,5.449 14.043,5.449 c6.9350000000000005,0 14.737,-10.568 18.724,-21.796 c6.588,0 20.805,-10.898 24.967,-19.155 c2.427,1.3210000000000002 5.027,2.146 7.975,2.973 c-6.7620000000000005,11.063 -25.141,39.299 -9.362,39.299 c6.737,0 15.405,-6.667 21.341,-12.659 c-1.029,5.87 0.32600000000000007,9.885 5.7,9.885 c7.543,0 15.769,-7.217 20.725,-13.166 c-1.745,8.236 -0.6980000000000002,14.032 5.799,14.032 c6.5120000000000005,0 13.52,-5.38 18.508,-10.678 c0.08300000000000002,0.7380000000000001 0.19900000000000004,1.47 0.38800000000000007,2.183 c6.763,23.232 39.011,-0.6940000000000002 41.784,-10.75 C335.94199713134765,89.55200189208983 334.20599713134766,88.85800189208985 333.68699713134765,89.72500189208984 zM318.7769971313477,73.94600189208984 c5.029,0 -0.17300000000000001,16.298000000000002 -15.431000000000001,16.992 C308.72099713134764,82.44300189208985 316.52199713134763,73.94600189208984 318.7769971313477,73.94600189208984 zM180.08599713134765,105.98900189208985 c-13.523,0 1.213,-25.759 3.814,-30.713 c-0.6940000000000002,6.605 3.294,12.55 10.402,13.705 C192.91499713134766,93.76900189208985 183.72699713134764,105.98900189208985 180.08599713134765,105.98900189208985 zM195.86399713134765,86.17400189208985 c-7.802,-0.33100000000000007 -10.75,-13.541 -3.988,-17.667 C197.24999713134767,65.20300189208984 199.33099713134766,76.26700189208984 195.86399713134765,86.17400189208985 zM222.56299713134763,62.56200189208985 c-5.202,-3.138 -3.641,-10.402 -1.735,-10.402 C226.03099713134765,52.16000189208984 224.47099713134764,59.75400189208983 222.56299713134763,62.56200189208985 z" id="svg_9"/>
		</g>
		<g id="svg_10">
			<path fill="#1D1D1B" d="M111.96299713134766,167.52400189208987 c-2.569,-0.54 -4.124,-1.7240000000000002 -4.664,-3.548 l-18.857,-44.354 c-1.622,2.061 -3.785,3.227 -6.488,3.497 l1.42,1.8250000000000002 l-17.033,39.742 c-1.082,2.028 -2.704,3.042 -4.866,3.042 c-1.758,-0.134 -2.636,0.47400000000000003 -2.636,1.8250000000000002 c0,1.083 1.015,1.6230000000000002 3.042,1.6230000000000002 h11.557 c2.1630000000000003,0.27 3.177,-0.203 3.042,-1.419 c0,-1.351 -0.9470000000000001,-1.959 -2.839,-1.8250000000000002 c-3.6500000000000004,0.136 -5.272,-0.54 -4.866,-2.028 l6.3870000000000005,-15.258 l-0.507,1.268 h19.263 l5.475,12.369 c0.812,2.028 -0.202,3.11 -3.041,3.244 c-1.8930000000000002,0 -2.839,0.6080000000000001 -2.839,1.8250000000000002 s0.8780000000000001,1.8250000000000002 2.636,1.8250000000000002 h16.222 c1.7570000000000001,0 2.7030000000000003,-0.6090000000000001 2.838,-1.8250000000000002 C115.07099713134767,167.99800189208986 113.98999713134765,167.39000189208986 111.96299713134766,167.52400189208987 zM76.32799713134766,147.85600189208984 l7.045,-16.83 c0.54,-1.217 1.1480000000000001,-1.217 1.8250000000000002,0 l7.299,16.83 H76.32799713134766 z" id="svg_11"/>
			<path fill="#1D1D1B" d="M166.80399713134764,150.01300189208985 h-15.41 c-2.5700000000000003,-0.136 -3.854,0.49000000000000005 -3.854,1.875 c0.136,1.217 1.149,1.8940000000000001 3.042,2.028 c1.8920000000000001,0.135 2.839,0.8790000000000001 2.839,2.23 c0,1.352 -0.135,2.975 -0.405,4.866 c-0.271,1.8940000000000001 -1.149,3.649 -2.636,5.272 c-1.487,1.622 -4.258,2.568 -8.314,2.838 c-5.001,0.136 -9.361,-1.689 -13.078,-5.475 c-3.718,-3.784 -5.712,-9.53 -5.981,-17.235 c0.269,-8.245 2.094,-14.396 5.474,-18.452 c3.379,-4.056 7.772,-6.014 13.18,-5.88 c7.164,0.541 11.962,3.769 14.396,9.683 c1.385,4.5280000000000005 2.923,6.724 4.614,6.588 c1.891,-0.30300000000000005 2.7190000000000003,-1.5870000000000002 2.483,-3.853 v-12.317 c-0.135,-1.8250000000000002 -1.082,-2.8040000000000003 -2.838,-2.94 c-1.758,2.67 -3.11,3.583 -4.056,2.738 c-0.9460000000000001,-0.8440000000000001 -5.069,-1.8250000000000002 -12.369,-2.94 h-6.285 c-15.952,0.811 -23.995,10.071 -24.129,27.779 c0.134,17.843 9.665000000000001,26.612000000000002 28.589,26.31 c4.462,-0.271 8.145,-1.328 11.051,-3.169 c2.906,-1.84 5.1370000000000005,-2.829 6.692,-2.965 c1.554,-0.134 2.331,-1.689 2.331,-4.664 l0.203,-4.258 c-0.136,-2.77 1.115,-4.157 3.7510000000000003,-4.157 c2.637,0 3.954,-0.6750000000000002 3.954,-2.028 C170.04799713134764,150.63800189208985 168.96599713134765,150.01300189208985 166.80399713134764,150.01300189208985 z" id="svg_12"/>
			<path fill="#1D1D1B" d="M209.60999713134765,162.43100189208985 c-1.082,0 -2.704,1.014 -4.866,3.042 c-2.1630000000000003,2.028 -4.9350000000000005,3.313 -8.313,3.8520000000000003 h-7.908 c-1.8940000000000001,-0.27 -2.839,-2.297 -2.839,-6.083 V150.26600189208983 h6.894 c1.8930000000000002,-0.134 2.941,0.6080000000000001 3.144,2.23 c0.202,1.6230000000000002 0.913,2.434 2.129,2.434 c1.081,0 1.622,-0.811 1.622,-2.434 v-9.53 c0,-1.7560000000000002 -0.6080000000000001,-2.636 -1.824,-2.636 c-1.217,0 -1.8940000000000001,0.912 -2.028,2.737 c-0.136,1.8250000000000002 -1.082,2.737 -2.839,2.737 h-7.097 v-14.802 c-0.136,-4.46 0.9450000000000001,-6.758 3.245,-6.894 h4.46 c2.567,0.136 4.866,1.454 6.894,3.954 c2.028,2.501 3.717,3.7510000000000003 5.07,3.7510000000000003 c1.216,-0.134 1.622,-1.217 1.216,-3.245 l-1.8250000000000002,-5.069 c-0.54,-1.8920000000000001 -3.446,-2.7030000000000003 -8.719,-2.433 H175.69799713134765 c-2.4,0 -3.599,0.541 -3.599,1.622 c0.136,1.353 1.082,2.028 2.839,2.028 c1.622,0.136 2.5,1.5550000000000002 2.6350000000000002,4.258 v33.862 c0.136,3.786 -0.7430000000000001,5.813 -2.6350000000000002,6.083 c-1.8930000000000002,0 -2.839,0.6780000000000002 -2.839,2.028 c0,1.082 0.9470000000000001,1.6910000000000003 2.839,1.8250000000000002 h30.618 c2.162,0.405 3.5140000000000002,-0.47300000000000003 4.055,-2.637 l1.217,-4.866 C211.09799713134765,163.51400189208982 210.69199713134765,162.56700189208982 209.60999713134765,162.43100189208985 z" id="svg_13"/>
			<path fill="#1D1D1B" d="M252.08299713134767,122.89200189208984 c2.297,0.136 3.378,-0.47300000000000003 3.244,-1.8250000000000002 c0,-1.217 -1.082,-1.8250000000000002 -3.244,-1.8250000000000002 H235.65799713134766 c-2.1630000000000003,0 -3.244,0.6770000000000002 -3.244,2.028 c0,1.216 1.081,1.758 3.244,1.622 c2.434,0.271 3.6500000000000004,1.8940000000000001 3.6500000000000004,4.867 v37.309 c-0.136,2.705 -1.42,4.055 -3.853,4.055 c-2.1630000000000003,0 -3.244,0.6090000000000001 -3.244,1.8250000000000002 c0.10200000000000001,1.217 1.183,1.8250000000000002 3.244,1.8250000000000002 h16.88 c1.858,0 2.7880000000000003,-0.6080000000000001 2.7880000000000003,-1.8250000000000002 c0,-1.216 -1.013,-1.8250000000000002 -3.041,-1.8250000000000002 c-2.164,0 -3.244,-1.419 -3.244,-4.258 v-36.701 C248.83899713134764,124.91900189208985 249.91999713134766,123.16300189208985 252.08299713134767,122.89200189208984 z" id="svg_14"/>
			<path fill="#1D1D1B" d="M296.18499713134764,120.86400189208985 c-0.541,0 -1.108,0.6080000000000001 -1.6990000000000003,1.8250000000000002 c-0.5910000000000001,1.217 -1.342,1.319 -2.255,0.30500000000000005 c-0.913,-1.014 -4.006,-2.061 -9.277,-3.143 h-5.525 c-10.341,0.406 -15.681000000000001,5.205 -16.018,14.396 c0.16800000000000004,8.516 6.1,14.127 17.794,16.83 c7.265,1.488 10.829,5.205 10.695,11.153 c-0.203,4.19 -3.464,6.69 -9.784,7.502 c-7.503,-1.081 -11.879,-3.853 -13.129,-8.314 c-1.014,-2.838 -2.164,-4.325 -3.446,-4.461 c-1.42,0 -2.198,0.9470000000000001 -2.332,2.839 v10.34 c0,1.758 0.8280000000000001,2.569 2.483,2.434 c0.43900000000000006,0 0.904,-0.5740000000000001 1.3940000000000001,-1.7240000000000002 c0.49000000000000005,-1.147 1.335,-1.216 2.535,-0.202 c1.199,1.014 3.3200000000000003,1.723 6.361,2.129 h9.783 c8.382,-0.27 12.792,-4.798 13.231,-13.585 c-0.43900000000000006,-8.922 -5.6770000000000005,-14.667 -15.715,-17.236 c-8.28,-1.622 -12.368,-4.798 -12.267,-9.53 c-0.47400000000000003,-5.272 3.2960000000000003,-8.178 11.304,-8.719 c5.611,0.811 9.142,3.516 10.595,8.11 c2.027,4.698 3.717,6.978 5.069,6.845 c1.351,-0.136 2.028,-1.251 2.028,-3.348 v-10.95 C298.00999713134763,122.16500189208983 297.4019971313477,121.00000189208984 296.18499713134764,120.86400189208985 z" id="svg_15"/>
		</g>
		<path fill="#1D1D1B" d="M251.14099713134766,185.03400189208986 c-1.905,16.124 -19.764,39.876 -27.565,39.876 c-6.242,0 10.229,-25.313 12.137,-37.276 c0,-3.294 -5.723,-8.323 -7.456,-5.721 c-3.814,5.548 -7.6290000000000004,13.003 -10.576,20.284 c-7.455,10.229 -16.99,22.713 -21.325,22.713 c-6.242,0 13.349,-25.313 16.644,-37.276 c0.521,-3.294 -4.681,-8.323 -6.7620000000000005,-5.721 c-4.425,5.593 -9.346,13.169 -13.19,20.619 c-3.046,1.373 -6.351,2.104 -9.171,2.266 c2.773,-10.402 2.426,-20.458 -4.508,-23.057 c-1.734,-0.6950000000000002 -3.294,-0.6950000000000002 -5.375,1.213 c-3.6420000000000003,-1.908 -5.8950000000000005,-4.681 -9.016,-1.561 c-7.209,7.21 -16.792,22.644 -17.442,34.091 c-3.872,4.511 -9.048,9.427 -13.936,9.427 c-6.242,0 13.349,-25.313 16.644,-37.276 c0.52,-3.294 -3.6420000000000003,-6.9350000000000005 -6.763,-5.721 c-10.922,4.854 -25.659,23.578 -31.38,32.942 c3.293,-7.456 6.7620000000000005,-15.257 14.043,-29.648 c2.081,-3.988 -6.9350000000000005,-8.669 -9.015,-4.162 c-7.802,16.817 -15.604,33.116 -19.245,42.304 c-2.253,5.202 7.803,8.323 9.536,5.029 c10.576,-20.806 30.167,-39.185 31.38,-39.531 c-6.9350000000000005,12.831 -25.832,40.398 -9.188,40.398 c6.308,0 13.09,-5.048 18.042,-10.181 c0.30600000000000005,2.229 1.068,4.221 2.4130000000000003,5.846 c3.293,3.814 9.362,5.722 14.042,5.722 c6.9350000000000005,0 14.737,-11.096 18.726,-22.887 c2.407,0 5.296,-0.31600000000000006 8.2,-1.103 c-5.543,11.99 -7.415,22.603 1.331,22.603 c5.548,0 15.431000000000001,-10.577 22.713,-19.592 c-3.121,10.75 -2.948,19.592 5.027,19.592 c16.125,0 39.184,-34.156 39.184,-45.945 C259.29099713134764,180.00500189208987 251.48999713134765,181.91300189208982 251.14099713134766,185.03400189208986 zM165.32399713134765,225.43000189208982 c-13.523,0 1.213,-27.046 3.814,-32.249 c-0.6930000000000002,6.9350000000000005 3.294,13.177 10.402,14.391 C178.15499713134767,212.59900189208986 168.96499713134764,225.43000189208982 165.32399713134765,225.43000189208982 zM181.10099713134767,204.62500189208987 c-7.801,-0.3470000000000001 -10.749,-14.217 -3.987,-18.55 C182.48999713134765,182.60600189208986 184.56899713134766,194.22200189208985 181.10099713134767,204.62500189208987 z" id="svg_16"/>
	</g>
	<path fill="#CB7B26" d="M321.59299713134766,216.57200189208982 c-2.189,1.641 -4.378,3.004 -7.191,3.473 c-6.672000000000001,1.107 -12.885,-0.3970000000000001 -18.872,-3.068 c-1.435,-0.6410000000000001 -2.479,-0.6060000000000001 -3.895,-0.20400000000000001 c-6.79,1.952 -13.433,2.245 -19.374,-2.509 c-4.03,-3.217 -6.305,-7.578 -7.24,-12.488 c-0.6790000000000002,-3.573 0.259,-7.011 2.9370000000000003,-9.749 c2.597,-2.669 5.9190000000000005,-3.072 8.648,-1.032 c2.262,1.6940000000000002 2.536,5.269 0.6350000000000001,8.276 c-1.33,2.104 -3.781,2.349 -5.334,0.453 c-0.7450000000000001,-0.914 -1.302,-2.102 -0.31300000000000006,-3.115 c0.8910000000000001,-0.917 1.5550000000000002,0.11000000000000001 2.26,0.6150000000000001 c1.158,0.8290000000000001 1.959,0.42400000000000004 2.059,-1.034 c0.08300000000000002,-1.232 -0.35800000000000004,-2.274 -1.433,-2.9370000000000003 c-1.243,-0.7670000000000001 -2.468,-0.6660000000000001 -3.686,0.15400000000000003 c-3.007,2.018 -4.15,6.381 -2.641,10.144 c0.77,1.933 1.916,3.646 3.285,5.166 c5.207,5.792 11.295,7.495 18.9,5.942 c1.379,-0.279 1.586,-0.905 0.6640000000000001,-1.988 c-0.795,-0.936 -1.451,-1.992 -2.276,-2.896 c-4.663,-5.098 -4.758,-17.13 0.3470000000000001,-22.915 c2.8040000000000003,-3.179 8.495,-5.805 13.499,-1.3 c3.5460000000000003,3.193 4.067,7.389 3.6180000000000003,11.731 c-0.529,5.148 -2.3040000000000003,9.894 -5.789,13.834 c-0.8750000000000001,0.986 -0.526,1.282 0.43800000000000006,1.7080000000000002 c1.608,0.7060000000000001 3.319,0.9650000000000001 5.01,1.193 c6.134,0.8330000000000001 12.04,-0.21500000000000002 16.493,-4.5760000000000005 c8.552,-8.368 10.727,-18.379 6.417,-29.729 c-1.717,-4.526 -4.008,-8.552 -7.615,-11.852 c-2.415,-2.21 -4.668,-4.604 -6.891,-7.013 c-5.044,-5.462 -7.008,-11.888 -5.786,-19.253 c0.93,-5.640000000000001 3.813,-10.303 7.707,-14.258 c5.05,-5.125 13.64,-5.795 18.896,-1.6760000000000002 c3.859,3.027 4.796,7.408 5.249,12.016 c0.554,5.663 -1.4420000000000002,8.867 -7.327,12.108 c-3.487,1.9220000000000002 -7.578,-0.33100000000000007 -8.575,-4.163 c-0.5,-1.9140000000000001 0.37200000000000005,-3.361 1.062,-4.897 c0.8630000000000001,-1.9180000000000001 3.128,-2.958 4.583,-2.229 c1.479,0.7420000000000001 1.747,3.098 0.7660000000000001,5.038 c-0.36500000000000005,0.7220000000000001 -1.939,1.143 -1.067,2.093 c0.7450000000000001,0.8130000000000001 2.039,0.24100000000000002 3.027,-0.11600000000000002 c0.909,-0.3330000000000001 1.7610000000000001,-0.8230000000000001 2.436,-1.602 c2.478,-2.862 2.847,-9.197 0.7110000000000001,-12.302 c-2.646,-3.8440000000000003 -6.7330000000000005,-4.2940000000000005 -11.291,-2.718 c-10.807,3.733 -19.166,21.12 -7.302,31.416 c3.149,2.729 6.159,5.683 8.869,8.848 c9.173,10.71 9.968,22.684 4.866,35.475 C328.92799713134764,209.37400189208984 325.8229971313477,213.39500189208985 321.59299713134766,216.57200189208982 zM303.58099713134766,193.49600189208985 c-0.05800000000000001,-3.317 -1.714,-5.643 -4.621,-6.446 c-4.077,-1.125 -6.772,-0.35700000000000004 -8.620000000000001,2.62 c-2.786,4.492 -3.417,9.894 0.24900000000000003,14.397 c1.447,1.78 2.9290000000000003,3.515 4.589,5.089 c1.026,0.97 1.963,1.275 2.91,-0.29800000000000004 c1.174,-1.953 2.7560000000000002,-3.66 3.487,-5.718 C303.09899713134763,200.00700189208982 303.63699713134764,196.81100189208985 303.58099713134766,193.49600189208985 zM316.70599713134766,217.03400189208986 c2.403,-0.6760000000000002 4.223,-2.441 5.959,-4.195 c0.21400000000000002,-0.22100000000000003 0.542,-0.406 0.43800000000000006,-0.807 c-0.30700000000000005,0.07600000000000001 -0.6470000000000001,0.09600000000000003 -0.912,0.24800000000000003 c-2.878,1.6270000000000002 -5.986,2.632 -9.191,3.363 c-4.521,1.038 -8.943,0.3380000000000001 -13.335,-0.803 c-0.516,-0.132 -1.219,-0.8290000000000001 -1.486,-0.20800000000000002 c-0.2,0.454 0.797,0.6070000000000001 1.284,0.8520000000000001 c0.21900000000000003,0.11200000000000002 0.44700000000000006,0.20500000000000002 0.6710000000000002,0.30700000000000005 C305.53799713134765,217.75900189208983 311.06699713134765,218.62900189208983 316.70599713134766,217.03400189208986 zM319.54699713134767,128.89700189208983 c0.6180000000000001,-0.38700000000000007 1.268,-0.7300000000000001 1.83,-1.178 c0.557,-0.44800000000000006 1.945,-0.126 1.6190000000000002,-1.166 c-0.137,-0.41800000000000004 -1.432,0.31500000000000006 -2.126,0.6950000000000002 c-0.6400000000000001,0.3420000000000001 -1.22,0.791 -1.8370000000000002,1.172 c-0.31200000000000006,0.18900000000000003 -0.3980000000000001,0.3960000000000001 -0.17600000000000002,0.8630000000000001 C319.12899713134766,129.12900189208983 319.34399713134763,129.02300189208984 319.54699713134767,128.89700189208983 zM328.96799713134766,141.89900189208984 c0.18500000000000003,-0.33100000000000007 -0.008000000000000002,-0.6370000000000001 -0.3450000000000001,-0.78 c-0.43900000000000006,-0.18800000000000003 -0.8190000000000001,-0.0010000000000000002 -1.037,0.36400000000000005 c-0.18900000000000003,0.32800000000000007 -0.008000000000000002,0.6140000000000001 0.33100000000000007,0.798 C328.32399713134765,142.32500189208983 328.7509971313477,142.29500189208986 328.96799713134766,141.89900189208984 z" id="svg_17"/>
	<path fill="#CB7B26" d="M27.21499713134766,199.75800189208985 c-1.125,-1.665 -2.047,-3.321 -2.29,-5.4 c-0.5730000000000001,-4.9350000000000005 0.7540000000000001,-9.44 2.9290000000000003,-13.735 c0.521,-1.029 0.533,-1.7970000000000002 0.28900000000000003,-2.85 c-1.189,-5.052 -1.165,-9.935 2.537,-14.124 c2.504,-2.841 5.785,-4.354 9.421,-4.863 c2.646,-0.37100000000000005 5.134,0.44100000000000006 7.046,2.505 c1.8650000000000002,2 2.042,4.452 0.44700000000000006,6.381 c-1.324,1.5990000000000002 -3.957,1.6710000000000003 -6.095,0.16900000000000004 c-1.495,-1.052 -1.5870000000000002,-2.858 -0.14100000000000001,-3.93 c0.6970000000000002,-0.513 1.588,-0.8790000000000001 2.2960000000000003,-0.11800000000000002 c0.6410000000000001,0.6860000000000002 -0.135,1.137 -0.532,1.637 c-0.6500000000000001,0.8190000000000001 -0.38200000000000006,1.4220000000000002 0.6850000000000002,1.5470000000000002 c0.9,0.10500000000000001 1.6800000000000002,-0.18100000000000002 2.205,-0.9460000000000001 c0.6070000000000001,-0.8840000000000001 0.5780000000000001,-1.786 0.020000000000000004,-2.708 c-1.373,-2.2800000000000002 -4.533,-3.275 -7.347,-2.302 c-1.4460000000000002,0.49500000000000005 -2.744,1.274 -3.909,2.225 c-4.436,3.612 -5.904,8.017 -5.039,13.652000000000001 c0.15600000000000003,1.021 0.6070000000000001,1.197 1.435,0.559 c0.7150000000000001,-0.549 1.514,-0.992 2.207,-1.566 c3.907,-3.237 12.738,-2.875 16.798000000000002,1.077 c2.232,2.172 3.954,6.441 0.47000000000000003,9.95 c-2.471,2.488 -5.567,2.7190000000000003 -8.737,2.233 c-3.758,-0.5720000000000001 -7.176,-2.045 -9.941,-4.743 c-0.6920000000000002,-0.6770000000000002 -0.923,-0.43200000000000005 -1.2690000000000001,0.261 c-0.5750000000000001,1.153 -0.8280000000000001,2.399 -1.055,3.632 c-0.8320000000000001,4.47 -0.276,8.84 2.765,12.263 c5.832,6.575 13.1,8.53 21.58,5.775 c3.382,-1.097 6.418,-2.633 8.969,-5.161 c1.709,-1.693 3.5460000000000003,-3.26 5.393,-4.804 c4.188,-3.505 8.973,-4.714 14.333,-3.5540000000000003 c4.104,0.8850000000000001 7.421,3.167 10.184,6.166 c3.579,3.8890000000000002 3.762,10.215 0.551,13.924 c-2.359,2.723 -5.606,3.252 -9.003,3.419 c-4.174,0.203 -6.454,-1.3760000000000001 -8.620000000000001,-5.8100000000000005 c-1.2850000000000001,-2.6270000000000002 0.515,-5.547 3.361,-6.141 c1.423,-0.29800000000000004 2.452,0.39300000000000007 3.5540000000000003,0.9550000000000001 c1.3760000000000001,0.7020000000000001 2.058,2.401 1.471,3.441 c-0.5970000000000001,1.059 -2.335,1.17 -3.724,0.38200000000000006 c-0.515,-0.29400000000000004 -0.7680000000000001,-1.464 -1.496,-0.8590000000000001 c-0.6240000000000001,0.518 -0.25,1.486 -0.023000000000000007,2.225 c0.21200000000000002,0.6790000000000002 0.54,1.322 1.087,1.844 c2.011,1.92 6.646,2.418 9,0.9630000000000001 c2.916,-1.803 3.392,-4.786 2.399,-8.186 c-2.351,-8.063 -14.807,-14.819 -22.786,-6.484 c-2.114,2.212 -4.39,4.313 -6.809,6.189 c-8.187,6.345 -17,6.498 -26.201,2.2960000000000003 C32.231997131347654,205.39800189208984 29.392997131347656,202.97600189208987 27.21499713134766,199.75800189208985 zM44.79099713134765,187.37200189208983 c2.4370000000000003,0.07700000000000001 4.201,-1.054 4.8950000000000005,-3.158 c0.972,-2.95 0.505,-4.956 -1.612,-6.418 c-3.195,-2.204 -7.1370000000000005,-2.862 -10.572,-0.3340000000000001 c-1.358,0.997 -2.6830000000000003,2.022 -3.8970000000000002,3.184 c-0.7500000000000001,0.7190000000000001 -1.007,1.395 0.11400000000000002,2.146 c1.3900000000000001,0.931 2.5860000000000003,2.153 4.07,2.763 C40.03099713134766,186.78500189208984 42.356997131347654,187.29400189208985 44.79099713134765,187.37200189208983 zM27.050997131347657,196.15600189208982 c0.40900000000000003,1.788 1.6390000000000002,3.186 2.863,4.522 c0.15500000000000003,0.16600000000000004 0.278,0.41300000000000003 0.5770000000000001,0.35100000000000003 c-0.04500000000000001,-0.22800000000000004 -0.04800000000000001,-0.47900000000000004 -0.14900000000000002,-0.6770000000000002 c-1.09,-2.17 -1.7160000000000002,-4.487 -2.137,-6.864 c-0.5990000000000001,-3.354 0.07300000000000001,-6.573 1.068,-9.755 c0.11500000000000002,-0.37300000000000005 0.6510000000000001,-0.8640000000000001 0.20500000000000002,-1.083 c-0.32700000000000007,-0.16400000000000003 -0.47400000000000003,0.5630000000000001 -0.6710000000000002,0.911 c-0.08900000000000002,0.15700000000000003 -0.16600000000000004,0.32100000000000006 -0.24900000000000003,0.48100000000000004 C26.919997131347657,187.93700189208982 26.081997131347656,191.96200189208986 27.050997131347657,196.15600189208982 zM91.60999713134765,201.40400189208987 c0.262,0.467 0.49000000000000005,0.9560000000000001 0.799,1.385 c0.30800000000000005,0.42400000000000004 0.022000000000000006,1.431 0.796,1.229 c0.31200000000000006,-0.08500000000000002 -0.18000000000000002,-1.062 -0.43400000000000005,-1.584 c-0.22800000000000004,-0.48100000000000004 -0.536,-0.923 -0.794,-1.3900000000000001 c-0.127,-0.23600000000000002 -0.276,-0.30700000000000005 -0.6270000000000001,-0.16000000000000003 C91.45499713134765,201.08900189208987 91.52399713134767,201.25100189208985 91.60999713134765,201.40400189208987 zM81.73299713134766,207.85000189208984 c0.23600000000000002,0.14800000000000002 0.468,0.017000000000000005 0.5840000000000001,-0.22500000000000003 c0.15400000000000003,-0.31600000000000006 0.031000000000000007,-0.6010000000000001 -0.22900000000000004,-0.774 c-0.233,-0.15100000000000002 -0.45,-0.028000000000000004 -0.5980000000000001,0.21400000000000002 C81.44399713134766,207.36200189208984 81.44999713134766,207.67600189208986 81.73299713134766,207.85000189208984 z" id="svg_18"/>
	<path fill="#CB7B26" d="M243.60099713134764,19.46300189208985 c-0.9580000000000001,2.888 -1.226,5.953 -1.913,8.997 c0.133,0.14600000000000002 -0.012000000000000002,0.276 -0.14900000000000002,0.272 c-0.5830000000000001,0.533 -2.838,0.998 -3.825,1.235 c-1.278,0.507 -2.816,0.5830000000000001 -4.082,0.808 c-2.814,0.44100000000000006 -5.890000000000001,0.5920000000000001 -8.819,0.47100000000000003 c-5.428,-0.36900000000000005 -11.93,-1.8960000000000001 -14.933,-6.911 c-0.521,-0.8590000000000001 -0.7640000000000001,-1.707 -0.5850000000000001,-2.677 c0.257,0.5680000000000001 0.9440000000000001,0.8760000000000001 1.6500000000000001,0.6270000000000001 c0.7030000000000001,-0.11100000000000002 1.15,-0.79 1.4460000000000002,-1.194 c0.6040000000000001,-1.096 0.38000000000000006,-2.363 -0.43500000000000005,-2.955 c-2.038,-1.34 -4.619,0.22500000000000003 -5.398,2.151 c-0.6200000000000001,1.508 -0.41700000000000004,3.332 0.21400000000000002,4.896 c0.8840000000000001,2.269 2.622,4.158 4.928,5.786 c6.378,4.322 15.197,3.854 22.232,2.6100000000000003 c0.986,-0.23800000000000002 8.439,-1.462 8.487,-2.577 c0.18600000000000003,2.244 0.793,4.361 1.549,6.349 c1.3880000000000001,3.551 3.902,6.864 7.614,8.279 c1.3800000000000001,0.47700000000000004 4.273,1.296 5.706,0.517 c1.425,-0.779 1.5310000000000001,-3.287 1.45,-4.688000000000001 c-0.132,-3.498 -1.9500000000000002,-6.784 -4.506,-9.124 c-1.347,-1.174 -2.831,-2.354 -4.34,-2.979 c-1.232,-0.6080000000000001 -3.021,-1.242 -4.557,-1.3050000000000002 c-0.139,-0.007000000000000002 0.16900000000000004,-4.043 0.33100000000000007,-4.596 c0.49400000000000005,-1.7930000000000001 1.54,-3.426 2.443,-4.925 c2.087,-3.124 4.85,-5.801 8.266,-7.332 c5.976,-2.6820000000000004 16.494,-3.64 20.547,2.9530000000000003 c1.299,2.291 1.8760000000000001,5.108 1.075,7.589 c-0.49600000000000005,1.932 -1.685,3.56 -2.995,4.897 c-1.3090000000000002,1.206 -2.854,1.4180000000000001 -4.55,1.905 c-0.8450000000000001,0.24600000000000002 -1.963,0.19900000000000004 -2.7800000000000002,-0.255 c-0.8250000000000001,-0.31500000000000006 -1.491,-1.177 -1.449,-2.1550000000000002 c0.018000000000000002,-0.41800000000000004 0.04500000000000001,-1.116 0.3430000000000001,-1.521 c0.798,0.8690000000000001 2.499,0.38100000000000006 2.964,-0.7160000000000001 c0.6330000000000001,-1.79 -1.25,-3.542 -2.807,-2.909 c-1.566,0.6330000000000001 -2.779,2.955 -2.981,4.343 c-0.37800000000000006,2.498 1.052,4.932 3.3930000000000002,5.728 c1.245,0.33100000000000007 2.499,0.38400000000000006 3.763,0.15800000000000003 c6.757,-1.252 11.478,-7.2 9.81,-14.112 c-1.1680000000000001,-5.493 -5.567,-10.426 -10.948,-12.049 c-2.755,-0.8140000000000001 -5.684,-0.937 -8.365,-0.3490000000000001 C253.93199713134766,6.209001892089844 246.14899713134764,12.026001892089837 243.60099713134764,19.46300189208985 M255.44699713134764,10.045001892089843 c0.29200000000000004,-0.268 0.7220000000000001,-0.53 1.011,-0.798 c5.177,-3.5540000000000003 11.617,-3.981 16.506,-0.7030000000000001 C267.47099713134764,6.358001892089845 260.86699713134766,7.338001892089849 255.44699713134764,10.045001892089843 zM255.58799713134766,43.427001892089834 c-0.44000000000000006,0.536 -3.591,-0.989 -3.999,-1.286 c-1.227,-0.7490000000000001 -1.754,-1.47 -2.402,-2.616 c-1.843,-2.731 -3.118,-5.578 -3.535,-8.947 c2.088,0.08900000000000002 4.015,0.7310000000000001 5.771,2.202 c2.428,2.052 6.266,7.103 4.308,10.513 C255.72599713134764,43.43200189208986 255.58799713134766,43.427001892089834 255.58799713134766,43.427001892089834 z" id="svg_19"/>
	<path fill="#CB7B26" d="M51.97099713134766,39.98800189208984 c-0.22800000000000004,-3.034 -1.158,-5.966 -1.6940000000000002,-9.04 c-0.18000000000000002,-0.08400000000000002 -0.09600000000000003,-0.26 0.03300000000000001,-0.30900000000000005 c0.3330000000000001,-0.7160000000000001 2.235,-2.012 3.055,-2.612 c0.986,-0.9580000000000001 2.3770000000000002,-1.62 3.458,-2.314 c2.428,-1.489 5.209,-2.8120000000000003 7.959,-3.826 c5.1530000000000005,-1.7480000000000002 11.743,-2.838 16.442,0.6360000000000001 c0.812,0.5930000000000001 1.362,1.282 1.57,2.246 c-0.455,-0.42600000000000005 -1.208,-0.44500000000000006 -1.7650000000000001,0.05600000000000001 c-0.6070000000000001,0.37300000000000005 -0.7580000000000001,1.17 -0.8770000000000001,1.6580000000000001 c-0.135,1.243 0.56,2.327 1.5390000000000001,2.56 c2.396,0.453 4.177,-1.9849999999999999 4.156,-4.062 c-0.008000000000000002,-1.6300000000000001 -0.8970000000000001,-3.236 -2.08,-4.438 c-1.689,-1.754 -4.02,-2.83 -6.774,-3.4450000000000003 c-7.551,-1.536 -15.512,2.2880000000000003 -21.528,6.141 c-0.8180000000000001,0.5990000000000001 -7.227,4.596 -6.843,5.643 c-1.034,-1.999 -2.41,-3.72 -3.871,-5.265 c-2.648,-2.744 -6.242,-4.835 -10.213,-4.714 c-1.457,0.09000000000000002 -4.443,0.44700000000000006 -5.466,1.717 c-1.016,1.266 -0.14900000000000002,3.622 0.465,4.884 c1.467,3.178 4.409,5.5120000000000005 7.668,6.688000000000001 c1.6940000000000002,0.5670000000000001 3.519,1.086 5.151,1.082 c1.372,0.08800000000000002 3.267,-0.016000000000000004 4.708,-0.548 c0.131,-0.04600000000000001 1.399,3.797 1.463,4.37 c0.233,1.844 -0.10400000000000001,3.754 -0.36000000000000004,5.485 c-0.7250000000000001,3.6870000000000003 -2.247,7.22 -4.811,9.946 c-4.485,4.774 -13.827,9.704 -20.103,5.178 c-2.08,-1.616 -3.697,-3.9939999999999998 -3.91,-6.593 c-0.28700000000000003,-1.974 0.18700000000000003,-3.933 0.8810000000000001,-5.673 c0.7450000000000001,-1.616 2.089,-2.406 3.467,-3.507 c0.6850000000000002,-0.553 1.737,-0.9390000000000001 2.665,-0.8340000000000001 c0.8830000000000001,-0.027000000000000007 1.828,0.513 2.166,1.432 c0.14400000000000002,0.39300000000000007 0.38800000000000007,1.047 0.268,1.536 c-1.071,-0.49600000000000005 -2.453,0.6080000000000001 -2.459,1.8010000000000002 c0.10400000000000001,1.895 2.515,2.7880000000000003 3.709,1.605 c1.202,-1.187 1.429,-3.797 1.081,-5.155 c-0.6110000000000001,-2.451 -2.8680000000000003,-4.148 -5.334,-3.982 c-1.276,0.17300000000000001 -2.456,0.6060000000000001 -3.536,1.3010000000000002 c-5.755,3.7560000000000002 -7.825,11.061 -3.6260000000000003,16.8 c3.191,4.622 9.149000000000001,7.483 14.741,6.912 c2.856,-0.30900000000000005 5.606,-1.322 7.855,-2.896 C47.532997131347656,56.19600189208984 52.47999713134766,47.83300189208984 51.97099713134766,39.98800189208984 M44.65899713134766,53.23800189208984 c-0.16700000000000004,0.35900000000000004 -0.462,0.7660000000000001 -0.6260000000000001,1.125 c-3.412,5.272 -9.192,8.143 -14.966,6.998 C34.97799713134765,61.26700189208984 40.69599713134765,57.82100189208984 44.65899713134766,53.23800189208984 zM31.690997131347658,22.47800189208985 c0.19900000000000004,-0.6640000000000001 3.694,-0.468 4.185,-0.35200000000000004 c1.42,0.22000000000000003 2.186,0.6830000000000002 3.224,1.492 c2.7520000000000002,1.812 5.023,3.948 6.703,6.899 c-1.961,0.7200000000000001 -3.9859999999999998,0.8690000000000001 -6.174,0.18800000000000003 c-3.03,-0.9610000000000001 -8.515,-4.147 -8.019,-8.048 C31.559997131347657,22.526001892089837 31.690997131347658,22.47800189208985 31.690997131347658,22.47800189208985 z" id="svg_20"/>
</g></g></svg>