<svg xmlns="http://www.w3.org/2000/svg" xmlns:xlink="http://www.w3.org/1999/xlink" version="1.1" width="334" height="247" enable-background="new 0 0 432 432" xml:space="preserve" style=""><rect id="backgroundrect" width="100%" height="100%" x="0" y="0" fill="none" stroke="none"/>

<g class="currentLayer" style=""><title>Layer 1</title><g id="svg_1" class="">
	<g id="svg_2">
		<g id="svg_3">
			<path fill="#1D1D1B" d="M92.19498840332031,52.33700775146485 c-2.367,4.866 -8.68,7.102 -13.284,7.365 c2.105,-7.892 1.842,-15.52 -3.419,-17.493 c-1.314,-0.526 -2.499,-0.526 -4.077,0.921 c-2.762,-1.447 -4.472,-3.551 -6.839,-1.184 c-5.436,5.436 -12.652000000000001,17.034 -13.226,25.703 c-2.951,3.464 -6.944,7.3100000000000005 -10.708,7.3100000000000005 c-5.13,0 6.313,-26.699 15.52,-43.797 c1.052,-1.8410000000000002 -0.131,-5.787 -2.499,-5.787 c-0.131,0 -0.3940000000000001,0 -0.526,0.131 c-6.313,1.842 -20.123,31.698 -29.988,43.798 c3.025,-8.943 25.516,-43.798 5.656000000000001,-43.798 c-14.337,0 -28.805,23.938 -9.338000000000001,23.938 c3.2880000000000003,0 3.2880000000000003,-2.894 0.526,-2.894 c-7.498,0 -2.368,-18.677 7.234,-18.677 c13.81,0 -13.811,40.247 -14.074,45.903 c-0.263,3.946 4.472,5.655 6.577,3.946 c5.786,-3.814 17.099,-24.858 24.858,-38.406 c-7.103,15.652000000000001 -17.098,38.932 -6.971,38.932 c4.837,0 10.04,-3.9130000000000003 13.805,-7.849 c0.22000000000000003,1.742 0.799,3.298 1.844,4.5600000000000005 c2.499,2.895 7.103,4.341 10.653,4.341 c5.2620000000000005,0 11.18,-8.417 14.205,-17.362 c5.129,0 13.153,-1.84 16.178,-8.418 C95.22098840332032,51.54800775146484 93.64198840332031,49.18000775146484 92.19498840332031,52.33700775146485 zM64.83798840332031,75.35400775146485 c-10.259,0 0.921,-20.518 2.894,-24.464 c-0.526,5.2620000000000005 2.499,9.997 7.892,10.917 C74.57098840332031,65.62000775146484 67.59998840332031,75.35400775146485 64.83798840332031,75.35400775146485 zM76.80698840332032,59.57100775146483 c-5.9190000000000005,-0.263 -8.155,-10.786 -3.025,-14.074 C77.85998840332032,42.867007751464854 79.43698840332031,51.68000775146484 76.80698840332032,59.57100775146483 z" id="svg_4"/>
			<path fill="#1D1D1B" d="M194.1709884033203,43.34600775146484 c-0.526,1.242 -1.71,4.474 -2.499,5.839 c0,-3.728 -5.393,-6.585 -8.287,-4.969 c-6.2,3.745 -18.596,15.208 -20.027,24.582 c-5.195,4.921 -12.263,8.207 -18.901,5.767 c-3.551,-1.184 -3.419,-3.419 -0.3950000000000001,-8.813 c0.6580000000000001,0.6580000000000001 2.104,0.79 2.499,0.79 c11.312,0 17.362,-12.627 17.362,-16.705 c0,-2.104 -3.814,-9.338000000000001 -7.498,-8.022 c-4.371,1.495 -17.894,14.659 -19.108,25.943 c-2.941,3.436 -6.889,7.201 -10.614,7.201 c-4.735,0 10.127,-19.202 12.626,-28.278 c0.3950000000000001,-2.499 -2.762,-5.261 -5.129,-4.34 c-8.286,3.6830000000000003 -19.466,17.887 -23.806,24.99 c2.499,-5.656000000000001 5.129,-11.574 10.653,-22.491 c1.5790000000000002,-3.025 -5.26,-6.577 -6.839,-3.157 c-5.918,12.758000000000001 -11.837,25.122 -14.6,32.092 c-1.709,3.946 5.9190000000000005,6.313 7.234,3.814 c8.023,-15.784 22.885,-29.725 23.806,-29.988 c-5.261,9.732 -19.597,30.646 -6.97,30.646 c4.757,0 9.871,-3.785 13.623,-7.655 c0.05900000000000001,0.6330000000000001 0.15500000000000003,1.258 0.31700000000000006,1.868 c3.715,12.766 17.57,6.761 25.729,-0.41700000000000004 c0.24900000000000003,1.5270000000000001 0.8840000000000001,2.958 2.021,4.234 c4.209,4.597 14.204,-5.841 18.018,-9.818 c-1.709,4.599 -11.109,23.103 -17.948,25.09 c-4.867,0 -2.499,-6.45 2.8930000000000002,-8.189 c3.6830000000000003,-1.118 -0.3950000000000001,-4.971 -3.814,-3.604 c-7.628,2.982 -8.417,15.149000000000001 3.025,15.149000000000001 c10.654,0 22.815,-26.209 33.075,-47.831 C201.9309884033203,44.21600775146484 195.2229884033203,40.98500775146485 194.1709884033203,43.34600775146484 zM156.6889884033203,51.28500775146483 c3.814,0 -0.131,12.363 -11.705,12.889 C149.06098840332032,57.72900775146485 154.9789884033203,51.28500775146483 156.6889884033203,51.28500775146483 zM188.12098840332033,55.772007751464855 c-5.261,7.332 -10.127,14.54 -18.808,19.013 c-4.341,-1.119 18.413,-30.445 20.78,-23.362 C189.56698840332032,53.038007751464846 188.7789884033203,54.40500775146484 188.12098840332033,55.772007751464855 z" id="svg_5"/>
			<path fill="#1D1D1B" d="M273.0409884033203,37.02100775146485 c3.329,0.22300000000000003 5.215,-2.996 6.104,-5.104 c1.332,-2.774 -2.774,-6.88 -4.771,-4.106 C273.48598840332033,29.142007751464845 270.37798840332033,36.79900775146484 273.0409884033203,37.02100775146485 z" id="svg_6"/>
			<path fill="#1D1D1B" d="M299.1799884033203,46.024007751464836 c-1.4460000000000002,12.231 -12.889,32.093 -18.807,32.093 c-4.735,0 7.365,-22.36 8.812,-31.436 c0,-2.499 -4.34,-6.313 -5.655,-4.34 c-3.487,5.201 -7.17,13.258 -9.295,20.708 c-0.11500000000000002,0.04200000000000001 -0.22300000000000003,0.10200000000000001 -0.30600000000000005,0.20500000000000002 c-2.367,3.025 -8.548,11.705 -14.205,11.705 c-4.735,0 10.128,-19.202 12.627,-28.278 c0.3950000000000001,-2.499 -3.551,-6.313 -5.13,-4.34 c-5.044,6.375 -10.945,16.145 -13.631,23.886 c-2.971,3.771 -7.8580000000000005,9.39 -12.409,9.39 c-6.445,0 6.181,-22.228 11.837,-34.723 c8.55,2.236 9.076,-1.315 7.892,-3.946 c-0.131,2.236 -3.024,1.578 -5.9190000000000005,0.3950000000000001 c0.3950000000000001,-0.921 2.5,-5.2620000000000005 2.763,-5.787 c3.419,-5.788 -3.6830000000000003,-7.235 -3.814,-6.9719999999999995 c-1.71,2.5 -4.604,7.76 -6.314,10.785 c-3.6830000000000003,-1.8410000000000002 -10.39,-0.526 -8.286,4.341 c1.052,-2.6310000000000002 3.551,-1.842 6.445,-0.6580000000000001 c-3.757,7.329 -8.206,16.531 -10.687,24.247 c-2.392,3.062 -8.54,11.659 -14.169,11.659 c-4.735,0 10.258,-19.333 12.758000000000001,-28.409 c0.526,-3.2880000000000003 -5.393,-5.655 -6.445,-3.156 c-0.525,1.315 -2.63,4.735 -3.42,6.181 c0,-3.9450000000000003 -5.393,-6.97 -8.286,-5.26 c-8.023,5.129 -26.437,23.938 -18.019,33.934 c4.209,4.865 14.205,-6.183 18.019,-10.391 c-0.921,3.025 -1.9729999999999999,10.391 2.368,10.391 c5.815,0 12.158,-5.6530000000000005 15.897,-10.207 c-1.389,6.366 -0.6320000000000001,10.863 4.355,10.863 c5.033,0 10.457,-4.234 14.251,-8.327 c-0.8370000000000001,4.546 0.16400000000000003,7.67 4.293,7.67 c6.134,0 12.857,-6.291 16.489,-10.945 c-1.604,7.834 -0.8840000000000001,14.101 4.553,14.101 c12.232,0 29.33,-29.067 29.33,-38.011 C307.0719884033203,40.89400775146484 299.4429884033203,43.657007751464846 299.1799884033203,46.024007751464836 zM209.0919884033203,71.01400775146485 c-2.368,2.236 -4.867,4.208 -7.628,5.656000000000001 c-4.34,-1.184 18.413,-32.224 20.781,-24.727 c-0.526,1.709 -1.315,3.156 -1.9729999999999999,4.603 C217.6409884033203,60.492007751464854 217.5089884033203,62.859007751464844 209.0919884033203,71.01400775146485 z" id="svg_7"/>
			<path fill="#1D1D1B" d="M332.64698840332034,63.254007751464854 c-4.867,7.497 -14.6,14.6 -23.544,11.311 c-3.551,-1.184 -3.419,-3.419 -0.3950000000000001,-8.813 c0.6580000000000001,0.6580000000000001 2.105,0.79 2.5,0.79 c11.311,0 17.361,-12.627 17.361,-16.705 c0,-2.104 -3.814,-9.338000000000001 -7.497,-8.022 c-4.997,1.71 -21.964,18.677 -18.808,30.646 c5.13,17.625 29.593,-0.526 31.698,-8.154 C334.3569884033203,63.12200775146485 333.0409884033203,62.59600775146484 332.64698840332034,63.254007751464854 zM321.3349884033203,51.28500775146483 c3.814,0 -0.132,12.363 -11.706,12.889 C313.70698840332034,57.72900775146485 319.6259884033203,51.28500775146483 321.3349884033203,51.28500775146483 z" id="svg_8"/>
		</g>
		<g id="svg_9">
			<path fill="#1D1D1B" d="M213.60398840332033,172.54900775146484 c-1.4460000000000002,12.233 -14.994,30.251 -20.913,30.251 c-4.735,0 7.76,-19.203 9.207,-28.278 c0,-2.499 -4.34,-6.313 -5.655,-4.34 c-2.894,4.209 -5.787,9.864 -8.023,15.388 c-5.655,7.761 -12.89,17.23 -16.178,17.23 c-4.734,0 10.128,-19.203 12.627,-28.278 c0.3950000000000001,-2.499 -3.551,-6.313 -5.13,-4.34 c-3.357,4.243 -7.09,9.99 -10.006,15.643 c-2.311,1.041 -4.819,1.597 -6.959,1.718 c2.104,-7.891 1.8410000000000002,-15.52 -3.419,-17.493 c-1.315,-0.526 -2.499,-0.526 -4.078,0.921 c-2.761,-1.448 -4.472,-3.551 -6.839,-1.185 c-5.711,5.711 -13.383000000000001,18.224 -13.255,26.994 c-3.229,3.216 -7.726,7.017 -10.943,7.017 c-7.76,0 14.072,-37.15 15.387,-39.627 c1.447,-2.5940000000000003 0.132,-5.189 -3.814,-6.369 c-4.04,6.449 -14.276,23.441 -18.1,35.593 c-2.441,2.786 -9.566,10.403 -14.123,10.403 c-7.76,0 14.072,-37.15 15.388,-39.627 c1.447,-2.5940000000000003 0.132,-5.189 -3.814,-6.369 c-3.7680000000000002,6.013 -12.921,21.193 -17.243,33.068 c-0.14400000000000002,0.037000000000000005 -0.28,0.101 -0.37900000000000006,0.22500000000000003 c-2.368,3.025 -8.549,11.706 -14.205,11.706 c-4.735,0 10.259,-19.333 12.758000000000001,-28.409 c0.525,-3.2880000000000003 -5.393,-5.656000000000001 -6.445,-3.156 c-0.525,1.314 -2.63,4.734 -3.419,6.181 c0,-3.946 -5.393,-6.97 -8.286,-5.26 c-8.023,5.129 -26.437,23.938 -18.02,33.933 c4.209,4.867 14.206,-6.181 18.02,-10.39 c-0.921,3.025 -1.9729999999999999,10.39 2.368,10.39 c5.927,0 12.397,-5.871 16.105,-10.465 c-1.6780000000000002,6.487 -1.058,11.123 4.146,11.123 c5.923,0 12.387,-5.255 16.096,-9.374 c-1.118,5.555 -0.171,9.374 4.552,9.374 c5.033,0 10.456,-3.7960000000000003 14.25,-7.465 c0.29600000000000004,1.3210000000000002 0.8310000000000001,2.5140000000000002 1.6640000000000001,3.519 c2.499,2.895 7.102,4.341 10.653,4.341 c5.261,0 11.179,-8.418 14.205,-17.362 c1.826,0 4.019,-0.24100000000000002 6.222,-0.8380000000000001 c-4.205,9.096 -5.625,17.147 1.011,17.147 c4.208,0 11.706,-8.022 17.23,-14.862 c-2.368,8.155 -2.236,14.862 3.814,14.862 c12.232,0 29.725,-25.91 29.725,-34.853 C219.7849884033203,168.73500775146482 213.8669884033203,170.18200775146482 213.60398840332033,172.54900775146484 zM71.29998840332031,198.85400775146485 c-2.367,2.236 -4.866,4.209 -7.628,5.656000000000001 c-4.34,-1.184 18.414,-32.224 20.781,-24.727 c-0.526,1.71 -1.315,3.157 -1.9729999999999999,4.604 C79.8489884033203,188.33300775146483 79.71798840332032,190.70000775146485 71.29998840332031,198.85400775146485 zM148.49998840332032,203.19500775146486 c-10.259,0 0.921,-20.518 2.8930000000000002,-24.464 c-0.526,5.261 2.499,9.996 7.892,10.917 C158.23198840332032,193.46300775146483 151.26198840332032,203.19500775146486 148.49998840332032,203.19500775146486 zM160.4689884033203,187.41200775146484 c-5.9190000000000005,-0.263 -8.154,-10.785 -3.025,-14.073 C161.5209884033203,170.70900775146487 163.0989884033203,179.52100775146482 160.4689884033203,187.41200775146484 z" id="svg_10"/>
			<path fill="#1D1D1B" d="M285.0159884033203,191.09500775146483 c-2.368,3.025 -8.55,11.706 -14.206,11.706 c-3.551,0 11.417,-34.172 14.311,-40.09 c1.4460000000000002,-2.895 0.132,-5.788 -3.814,-7.104 c-3.551,4.998 -4.578,10.63 -9.97,22.205 c-1.9729999999999999,-5.13 -5.918,-7.102 -8.286,-5.655 c-5.462,3.492 -15.734,13.325 -19.083,22.4 c-5.273,6.006 -13.36,10.621 -20.899,7.85 c-3.551,-1.183 -3.419,-3.419 -0.3950000000000001,-8.812 c0.6580000000000001,0.6580000000000001 2.105,0.79 2.5,0.79 c11.311,0 17.362,-12.626 17.362,-16.704 c0,-2.104 -3.814,-9.339 -7.498,-8.023 c-4.998,1.71 -21.964,18.677 -18.808,30.646 c3.8680000000000003,13.29 18.723,6.239 26.702,-1.304 c-0.21400000000000002,2.604 0.36900000000000005,5.036 2.1,7.09 c3.157,3.815 15.915,-4.208 22.228,-15.125 c-1.4460000000000002,2.894 -5.393,15.125 0.525,15.125 c7.6290000000000004,0 16.178,-9.732 18.546,-13.941 C286.9889884033203,191.09500775146483 285.5419884033203,190.43700775146482 285.0159884033203,191.09500775146483 zM235.3019884033203,179.12600775146484 c3.814,0 -0.132,12.363 -11.706,12.89 C227.67398840332032,185.57000775146486 233.5929884033203,179.12600775146484 235.3019884033203,179.12600775146484 zM248.9779884033203,204.51000775146485 c-3.815,-1.052 14.073,-25.647 21.569,-24.332 l-1.9729999999999999,4.341 C263.7089884033203,192.80500775146487 256.8699884033203,200.56500775146486 248.9779884033203,204.51000775146485 z" id="svg_11"/>
		</g>
		<g id="svg_12">
			<path fill="#1D1D1B" d="M77.5989884033203,83.84700775146484 l-0.6300000000000001,-0.43500000000000005 c-0.47200000000000003,-0.14500000000000002 -0.9450000000000001,-0.43500000000000005 -1.417,-0.43500000000000005 c-0.3940000000000001,0 -0.8670000000000001,-0.14600000000000002 -1.339,-0.14600000000000002 c-2.048,0.14600000000000002 -4.096,0.43500000000000005 -6.142,0.7260000000000001 c-0.15800000000000003,0 -0.3950000000000001,0.14400000000000002 -0.47300000000000003,0.14400000000000002 c-1.26,0.29000000000000004 -2.599,0.29000000000000004 -3.7800000000000002,0.5800000000000001 c-0.7090000000000001,0.29100000000000004 -1.417,0.29100000000000004 -2.048,0.7250000000000001 c-1.6540000000000001,0.5800000000000001 -3.229,1.014 -4.646,1.448 c-0.7090000000000001,0.14600000000000002 -1.338,0.43500000000000005 -1.969,0.8700000000000001 c-0.3940000000000001,0.28900000000000003 -0.7090000000000001,1.159 -0.8660000000000001,2.028 c0.15700000000000003,1.5950000000000002 0,3.479 0.15700000000000003,5.072 c0,0.5790000000000001 0.31500000000000006,0.8700000000000001 0.551,1.015 c0.7090000000000001,0.29000000000000004 1.26,-0.29000000000000004 1.26,-1.45 c0.07900000000000001,-1.158 0.15700000000000003,-2.462 0.47200000000000003,-3.477 c0.8670000000000001,-0.7240000000000001 1.891,-0.8700000000000001 2.915,-0.8700000000000001 c0.788,0 1.7320000000000002,-0.29000000000000004 2.677,0.14600000000000002 c0.07900000000000001,0.43400000000000005 0.07900000000000001,1.014 0.07900000000000001,1.594 c-0.07900000000000001,2.8970000000000002 -0.31500000000000006,6.086 -0.23600000000000002,8.837 c0,3.043 -0.31500000000000006,5.942 0,8.839 c0,0.29100000000000004 0,0.7260000000000001 -0.07900000000000001,1.159 c0,1.594 -0.07900000000000001,3.333 -0.07900000000000001,5.072 v2.8970000000000002 c-0.07800000000000001,3.044 -0.15700000000000003,6.231 -0.23600000000000002,9.564 c-0.07800000000000001,2.753 -0.3940000000000001,5.361 -0.3940000000000001,8.114 c-0.15800000000000003,2.319 -0.23600000000000002,4.638 -0.15800000000000003,6.811 c0,2.608 0.15800000000000003,5.218 0.15800000000000003,7.68 c0.07900000000000001,1.739 0.07900000000000001,3.334 0.07900000000000001,5.071 c-0.07900000000000001,2.029 -0.07900000000000001,4.203 0,6.231 c0.23700000000000002,1.015 0.15800000000000003,2.029 0.15800000000000003,3.043 c0,0.7250000000000001 -0.31500000000000006,1.159 -0.7090000000000001,1.3050000000000002 c-0.31400000000000006,0 -0.6290000000000001,0.43400000000000005 -0.8660000000000001,0.5800000000000001 c-0.23600000000000002,0.14300000000000002 -0.7080000000000001,0.14300000000000002 -1.023,0.28900000000000003 c-0.47200000000000003,0.29000000000000004 -0.6300000000000001,1.014 -0.39300000000000007,1.738 c0.39300000000000007,1.015 0.9440000000000001,1.594 1.496,1.739 c1.103,0.29100000000000004 2.127,0.5800000000000001 3.071,0.43500000000000005 c1.024,0 2.127,-0.14400000000000002 3.15,0.29100000000000004 c1.024,0.28900000000000003 1.811,-0.29100000000000004 2.284,-1.5950000000000002 c0.23600000000000002,-0.43500000000000005 0.31500000000000006,-0.8700000000000001 0.31500000000000006,-1.3050000000000002 c-0.07900000000000001,-0.5800000000000001 -0.3940000000000001,-0.8690000000000001 -0.7090000000000001,-1.014 c-0.47200000000000003,0 -0.788,0.14500000000000002 -1.182,0.14500000000000002 c-0.47200000000000003,0 -0.6290000000000001,-0.43400000000000005 -0.7080000000000001,-1.014 c0.23600000000000002,-2.898 0.3950000000000001,-5.651 0.15700000000000003,-8.549 c0,-0.29000000000000004 0.07900000000000001,-0.5800000000000001 0.07900000000000001,-1.014 c0.07900000000000001,-1.5950000000000002 0.07900000000000001,-3.188 0.07900000000000001,-4.6370000000000005 c0.07900000000000001,-1.594 -0.07900000000000001,-3.042 0.07900000000000001,-4.348 c0.15700000000000003,-2.896 0.15700000000000003,-5.506 0.39300000000000007,-8.258 l0.31500000000000006,-7.97 l0.23600000000000002,-7.391 c0.07900000000000001,-0.43400000000000005 0.07900000000000001,-1.014 0.07900000000000001,-1.593 c0,-1.3050000000000002 0,-2.609 0.15700000000000003,-3.769 c0.07900000000000001,-2.8970000000000002 0.23600000000000002,-5.652 0.3940000000000001,-8.549 c0.23600000000000002,-5.071 0.3950000000000001,-10.143 0.31500000000000006,-15.359 c-0.15800000000000003,-1.739 -0.07900000000000001,-3.912 -0.551,-5.507 v-0.7240000000000001 c0.15700000000000003,-0.14600000000000002 0.23500000000000001,-0.43500000000000005 0.31400000000000006,-0.43500000000000005 c1.811,-0.43300000000000005 3.701,-0.7250000000000001 5.513,-0.8690000000000001 c0.31400000000000006,-0.14400000000000002 0.551,0 0.787,0 c0.47300000000000003,2.608 0.552,2.754 1.733,4.348 c0.07900000000000001,0.28900000000000003 0.15800000000000003,0.43500000000000005 0.23600000000000002,0.43500000000000005 c0.47300000000000003,0.5800000000000001 0.9460000000000001,0.5800000000000001 1.2610000000000001,-0.14600000000000002 c0.23600000000000002,-0.7230000000000001 0.47200000000000003,-1.448 0.551,-2.028 c0,-1.159 0.07900000000000001,-2.608 0.23600000000000002,-4.057 C78.70198840332031,84.86100775146485 78.30798840332031,83.99200775146485 77.5989884033203,83.84700775146484 z" id="svg_13"/>
			<path fill="#1D1D1B" d="M107.05398840332032,85.39700775146486 c-1.023,-0.37000000000000005 -2.047,-0.37000000000000005 -2.9130000000000003,-0.37000000000000005 c-0.8670000000000001,0 -1.6540000000000001,0.37000000000000005 -2.363,0.49400000000000005 c-0.23600000000000002,0.12400000000000001 -0.31500000000000006,0.8650000000000001 -0.15800000000000003,0.989 c0.6310000000000001,0.988 1.26,1.73 1.969,2.471 v2.963 c-0.07900000000000001,2.5940000000000003 -0.07900000000000001,5.4350000000000005 -0.23600000000000002,8.029 c-0.07900000000000001,2.5940000000000003 -0.552,8.893 -0.7090000000000001,11.61 c-0.15700000000000003,1.482 -0.47200000000000003,1.976 -1.6540000000000001,2.224 h-0.3940000000000001 c-3.543,0.12400000000000001 -4.016,0.24700000000000003 -7.481,0.7410000000000001 h-0.6300000000000001 c-1.102,0 -2.283,0.12300000000000001 -3.307,0.12300000000000001 c-0.3940000000000001,0 -0.7080000000000001,-0.24600000000000002 -0.8660000000000001,-0.12300000000000001 c-0.15700000000000003,-0.37100000000000005 -0.15700000000000003,-0.49400000000000005 -0.15700000000000003,-0.6180000000000001 c0.15700000000000003,-2.965 0.3940000000000001,-9.51 0.31500000000000006,-12.229 c-0.07900000000000001,-1.358 0,-2.347 0,-3.705 c0,-2.471 0.47200000000000003,-5.311 0.31500000000000006,-8.029 c0.47200000000000003,0 1.339,-0.36900000000000005 1.811,-0.49400000000000005 c0.3950000000000001,-0.12400000000000001 1.733,-1.233 1.812,-1.976 c0.15700000000000003,-0.37100000000000005 -0.15800000000000003,-0.8650000000000001 -0.8660000000000001,-1.235 c-0.788,-0.37100000000000005 -1.653,-0.8660000000000001 -2.52,-0.49500000000000005 c-1.181,0.7420000000000001 -2.441,0.7420000000000001 -3.702,0.49500000000000005 c-0.3940000000000001,0 -0.8660000000000001,-0.12400000000000001 -1.417,-0.12400000000000001 c-0.3940000000000001,0 -0.7090000000000001,0.12400000000000001 -1.103,0.24700000000000003 c-0.6300000000000001,0.24700000000000003 -1.259,0.8640000000000001 -1.259,1.235 c0.07800000000000001,0.7420000000000001 0.47300000000000003,0.989 0.8660000000000001,1.359 c0.788,0.6180000000000001 1.103,1.481 1.024,2.717 c0,0.49400000000000005 0.07900000000000001,0.8640000000000001 0,1.359 c-0.15800000000000003,3.952 -0.23600000000000002,7.904 -0.47300000000000003,11.979 c-0.551,10.128 -0.8650000000000001,16.428 -0.787,19.146 c0.15800000000000003,5.806 -0.39300000000000007,11.487 -0.23600000000000002,17.291 c0.07900000000000001,2.966 0.15800000000000003,6.176 0.07900000000000001,9.389 c0,2.099 0.07900000000000001,4.569 0.7080000000000001,6.6690000000000005 c0.07900000000000001,0.37000000000000005 0,0.7410000000000001 0,1.235 c-0.551,0.37100000000000005 -1.18,0.49400000000000005 -1.653,0.7410000000000001 c-0.47200000000000003,0.24800000000000003 -0.8660000000000001,0.7430000000000001 -0.788,1.236 c0.23600000000000002,0.7410000000000001 0.7080000000000001,0.7410000000000001 1.024,0.7410000000000001 c2.048,0.12400000000000001 4.017,0.49300000000000005 6.143,0.6160000000000001 c0.9450000000000001,0 1.497,-0.986 1.969,-2.099 c-0.6300000000000001,-1.359 -1.811,-0.8650000000000001 -2.757,-2.1 c0.07900000000000001,-0.6180000000000001 0.07900000000000001,-1.235 0.31500000000000006,-1.975 c0.31500000000000006,-1.8530000000000002 0.47200000000000003,-4.077 0.31500000000000006,-6.176 l0.07900000000000001,-9.141 c0.07800000000000001,-2.346 0.07800000000000001,-4.57 0.07800000000000001,-7.04 l0.23700000000000002,-7.041 c0,-2.222 0.23600000000000002,-4.323 0.31500000000000006,-6.422 c0.15800000000000003,-1.7280000000000002 -0.15700000000000003,0.12400000000000001 0,-1.358 c0,-0.24700000000000003 0.07900000000000001,-0.37000000000000005 0.15800000000000003,-0.49500000000000005 c0,-0.12300000000000001 0.15700000000000003,-0.12300000000000001 0.23600000000000002,-0.12300000000000001 c2.126,-0.37100000000000005 4.174,-0.49400000000000005 6.3790000000000004,-0.7410000000000001 h5.356 c0.47200000000000003,0 0.8660000000000001,0.12400000000000001 1.417,0.12400000000000001 c0.31500000000000006,0.12400000000000001 0.47300000000000003,0.49400000000000005 0.551,0.989 c0,0.24700000000000003 0,0.7410000000000001 0.07900000000000001,1.111 c-0.23600000000000002,3.087 -0.07900000000000001,2.347 -0.15800000000000003,5.311 c-0.07900000000000001,1.482 -0.15800000000000003,2.718 -0.15800000000000003,4.076 l-0.23600000000000002,12.598 c0.07900000000000001,5.4350000000000005 -0.31500000000000006,10.375 0.47300000000000003,15.686 c0,0.12400000000000001 -0.07900000000000001,0.37200000000000005 -0.15700000000000003,0.6180000000000001 c-0.15800000000000003,0.12400000000000001 -0.31500000000000006,0.12400000000000001 -0.47300000000000003,0.12400000000000001 c-0.31500000000000006,0.24700000000000003 -0.7090000000000001,0.49500000000000005 -0.6300000000000001,1.112 c0.07900000000000001,0.49400000000000005 0.3940000000000001,0.7410000000000001 0.6300000000000001,0.8650000000000001 c0.07900000000000001,0.12400000000000001 0.23700000000000002,0.12400000000000001 0.31500000000000006,0.24800000000000003 c1.7320000000000002,0.6170000000000001 3.465,0.37000000000000005 5.198,0.24700000000000003 c0.6300000000000001,-0.12400000000000001 1.26,-0.49500000000000005 1.969,-0.7420000000000001 c0.23600000000000002,-0.12400000000000001 0.31400000000000006,-0.49400000000000005 0.47300000000000003,-0.6180000000000001 c0.07900000000000001,-0.37100000000000005 0.07900000000000001,-1.112 -0.07900000000000001,-1.112 c-0.3940000000000001,0 -0.6300000000000001,-0.24700000000000003 -0.9450000000000001,-0.37000000000000005 c-0.788,-0.12400000000000001 -1.497,-0.12400000000000001 -2.283,-0.12400000000000001 c0,-0.988 0.15700000000000003,-1.729 0.07800000000000001,-2.5940000000000003 c0,-6.175 0.47300000000000003,-11.981 0.31500000000000006,-18.158 c0,-0.988 0.07900000000000001,-2.098 0.15800000000000003,-3.458 c0.15700000000000003,-3.706 0.3940000000000001,-7.411 0.6300000000000001,-11.24 c0.07900000000000001,-1.6070000000000002 -0.23700000000000002,0.6170000000000001 -0.07900000000000001,-0.988 c0.31500000000000006,-3.458 0.7080000000000001,-6.792 0.7080000000000001,-10.128 c0,-1.112 0.31500000000000006,-6.051 0.3940000000000001,-7.164 c0.15700000000000003,-3.8280000000000003 0.47200000000000003,-7.905 0.31400000000000006,-11.857 c0,-0.8640000000000001 -0.07900000000000001,-1.9769999999999999 0.31500000000000006,-2.718 l1.7320000000000002,-0.986 c0.23700000000000002,-0.12400000000000001 0.31500000000000006,-0.6190000000000001 0.6300000000000001,-0.989 c-0.3940000000000001,-0.49400000000000005 -0.6300000000000001,-0.988 -0.9440000000000001,-1.235 C109.2589884033203,85.76800775146484 108.15598840332032,85.39700775146486 107.05398840332032,85.39700775146486 z" id="svg_14"/>
			<path fill="#1D1D1B" d="M139.81698840332032,102.36200775146483 c-0.31500000000000006,-2.271 -0.8670000000000001,-4.541 -1.497,-6.471 c-0.9440000000000001,-3.065 -2.205,-5.449 -3.544,-7.606 c-4.096,-6.811 -11.577,-3.406 -14.727,2.157 c-0.8670000000000001,1.589 -1.5750000000000002,3.292 -2.206,4.882 c-1.26,2.611 -2.205,5.335 -2.835,8.627 c-0.47300000000000003,1.702 -0.788,3.633 -1.102,5.334 l-0.23600000000000002,1.931 c-0.6300000000000001,6.128 -0.9450000000000001,12.26 -0.6300000000000001,18.275 c0.15800000000000003,3.18 0.6300000000000001,6.359 1.5750000000000002,9.196 c0.551,1.361 0.9450000000000001,2.611 1.4180000000000001,3.632 c1.6540000000000001,3.632 3.308,6.924 5.5920000000000005,9.422 c1.181,1.248 2.441,2.27 3.701,2.952 c0.31500000000000006,0.11400000000000002 0.788,0.22600000000000003 1.102,0.11400000000000002 c0.8670000000000001,-0.11400000000000002 1.6550000000000002,-0.3400000000000001 2.363,-0.909 c3.859,-3.064 6.773,-9.762 7.01,-10.897 c1.653,-7.605 1.969,-8.968 2.284,-10.557 c0.3940000000000001,-3.519 0.787,-7.265 1.26,-10.67 c0.47300000000000003,-4.315 0.3940000000000001,-8.741 0.551,-12.715 c0.15800000000000003,-1.588 0,-3.179 0,-4.881 C139.89498840332033,103.83700775146485 139.89498840332033,102.92900775146484 139.81698840332032,102.36200775146483 zM134.77598840332033,113.71500775146484 v1.475 c0,3.973 -0.15800000000000003,8.174 -0.6290000000000001,11.919 c-0.23600000000000002,1.931 -0.6300000000000001,3.746 -0.8670000000000001,5.45 c-0.3940000000000001,2.6100000000000003 -0.9440000000000001,5.221 -1.497,7.946 c-0.3940000000000001,1.703 -1.024,3.52 -1.496,5.335 c-0.47300000000000003,1.475 -1.182,2.838 -2.048,3.633 c-0.788,1.021 -1.812,1.589 -2.835,1.589 c-0.6300000000000001,0 -1.102,-0.5680000000000001 -1.417,-1.475 c-0.788,-2.045 -1.6540000000000001,-3.748 -2.126,-6.131 c-0.31500000000000006,-1.476 -0.47300000000000003,-2.838 -0.6310000000000001,-4.314 c-0.3940000000000001,-2.497 -0.551,-5.108 -0.7080000000000001,-7.718 c-0.07900000000000001,-0.5680000000000001 -0.07900000000000001,-1.476 0,-2.156 c0.15700000000000003,-2.3850000000000002 0.23500000000000001,-4.656000000000001 0.15700000000000003,-7.04 c-0.07900000000000001,-1.248 0,-2.609 0.07900000000000001,-3.745 c0,-0.795 0.07900000000000001,-1.703 0.07900000000000001,-2.3850000000000002 c0,-3.633 0.47300000000000003,-7.039 0.9450000000000001,-10.557 c0.31500000000000006,-1.7040000000000002 0.551,-3.8600000000000003 0.787,-5.676 c0.23700000000000002,-1.929 0.6310000000000001,-3.8600000000000003 0.9460000000000001,-5.789 c0.23600000000000002,-1.476 1.023,-2.271 1.497,-3.52 l0.31500000000000006,-0.3400000000000001 c3.543,-5.45 7.639,0.794 8.9,11.579 c0.31400000000000006,2.384 0.31400000000000006,4.994 0.55,7.491 C134.8549884033203,110.64900775146484 134.77598840332033,112.12400775146483 134.77598840332033,113.71500775146484 z" id="svg_15"/>
			<path fill="#1D1D1B" d="M171.5559884033203,97.91600775146483 c-1.26,-0.101 -6.93,1.107 -7.4030000000000005,1.3090000000000002 c-0.15700000000000003,0 -0.3940000000000001,0.402 -0.47300000000000003,0.503 c-0.07900000000000001,0.202 0.07900000000000001,0.6030000000000001 0.23600000000000002,0.7040000000000001 c0.3940000000000001,0.403 0.787,0.6040000000000001 1.181,1.006 c0.6300000000000001,0.403 1.024,0 1.103,0.806 c-0.15800000000000003,4.63 0,11.467 -0.15800000000000003,14.688 c0,0.7040000000000001 -0.07900000000000001,1.3090000000000002 0,1.913 c0.15800000000000003,5.233 0,10.468 -0.788,15.702 c-0.552,4.127 -1.8900000000000001,13.488 -3.859,17.213 c-3.071,5.837 -8.348,8.657 -9.923,2.113 c-0.788,-3.02 -1.181,-6.241 -1.26,-9.563 c0,-2.314 -0.07900000000000001,-4.73 -0.23600000000000002,-7.046 c-0.15800000000000003,-2.314 -0.15800000000000003,-4.731 0,-7.045 c0.07900000000000001,-3.121 0.07900000000000001,-6.04 -0.07900000000000001,-9.159 c0,-2.919 -0.15700000000000003,-24.634 -0.3940000000000001,-27.453 c-0.07900000000000001,-2.113 0.3940000000000001,-3.623 1.181,-5.334 l0.3940000000000001,-0.805 c0.7090000000000001,-1.3090000000000002 0.551,-2.316 -0.787,-2.819 c-0.15800000000000003,0 -0.31500000000000006,0 -0.47300000000000003,-0.1 c-0.6300000000000001,-0.10200000000000001 -4.804,-0.10200000000000001 -5.906,0.201 c-0.23700000000000002,0.101 -0.47300000000000003,0.30300000000000005 -0.6300000000000001,0.402 c-0.3950000000000001,0.10200000000000001 -0.551,0.806 -0.31500000000000006,1.209 c0.23600000000000002,0.805 0.552,1.61 1.339,1.71 c1.023,0.403 1.181,1.4100000000000001 1.26,2.7190000000000003 c-0.07900000000000001,1.61 -0.15800000000000003,3.22 -0.07900000000000001,4.831 l-0.23600000000000002,30.471 c-0.07900000000000001,1.612 -0.07900000000000001,3.121 -0.07900000000000001,4.631 c-0.15700000000000003,3.12 -0.15700000000000003,6.14 -0.07900000000000001,9.059 c0.15800000000000003,5.234 1.104,10.268 2.915,14.796 c0.8660000000000001,2.517 1.969,4.731 3.465,6.543 c7.402,8.958 15.75,-7.348 16.854,-11.575 c1.102,-3.523 2.205,-7.046 2.599,-10.771 c0.23600000000000002,-1.409 0.551,-3.019 0.7090000000000001,-4.429 c0.15700000000000003,-0.905 0.15700000000000003,-1.812 0.23600000000000002,-2.717 c0.15800000000000003,-2.416 0.9440000000000001,-25.458 0.788,-27.873 c-0.07900000000000001,-1.209 0.23600000000000002,-2.215 0.787,-2.316 c0.47300000000000003,-0.09900000000000003 0.552,-0.804 0.8670000000000001,-1.307 C175.25698840332032,98.21800775146485 173.52498840332032,98.11800775146483 171.5559884033203,97.91600775146483 z" id="svg_16"/>
			<path fill="#1D1D1B" d="M205.6589884033203,126.74900775146483 c-0.552,-0.23800000000000002 -6.852,-0.9520000000000001 -8.9,-0.8330000000000001 c-0.31500000000000006,0 -0.7080000000000001,0.23800000000000002 -0.9450000000000001,0.35700000000000004 c-0.31500000000000006,0.35700000000000004 -0.7090000000000001,0.7130000000000001 -0.788,1.427 c0,0.47700000000000004 0.47300000000000003,1.071 0.9450000000000001,1.546 c0.47200000000000003,0.23800000000000002 0.8660000000000001,0.35700000000000004 1.417,0.35700000000000004 c0.6310000000000001,0.12000000000000001 1.339,0.12000000000000001 1.969,0.12000000000000001 c0.31500000000000006,0 0.6300000000000001,0.23700000000000002 0.9450000000000001,0.23700000000000002 c0.23600000000000002,1.308 0.07900000000000001,2.6180000000000003 0,4.163 c-0.31500000000000006,2.975 -2.7560000000000002,17.492 -5.5920000000000005,21.417 c-0.9450000000000001,1.3090000000000002 -2.835,2.379 -4.489,1.5470000000000002 c-0.23700000000000002,-0.35700000000000004 -0.6300000000000001,-0.35700000000000004 -0.8670000000000001,-0.47700000000000004 c-1.417,-0.7120000000000001 -2.441,-2.142 -3.15,-4.044 c-0.552,-1.429 -0.9460000000000001,-2.975 -1.339,-4.76 c-1.26,-5.949 -1.7320000000000002,-11.899000000000001 -1.576,-18.204 c0.07900000000000001,-2.498 0.23700000000000002,-4.877 0.23700000000000002,-7.376 c0,-3.213 0.23600000000000002,-6.782 0.6300000000000001,-10.114 c0.31500000000000006,-3.5700000000000003 2.048,-18.205 10.002,-17.729 c0.23600000000000002,0 0.3940000000000001,-0.11900000000000002 0.7080000000000001,-0.11900000000000002 c1.103,0.11900000000000002 1.8900000000000001,0.5950000000000001 2.7560000000000002,1.6660000000000001 c0.552,0.7140000000000001 0.8670000000000001,1.7850000000000001 0.7090000000000001,2.974 c0,0.23800000000000002 -0.07900000000000001,0.8330000000000001 0,1.07 c0.15700000000000003,2.143 1.496,3.452 2.7560000000000002,2.856 c0.23600000000000002,-0.35800000000000004 0.551,-0.7140000000000001 0.6300000000000001,-0.9510000000000001 c0.23600000000000002,-0.8330000000000001 0.47300000000000003,-1.5470000000000002 0.47300000000000003,-2.142 c0.07900000000000001,-1.905 0.15700000000000003,-3.808 0.31500000000000006,-5.712 c0,-0.35600000000000004 -0.15800000000000003,-1.07 -0.31500000000000006,-1.427 c-0.552,-0.8330000000000001 -1.26,-1.6660000000000001 -1.969,-1.6660000000000001 c-0.8670000000000001,0 -1.103,1.19 -1.4180000000000001,2.023 c0,0.11900000000000002 -0.07900000000000001,0.11900000000000002 -0.31500000000000006,0.47600000000000003 l-1.497,-1.5470000000000002 c-0.7080000000000001,-0.47600000000000003 -1.496,-1.07 -2.441,-1.19 c-14.333,-2.379 -16.854,20.583 -17.406,25.582 c-0.39300000000000007,4.044 -0.787,8.209 -0.9440000000000001,12.373 c-0.07900000000000001,1.7850000000000001 -0.07900000000000001,3.45 -0.07900000000000001,5.235 c0.07900000000000001,4.521 0.551,8.924 1.5750000000000002,13.088 c0.8670000000000001,3.451 1.653,6.782 3.229,9.637 c1.5750000000000002,2.737 3.308,4.998 5.277,6.901 c3.702,3.213 9.608,-1.189 10.396,-3.331 c0.39300000000000007,-0.8330000000000001 0.6290000000000001,-1.428 1.102,-2.262 c1.023,-2.142 1.969,-4.521 2.599,-7.02 c0.31500000000000006,-1.427 1.6540000000000001,-8.566 1.8900000000000001,-10.708 c0.15700000000000003,-1.07 0.3940000000000001,-5.949 0.6300000000000001,-7.258 c0.31500000000000006,-1.189 0.23600000000000002,-2.379 0.31500000000000006,-3.451 c-0.3940000000000001,-0.35600000000000004 1.339,0.8330000000000001 3.071,0 c0.07900000000000001,-0.23800000000000002 0.15700000000000003,-0.35600000000000004 0.15700000000000003,-0.7130000000000001 C206.60298840332032,127.70000775146485 206.52498840332032,127.10600775146483 205.6589884033203,126.74900775146483 z" id="svg_17"/>
			<path fill="#1D1D1B" d="M234.7979884033203,87.01300775146484 c-1.023,-0.37000000000000005 -2.047,-0.37000000000000005 -2.914,-0.37000000000000005 s-1.653,0.37000000000000005 -2.362,0.49200000000000005 c-0.23600000000000002,0.12400000000000001 -0.31500000000000006,0.8610000000000001 -0.15800000000000003,0.984 c0.6300000000000001,0.983 1.26,1.722 1.969,2.459 v2.95 c-0.07900000000000001,2.582 -0.07900000000000001,5.41 -0.23600000000000002,7.99 c-0.07900000000000001,2.582 -0.551,8.852 -0.7090000000000001,11.555 c-0.15700000000000003,1.476 -0.47300000000000003,1.968 -1.6540000000000001,2.214 h-0.3940000000000001 c-3.544,0.12300000000000001 -4.016,0.24600000000000002 -7.482,0.7380000000000001 h-0.6300000000000001 c-1.103,0 -2.284,0.12300000000000001 -3.308,0.12300000000000001 c-0.3940000000000001,0 -0.7080000000000001,-0.24600000000000002 -0.8670000000000001,-0.12300000000000001 c-0.15700000000000003,-0.36900000000000005 -0.15700000000000003,-0.49200000000000005 -0.15700000000000003,-0.6150000000000001 c0.15700000000000003,-2.95 0.3940000000000001,-9.465 0.31500000000000006,-12.17 c-0.07900000000000001,-1.352 0,-2.335 0,-3.688 c0,-2.458 0.47200000000000003,-5.285 0.31500000000000006,-7.989 c0.47200000000000003,0 1.338,-0.36900000000000005 1.811,-0.49200000000000005 c0.3940000000000001,-0.12400000000000001 1.733,-1.229 1.812,-1.968 c0.15800000000000003,-0.36800000000000005 -0.15800000000000003,-0.8600000000000001 -0.8660000000000001,-1.229 c-0.787,-0.36900000000000005 -1.6540000000000001,-0.8600000000000001 -2.52,-0.49200000000000005 c-1.181,0.7380000000000001 -2.442,0.7380000000000001 -3.702,0.49200000000000005 c-0.3940000000000001,0 -0.8660000000000001,-0.12400000000000001 -1.4180000000000001,-0.12400000000000001 c-0.3940000000000001,0 -0.7080000000000001,0.12400000000000001 -1.102,0.24700000000000003 c-0.6300000000000001,0.24500000000000002 -1.26,0.8610000000000001 -1.26,1.229 c0.07900000000000001,0.7370000000000001 0.47300000000000003,0.984 0.8660000000000001,1.353 c0.788,0.6150000000000001 1.103,1.475 1.024,2.704 c0,0.49200000000000005 0.07900000000000001,0.8600000000000001 0,1.352 c-0.15800000000000003,3.935 -0.23600000000000002,7.868 -0.47300000000000003,11.925 c-0.551,10.081 -0.8660000000000001,16.35 -0.788,19.055 c0.15800000000000003,5.777 -0.39300000000000007,11.433 -0.23600000000000002,17.209 c0.07900000000000001,2.951 0.15800000000000003,6.147 0.07900000000000001,9.344 c0,2.089 0.07900000000000001,4.549 0.7080000000000001,6.638 c0.07900000000000001,0.36900000000000005 0,0.7380000000000001 0,1.229 c-0.551,0.36900000000000005 -1.181,0.49200000000000005 -1.653,0.7380000000000001 c-0.47300000000000003,0.24600000000000002 -0.8670000000000001,0.7370000000000001 -0.788,1.229 c0.23600000000000002,0.7380000000000001 0.7090000000000001,0.7380000000000001 1.024,0.7380000000000001 c2.048,0.12400000000000001 4.017,0.49200000000000005 6.143,0.6140000000000001 c0.9450000000000001,0 1.497,-0.982 1.969,-2.089 c-0.6300000000000001,-1.353 -1.811,-0.8600000000000001 -2.7560000000000002,-2.09 c0.07900000000000001,-0.6150000000000001 0.07900000000000001,-1.229 0.31500000000000006,-1.967 c0.31500000000000006,-1.844 0.47200000000000003,-4.056 0.31500000000000006,-6.146 l0.07900000000000001,-9.098 c0.07800000000000001,-2.335 0.07800000000000001,-4.547 0.07800000000000001,-7.006 l0.23700000000000002,-7.008 c0,-2.212 0.23600000000000002,-4.303 0.31400000000000006,-6.393 c0.15800000000000003,-1.7200000000000002 -0.15700000000000003,0.12300000000000001 0,-1.353 c0,-0.24500000000000002 0.07900000000000001,-0.36800000000000005 0.15800000000000003,-0.49200000000000005 c0,-0.12100000000000001 0.15700000000000003,-0.12100000000000001 0.23600000000000002,-0.12100000000000001 c2.126,-0.37000000000000005 4.174,-0.49200000000000005 6.3790000000000004,-0.7390000000000001 h5.355 c0.47300000000000003,0 0.8660000000000001,0.12400000000000001 1.4180000000000001,0.12400000000000001 c0.31400000000000006,0.12300000000000001 0.47200000000000003,0.49200000000000005 0.551,0.983 c0,0.24500000000000002 0,0.7360000000000001 0.07900000000000001,1.106 c-0.23600000000000002,3.073 -0.07900000000000001,2.335 -0.15800000000000003,5.286 c-0.07900000000000001,1.476 -0.15800000000000003,2.705 -0.15800000000000003,4.057 l-0.23600000000000002,12.54 c0.07800000000000001,5.41 -0.31500000000000006,10.325 0.47200000000000003,15.611 c0,0.12300000000000001 -0.07900000000000001,0.37000000000000005 -0.15700000000000003,0.6150000000000001 c-0.15700000000000003,0.12300000000000001 -0.31500000000000006,0.12300000000000001 -0.47300000000000003,0.12300000000000001 c-0.31500000000000006,0.24600000000000002 -0.7080000000000001,0.49200000000000005 -0.6290000000000001,1.106 c0.07800000000000001,0.49200000000000005 0.39300000000000007,0.7370000000000001 0.6290000000000001,0.8600000000000001 c0.07900000000000001,0.12400000000000001 0.23600000000000002,0.12400000000000001 0.31500000000000006,0.24600000000000002 c1.7320000000000002,0.6150000000000001 3.465,0.37000000000000005 5.198,0.24600000000000002 c0.6300000000000001,-0.12300000000000001 1.26,-0.49200000000000005 1.969,-0.7370000000000001 c0.23600000000000002,-0.12300000000000001 0.31500000000000006,-0.49200000000000005 0.47300000000000003,-0.6150000000000001 c0.07900000000000001,-0.36900000000000005 0.07900000000000001,-1.106 -0.07900000000000001,-1.106 c-0.3940000000000001,0 -0.6300000000000001,-0.24700000000000003 -0.9450000000000001,-0.36800000000000005 c-0.788,-0.12400000000000001 -1.497,-0.12400000000000001 -2.284,-0.12400000000000001 c0,-0.983 0.15800000000000003,-1.7200000000000002 0.07900000000000001,-2.581 c0,-6.147 0.47300000000000003,-11.925 0.31500000000000006,-18.071 c0,-0.984 0.07900000000000001,-2.09 0.15800000000000003,-3.443 c0.15700000000000003,-3.688 0.39300000000000007,-7.375 0.6300000000000001,-11.186 c0.07900000000000001,-1.5990000000000002 -0.23700000000000002,0.6140000000000001 -0.07900000000000001,-0.984 c0.31500000000000006,-3.441 0.7080000000000001,-6.761 0.7080000000000001,-10.081 c0,-1.107 0.31500000000000006,-6.023 0.3950000000000001,-7.13 c0.15700000000000003,-3.811 0.47200000000000003,-7.867 0.31500000000000006,-11.801 c0,-0.8600000000000001 -0.07900000000000001,-1.9660000000000002 0.31500000000000006,-2.704 l1.7320000000000002,-0.983 c0.23600000000000002,-0.12300000000000001 0.31500000000000006,-0.6150000000000001 0.6300000000000001,-0.983 c-0.3940000000000001,-0.49200000000000005 -0.6300000000000001,-0.984 -0.9440000000000001,-1.23 C237.0039884033203,87.38100775146484 235.9009884033203,87.01300775146484 234.7979884033203,87.01300775146484 z" id="svg_18"/>
			<path fill="#1D1D1B" d="M266.61598840332033,92.13400775146485 c0.23600000000000002,-0.6650000000000001 0.47300000000000003,-1.332 0.551,-1.863 c0,-1.064 0.07900000000000001,-2.3970000000000002 0.23600000000000002,-3.729 c0,-0.931 -0.3940000000000001,-1.73 -1.103,-1.863 l-0.6300000000000001,-0.4 c-0.47300000000000003,-0.133 -0.9460000000000001,-0.3980000000000001 -1.4180000000000001,-0.3980000000000001 c-0.3940000000000001,0 -0.8660000000000001,-0.134 -1.339,-0.134 c-2.048,0.134 -4.096,0.3990000000000001 -6.143,0.6660000000000001 c-0.15800000000000003,0 -0.3940000000000001,0.132 -0.47300000000000003,0.132 c-1.26,0.267 -2.599,0.267 -3.7800000000000002,0.533 c-0.7090000000000001,0.266 -1.4180000000000001,0.266 -2.048,0.6670000000000001 c-1.6540000000000001,0.532 -3.229,0.931 -4.647,1.33 c-0.7090000000000001,0.133 -1.338,0.4 -1.969,0.799 c-0.3940000000000001,0.268 -0.7090000000000001,1.065 -0.8660000000000001,1.863 c0.15700000000000003,1.465 0,3.196 0.15700000000000003,4.6610000000000005 c0,0.532 0.31500000000000006,0.798 0.552,0.932 c0.7090000000000001,0.266 1.26,-0.267 1.26,-1.332 c0.07900000000000001,-1.064 0.15700000000000003,-2.263 0.47300000000000003,-3.195 c0.8660000000000001,-0.6650000000000001 1.891,-0.799 2.914,-0.799 c0.788,0 1.7320000000000002,-0.267 2.677,0.134 c0.07900000000000001,0.3980000000000001 0.07900000000000001,0.932 0.07900000000000001,1.464 c-0.07900000000000001,2.6630000000000003 -0.31500000000000006,5.591 -0.23600000000000002,8.121 c0,2.795 -0.31500000000000006,5.458 0,8.121 c0,0.266 0,0.6670000000000001 -0.07900000000000001,1.065 c0,1.464 -0.07900000000000001,3.062 -0.07900000000000001,4.659 v2.6630000000000003 c-0.07800000000000001,2.797 -0.15700000000000003,5.725 -0.23600000000000002,8.787 c-0.07900000000000001,2.5300000000000002 -0.3940000000000001,4.925 -0.3940000000000001,7.455 c-0.15800000000000003,2.1310000000000002 -0.23600000000000002,4.261 -0.15800000000000003,6.257 c0,2.3970000000000002 0.15800000000000003,4.7940000000000005 0.15800000000000003,7.056 c0.07900000000000001,1.5990000000000002 0.07900000000000001,3.064 0.07900000000000001,4.66 c-0.07900000000000001,1.864 -0.07900000000000001,3.861 0,5.725 c0.23700000000000002,0.933 0.15800000000000003,1.864 0.15800000000000003,2.795 c0,0.6670000000000001 -0.31500000000000006,1.066 -0.7090000000000001,1.199 c-0.31500000000000006,0 -0.6300000000000001,0.3980000000000001 -0.8670000000000001,0.532 c-0.23600000000000002,0.133 -0.7080000000000001,0.133 -1.023,0.267 c-0.47200000000000003,0.265 -0.6300000000000001,0.932 -0.39300000000000007,1.598 c0.39300000000000007,0.932 0.9440000000000001,1.463 1.496,1.597 c1.103,0.267 2.127,0.532 3.071,0.3990000000000001 c1.024,0 2.127,-0.132 3.15,0.267 c1.024,0.266 1.812,-0.267 2.284,-1.464 c0.23600000000000002,-0.3990000000000001 0.31500000000000006,-0.798 0.31500000000000006,-1.199 c-0.07900000000000001,-0.531 -0.3940000000000001,-0.798 -0.7090000000000001,-0.932 c-0.47200000000000003,0 -0.788,0.133 -1.182,0.133 c-0.47200000000000003,0 -0.6290000000000001,-0.3980000000000001 -0.7080000000000001,-0.932 c0.23600000000000002,-2.6630000000000003 0.3950000000000001,-5.192 0.15800000000000003,-7.853 c0,-0.268 0.07900000000000001,-0.533 0.07900000000000001,-0.933 c0.07900000000000001,-1.464 0.07900000000000001,-2.93 0.07900000000000001,-4.26 c0.07900000000000001,-1.465 -0.07900000000000001,-2.795 0.07900000000000001,-3.9939999999999998 c0.15700000000000003,-2.662 0.15700000000000003,-5.059 0.39300000000000007,-7.589 l0.31500000000000006,-7.322 l0.23600000000000002,-6.79 c0.07900000000000001,-0.3990000000000001 0.07900000000000001,-0.932 0.07900000000000001,-1.464 c0,-1.198 0,-2.396 0.15700000000000003,-3.462 c0.07900000000000001,-2.662 0.23700000000000002,-5.192 0.3950000000000001,-7.854 c0.23600000000000002,-4.659 0.3940000000000001,-9.319 0.31500000000000006,-14.111 c-0.15800000000000003,-1.5990000000000002 -0.07900000000000001,-3.596 -0.551,-5.061 v-0.6650000000000001 c0.15700000000000003,-0.133 0.23600000000000002,-0.3980000000000001 0.31500000000000006,-0.3980000000000001 c1.811,-0.3990000000000001 3.701,-0.6670000000000001 5.513,-0.8 c0.31500000000000006,-0.132 0.551,0 0.788,0 c0.47200000000000003,2.3970000000000002 0.551,2.5300000000000002 1.7320000000000002,3.995 c0.07900000000000001,0.266 0.15800000000000003,0.3990000000000001 0.23600000000000002,0.3990000000000001 C265.8279884033203,92.79900775146484 266.30098840332033,92.79900775146484 266.61598840332033,92.13400775146485 z" id="svg_19"/>
			<path fill="#1D1D1B" d="M288.83698840332033,123.95800775146483 c-0.787,-3.34 -2.048,-6.159 -4.252,-8.455 c-1.26,-1.2530000000000001 -2.521,-2.507 -4.174,-3.237 c-0.8670000000000001,-0.31200000000000006 -1.733,-0.9390000000000001 -2.6,-1.669 c-0.551,-1.1480000000000001 -1.26,-2.191 -2.047,-3.34 c-0.07900000000000001,-0.31300000000000006 -0.31500000000000006,-0.6260000000000001 -0.31500000000000006,-0.8350000000000001 c-0.23600000000000002,-0.9390000000000001 -0.788,-2.192 -0.9450000000000001,-3.236 c-0.47300000000000003,-2.087 -0.31500000000000006,-4.28 0.47300000000000003,-6.5760000000000005 c0.47200000000000003,-1.984 3.701,-5.95 7.087,-5.324 c0.3950000000000001,0.10400000000000001 0.8670000000000001,0.521 1.103,0.6250000000000001 l1.6540000000000001,2.297 c0.6300000000000001,0.9390000000000001 1.2610000000000001,4.593 1.497,4.802 c1.338,0.31300000000000006 1.812,0.31300000000000006 2.678,-1.044 l-0.8660000000000001,-3.444 c0,0 -0.15800000000000003,-0.10500000000000001 -0.15800000000000003,-0.31300000000000006 c-0.47300000000000003,-1.2530000000000001 -1.103,-2.297 -1.496,-3.028 c-5.041,-6.994 -9.53,-6.785 -13.94,-1.1480000000000001 c-0.3940000000000001,0.6270000000000001 -0.8670000000000001,1.1480000000000001 -1.182,1.5670000000000002 c-1.181,1.043 -1.891,5.324 -1.891,6.055 c-0.31500000000000006,3.13 -1.653,8.247 4.253,15.241 c0.551,0.6250000000000001 1.496,1.042 2.048,1.6700000000000002 c0.551,0.521 1.103,0.9390000000000001 1.496,1.356 c1.34,1.358 2.599,2.609 3.781,4.071 c0.47200000000000003,0.41800000000000004 0.787,1.045 1.023,1.6700000000000002 c0.9450000000000001,1.775 1.339,3.55 1.891,5.846 c0.31500000000000006,1.254 0.31500000000000006,2.714 0.31500000000000006,4.28 c-0.15800000000000003,2.505 -0.788,4.907 -1.103,7.308 c-0.3940000000000001,2.6100000000000003 -1.339,4.801 -2.441,6.890000000000001 c-0.39300000000000007,0.9390000000000001 -0.9450000000000001,1.566 -1.497,2.401 c-0.39300000000000007,0.522 -0.8650000000000001,0.7300000000000001 -1.5750000000000002,0.522 c-0.787,-0.31400000000000006 -1.5750000000000002,-0.522 -2.362,-1.2530000000000001 c-2.442,-2.297 -3.938,-8.873 -3.781,-14.3 c0,-0.41800000000000004 0.31500000000000006,-0.7310000000000001 0.3950000000000001,-1.044 c0.31400000000000006,-1.044 0.23600000000000002,-1.565 -0.7090000000000001,-1.983 c-0.23600000000000002,0 -0.551,-0.20900000000000002 -0.8660000000000001,-0.10500000000000001 c-1.024,0.10500000000000001 -2.284,0.31400000000000006 -3.465,0.523 c-0.15800000000000003,0 -0.7090000000000001,0.31300000000000006 -0.9450000000000001,0.521 c-0.23600000000000002,0.20900000000000002 -0.23600000000000002,1.149 0,1.357 c0.15700000000000003,0.10400000000000001 0.3950000000000001,0.31300000000000006 0.788,0.41700000000000004 c0.15800000000000003,0.20900000000000002 0.6300000000000001,0.41700000000000004 0.9450000000000001,0.41700000000000004 c0,0.41800000000000004 0,0.7310000000000001 -0.07900000000000001,0.8350000000000001 c-0.15700000000000003,1.044 -0.15700000000000003,1.879 -0.07900000000000001,2.923 c0.07900000000000001,0.7300000000000001 0,1.774 0,2.8200000000000003 c0,0.31200000000000006 -0.07800000000000001,0.7300000000000001 0.07900000000000001,0.9390000000000001 c0.23600000000000002,2.818 1.26,6.055 3.071,7.828 c3.623,3.967 8.505,4.28 11.735,1.879 c2.205,-1.357 3.7800000000000002,-3.653 5.04,-6.2620000000000005 c0.6300000000000001,-1.358 1.103,-3.133 1.497,-4.803 c0.7080000000000001,-3.027 0.8660000000000001,-5.95 0.8660000000000001,-9.082 C289.7819884033203,128.23800775146483 289.46698840332033,126.04600775146486 288.83698840332033,123.95800775146483 z" id="svg_20"/>
		</g>
	</g>
	<path fill="#CB7B26" d="M311.0119884033203,92.09900775146485 c-1.799,0.811 -3.549,2.023 -4.979,3.6820000000000004 c-2.369,2.6870000000000003 -3.801,6.391 -3.589,9.812 c0.134,2.1470000000000002 0.806,4.225 1.7670000000000001,6.114 c0.28,0.5970000000000001 3.193,5.556 3.869,5.272 c-4.168,1.842 -7.796,5.43 -8.996,10.196 c-0.8450000000000001,3.326 -0.48600000000000004,6.772 0.6110000000000001,9.782 c-1.7520000000000002,3.732 -2.456,8.187 -2.551,12.188 c-0.17400000000000002,7.215 1.049,14.893 5.441,19.935 c-4.668,3.337 -8.15,9.076 -8.199,15.286 c-0.05400000000000001,3.3770000000000002 2.014,6.074 4.649,7.368 c2.621,1.291 7.142,1.237 9.548,-1.525 c0.7640000000000001,-0.8980000000000001 1.229,-1.927 1.447,-2.992 c0.21000000000000002,-0.7550000000000001 0.259,-1.536 0.05000000000000001,-2.274 c-0.49500000000000005,-1.812 -2.212,-2.33 -3.894,-1.971 c-0.17200000000000001,0.05100000000000001 -0.32500000000000007,0.026000000000000006 -0.516,0.15200000000000002 c-0.6300000000000001,0.29100000000000004 -0.785,1.212 -0.7380000000000001,1.928 c-0.022000000000000006,0.39000000000000007 0.08400000000000002,0.8790000000000001 0.32800000000000007,1.155 c0.32100000000000006,0.28900000000000003 0.8780000000000001,0.29900000000000004 1.137,-0.05300000000000001 c0.37500000000000006,1.557 -1.243,2.6340000000000003 -2.601,2.3360000000000003 c-3.625,-0.7460000000000001 -4,-5.216 -3.49,-8.598 c0.522,-3.696 2.324,-6.237 4.568,-8.867 c2.653,2.085 5.977,3.331 9.305,3.7110000000000003 c1.778,0.21200000000000002 3.583,0.266 5.312,-0.16200000000000003 c1.8800000000000001,-0.404 3.303,-1.354 3.302,-3.48 c0.03400000000000001,-1.883 -1.161,-2.944 -2.616,-3.81 c-1.456,-0.8640000000000001 -3.066,-1.125 -4.679,-1.389 c-2.849,-0.38000000000000006 -6.22,-0.29800000000000004 -8.896,0.923 c-0.6670000000000001,0.28400000000000003 -1.2570000000000001,0.5830000000000001 -1.8490000000000002,0.8810000000000001 c-1.307,-1.3130000000000002 -2.365,-2.747 -3.104,-4.362 c-3,-6.391 -2.9210000000000003,-16.063 -0.261,-23.034 c0.7600000000000001,1.304 1.6880000000000002,2.4 2.7,3.431 c-0.007000000000000002,0.07800000000000001 -0.22900000000000004,2.008 -0.24600000000000002,2.242 c0.018000000000000002,0.792 0.10600000000000001,1.6710000000000003 0.3490000000000001,2.498 c0.539,2.056 1.521,4.2620000000000005 3.116,5.545 c1.738,1.462 3.773,2.186 5.913,2.6100000000000003 c2.372,0.466 4.74,0.138 6.853,-0.8570000000000001 c3.254,-1.6 5.743,-4.502 6.787,-8.113 c3.173,-11.062 -8.624,-21.396 -18.912,-18.655 c-2.955,0.8620000000000001 -5.218,2.775 -6.891,5.339 c-0.30400000000000005,-2.093 -0.20700000000000002,-4.283 0.43900000000000006,-6.307 c1.304,-4.194 5.011,-7.297 9.339,-8.723 c2.503,1.904 5.402,3.24 8.376,3.879 c1.526,0.32600000000000007 3.071,0.49600000000000005 4.57,0.3480000000000001 c1.187,-0.125 3.712,-0.3450000000000001 4.325,-1.5070000000000001 c0.30700000000000005,-0.5810000000000001 0.17700000000000002,-1.3880000000000001 -0.134,-1.99 c-1.254,-2.329 -4.018,-3.249 -6.374,-3.786 c-1.82,-0.453 -3.758,-0.6100000000000001 -5.635,-0.6770000000000002 c-1.6460000000000001,-0.03300000000000001 -3.204,0.42500000000000004 -4.769,0.9600000000000001 c-0.3390000000000001,0.18000000000000002 -1.536,-1.904 -1.7200000000000002,-2.249 c-1.48,-2.7600000000000002 -2.314,-6.28 -1.476,-9.53 c0.7370000000000001,-3.187 3.378,-5.359 6.254,-6.23 c2.292,-0.7310000000000001 7.147,0.132 6.072,3.424 c-0.07400000000000001,0.30300000000000005 -0.22400000000000003,0.5930000000000001 -0.35500000000000004,0.811 c-0.128,0.21300000000000002 -0.261,0.42800000000000005 -0.39000000000000007,0.6450000000000001 c-0.35400000000000004,0.49400000000000005 -0.976,0.783 -1.582,1.002 c0.3400000000000001,-0.812 0.07700000000000001,-1.722 -0.6190000000000001,-2.1470000000000002 c-0.6920000000000002,-0.42700000000000005 -1.707,-0.19800000000000004 -2.25,0.42200000000000004 c-0.22500000000000003,0.278 -0.37000000000000005,0.5680000000000001 -0.534,0.9380000000000001 c-0.6900000000000002,2.014 0.6610000000000001,4.043 2.457,4.572 c3.435,1.028 6.043,-2.645 7.148,-5.456 c1.883,-5.129 -1.133,-9.949 -5.683,-11.316 C316.0429884033203,90.63400775146485 313.4189884033203,90.91600775146483 311.0119884033203,92.09900775146485 zM300.2209884033203,188.85400775146485 c-2.34,-0.772 -3.55,-2.545 -3.649,-5.159 c-0.3350000000000001,-2.337 0.543,-4.715 1.8450000000000002,-6.788 C297.0789884033203,181.57300775146484 297.1789884033203,186.78600775146487 300.2209884033203,188.85400775146485 zM321.1869884033203,171.85800775146487 c-4.5280000000000005,1.784 -10.169,0.6360000000000001 -14.412,-2.415 C311.60398840332033,167.54800775146487 317.96198840332033,168.10600775146486 321.1869884033203,171.85800775146487 zM317.28898840332033,144.76600775146485 c-0.17700000000000002,0.28800000000000003 -0.508,0.55 -0.8270000000000001,0.6560000000000001 c-3.208,1.369 -6.62,0.266 -9.403,-1.9969999999999999 c0.037000000000000005,-0.466 0.44300000000000006,-0.7150000000000001 0.771,-0.976 c1.796,-1.207 4.003,-1.637 6.117,-0.8210000000000001 c0.7560000000000001,0.281 3.496,1.039 3.645,2.165 C317.64698840332034,144.11800775146483 317.4709884033203,144.40500775146484 317.28898840332033,144.76600775146485 zM314.3289884033203,153.81600775146484 c-1.932,-0.15600000000000003 -3.782,-1.243 -5.215,-2.734 c-1.4340000000000002,-1.49 -2.51,-3.6350000000000002 -2.422,-5.825 c1.11,0.7310000000000001 2.127,1.6840000000000002 3.329,2.193 c1.5110000000000001,0.56 3.033,0.9640000000000001 4.5920000000000005,0.902 c1.943,-0.004000000000000001 3.8600000000000003,-0.7160000000000001 5.057,-2.174 c1.6110000000000002,-1.8650000000000002 -1.188,-4.996 -2.824,-5.9670000000000005 c-2.604,-1.526 -5.851,-1.737 -8.622,-1.007 c-1.584,0.454 -2.662,1.3820000000000001 -3.367,2.526 c-0.794,-0.8370000000000001 -1.7360000000000002,-1.776 -2.196,-2.875 c-0.7440000000000001,-1.5390000000000001 1.9889999999999999,-2.748 2.958,-3.22 c5.888,-2.75 14.543,-1.268 18.168,5.224 c1.988,3.551 1.042,7.021 -1.425,9.769 C320.3209884033203,152.89800775146483 317.3349884033203,154.14500775146485 314.3289884033203,153.81600775146484 zM323.7139884033203,137.70000775146485 c-4.875,-5.122 -13.234,-6.554 -19.264,-3.042 C309.8109884033203,128.91200775146484 320.0589884033203,130.96600775146484 323.7139884033203,137.70000775146485 zM325.2299884033203,121.25200775146484 c-3.873,0.9490000000000001 -8.106,-0.29000000000000004 -11.794,-2.697 C317.6859884033203,117.82500775146485 322.1099884033203,118.70200775146483 325.2299884033203,121.25200775146484 zM308.2249884033203,100.22900775146485 c-2.784,3.171 -2.998,7.94 -1.548,11.797 c-0.06600000000000002,-0.08900000000000002 -0.19300000000000003,-0.269 -0.258,-0.35600000000000004 c-2.387,-3.8520000000000003 -2.228,-8.864 0.5740000000000001,-12.899000000000001 c2.3200000000000003,-3.404 6.747,-4.025 9.814,-3.293 c0.28300000000000003,0.125 0.6220000000000001,0.3370000000000001 0.907,0.463 C314.4779884033203,95.72900775146485 310.6509884033203,97.47200775146484 308.2249884033203,100.22900775146485 z" id="svg_21"/>
	<path fill="#CB7B26" d="M32.19098840332032,90.97700775146484 c-4.636,1.04 -7.9879999999999995,5.632 -6.476,10.882 c0.902,2.883 3.242,6.732 6.741,5.952 c1.83,-0.3990000000000001 3.322,-2.327 2.777,-4.385 c-0.138,-0.38100000000000006 -0.261,-0.6810000000000002 -0.466,-0.974 c-0.49800000000000005,-0.6570000000000001 -1.493,-0.9580000000000001 -2.214,-0.5810000000000001 c-0.7240000000000001,0.37500000000000006 -1.051,1.264 -0.77,2.098 c-0.5890000000000001,-0.262 -1.189,-0.5950000000000001 -1.5070000000000001,-1.113 c-0.11400000000000002,-0.22600000000000003 -0.23,-0.44900000000000007 -0.3430000000000001,-0.6710000000000002 c-0.11600000000000002,-0.22700000000000004 -0.24400000000000002,-0.526 -0.29600000000000004,-0.8330000000000001 c-0.8370000000000001,-3.36 4.067,-3.875 6.301,-2.982 c2.807,1.074 5.286,3.4290000000000003 5.7940000000000005,6.66 c0.6040000000000001,3.302 -0.47900000000000004,6.753 -2.152,9.401 c-0.20800000000000002,0.33100000000000007 -1.55,2.324 -1.8760000000000001,2.12 c-1.522,-0.6450000000000001 -3.044,-1.213 -4.688000000000001,-1.2970000000000002 c-1.8760000000000001,-0.06800000000000002 -3.821,-0.04800000000000001 -5.668,0.273 c-2.388,0.36800000000000005 -5.21,1.088 -6.627,3.322 c-0.35400000000000004,0.5790000000000001 -0.541,1.374 -0.276,1.976 c0.529,1.203 3.032,1.6030000000000002 4.207,1.812 c1.485,0.254 3.038,0.19500000000000003 4.583,-0.021000000000000005 c3.012,-0.42500000000000004 5.999,-1.5510000000000002 8.632,-3.2720000000000002 c4.215,1.731 7.691,5.091 8.693,9.367 c0.5,2.065 0.44100000000000006,4.257 -0.012000000000000002,6.323 c-1.486,-2.677 -3.607,-4.747 -6.493,-5.817 c-10.066,-3.467 -22.569,5.999 -20.193,17.259 c0.783,3.676 3.06,6.7490000000000006 6.191,8.576 c2.037,1.1440000000000001 4.375,1.6400000000000001 6.774,1.344 c2.165,-0.271 4.246,-0.8470000000000001 6.084,-2.182 c1.6830000000000003,-1.167 2.819,-3.297 3.503,-5.309 c0.30100000000000005,-0.807 0.452,-1.6780000000000002 0.526,-2.467 c-0.0010000000000000002,-0.234 -0.08400000000000002,-2.175 -0.08600000000000002,-2.253 c1.083,-0.9570000000000001 2.087,-1.983 2.938,-3.23 c2.157,7.143 1.546,16.796 -1.9020000000000001,22.957 c-0.8530000000000001,1.5590000000000002 -2.01,2.9130000000000003 -3.408,4.13 c-0.5680000000000001,-0.3400000000000001 -1.1360000000000001,-0.6800000000000002 -1.7810000000000001,-1.011 c-2.583,-1.409 -5.939,-1.731 -8.808,-1.5550000000000002 c-1.6270000000000002,0.14800000000000002 -3.252,0.29400000000000004 -4.766,1.052 c-1.513,0.7600000000000001 -2.781,1.733 -2.8810000000000002,3.614 c-0.15300000000000002,2.122 1.198,3.17 3.045,3.707 c1.693,0.55 3.498,0.6250000000000001 5.287,0.54 c3.347,-0.14300000000000002 6.751,-1.1480000000000001 9.546,-3.039 c2.05,2.784 3.6670000000000003,5.446 3.924,9.17 c0.268,3.409 -0.42500000000000004,7.8420000000000005 -4.094,8.327 c-1.375,0.201 -2.9130000000000003,-0.99 -2.428,-2.516 c0.234,0.37000000000000005 0.79,0.3990000000000001 1.131,0.134 c0.263,-0.258 0.404,-0.7390000000000001 0.40900000000000003,-1.129 c0.09700000000000003,-0.7110000000000001 0.009000000000000003,-1.641 -0.5990000000000001,-1.976 c-0.18200000000000002,-0.14 -0.3360000000000001,-0.125 -0.504,-0.18900000000000003 c-1.6520000000000001,-0.47800000000000004 -3.401,-0.08300000000000002 -4.024,1.6880000000000002 c-0.261,0.7220000000000001 -0.268,1.504 -0.11200000000000002,2.2720000000000002 c0.14200000000000002,1.078 0.532,2.137 1.23,3.087 c2.203,2.926 6.708,3.302 9.415,2.202 c2.721,-1.103 4.977,-3.646 5.163,-7.018 c0.3950000000000001,-6.198 -2.669,-12.169 -7.088,-15.831 c4.741,-4.716 6.508,-12.287 6.849,-19.496 c0.19000000000000003,-3.998 -0.19400000000000003,-8.491 -1.6760000000000002,-12.339 c1.3090000000000002,-2.924 1.913,-6.335 1.307,-9.713000000000001 c-0.8560000000000001,-4.839 -4.219,-8.676 -8.246,-10.811 c0.6540000000000001,0.33100000000000007 3.9130000000000003,-4.408 4.235,-4.983 c1.093,-1.816 1.912,-3.84 2.198,-5.9719999999999995 c0.456,-3.396 -0.7090000000000001,-7.193 -2.88,-10.042 c-1.3090000000000002,-1.7560000000000002 -2.968,-3.09 -4.705,-4.027 C37.31298840332032,90.83300775146483 34.71598840332031,90.36400775146484 32.19098840332032,90.97700775146484 zM46.14598840332032,177.67500775146482 c1.15,2.161 1.8570000000000002,4.596 1.356,6.902 c-0.28500000000000003,2.6 -1.6190000000000002,4.282 -4.007,4.886 C46.67698840332031,187.61800775146486 47.14798840332031,182.42400775146484 46.14598840332032,177.67500775146482 zM38.34098840332031,169.63400775146482 c-4.449,2.74 -10.158,3.484 -14.547,1.381 C27.277988403320307,167.50300775146485 33.65998840332031,167.39900775146486 38.34098840332031,169.63400775146482 zM29.380988403320316,143.27900775146483 c0.22900000000000004,-1.112 3.015,-1.6720000000000002 3.79,-1.899 c2.167,-0.6630000000000001 4.337,-0.07700000000000001 6.042,1.254 c0.30900000000000005,0.28400000000000003 0.6960000000000002,0.561 0.7000000000000001,1.028 c-2.938,2.059 -6.42,2.916 -9.522,1.3210000000000002 c-0.31100000000000005,-0.129 -0.6220000000000001,-0.41400000000000003 -0.778,-0.7130000000000001 C29.457988403320314,143.89700775146486 29.302988403320313,143.59800775146485 29.380988403320316,143.27900775146483 zM24.13598840332031,149.75600775146484 c-2.265,-2.917 -2.9610000000000003,-6.445 -0.7250000000000001,-9.845 c4.078,-6.217 12.817,-7.079 18.494,-3.916 c0.932,0.54 3.572,1.941 2.72,3.422 c-0.538,1.063 -1.5430000000000001,1.933 -2.396,2.71 c-0.6210000000000001,-1.192 -1.6300000000000001,-2.194 -3.178,-2.7600000000000002 c-2.712,-0.926 -5.965,-0.9470000000000001 -8.672,0.39000000000000007 c-1.7000000000000002,0.8520000000000001 -4.716,3.775 -3.242,5.75 c1.09,1.5390000000000001 2.951,2.386 4.889,2.529 c1.55,0.17300000000000001 3.097,-0.12200000000000001 4.6450000000000005,-0.5720000000000001 c1.235,-0.42200000000000004 2.317,-1.3 3.477,-1.9500000000000002 c-0.06800000000000002,2.19 -1.294,4.254 -2.831,5.638 c-1.537,1.385 -3.459,2.337 -5.397,2.355 C28.898988403320317,153.62200775146485 26.009988403320307,152.16500775146486 24.13598840332031,149.75600775146484 zM43.13998840332032,135.10300775146484 c-5.764,-3.933 -14.204,-3.101 -19.432,1.661 C27.83398840332032,130.30700775146485 38.201988403320314,128.99000775146484 43.13998840332032,135.10300775146484 zM35.32598840332031,118.40000775146484 c-3.85,2.138 -8.161,3.072 -11.957,1.8490000000000002 C26.662988403320313,117.92900775146484 31.13898840332031,117.36900775146484 35.32598840332031,118.40000775146484 zM32.67098840332031,95.53900775146485 c0.29300000000000004,-0.10500000000000001 0.6460000000000001,-0.29200000000000004 0.9380000000000001,-0.3980000000000001 c3.111,-0.511 7.482,0.42400000000000004 9.554,3.984 c2.507,4.225 2.308,9.235 -0.3470000000000001,12.908 c-0.07100000000000001,0.08300000000000002 -0.21000000000000002,0.252 -0.28200000000000003,0.3360000000000001 c1.7200000000000002,-3.7430000000000003 1.848,-8.515 -0.7040000000000001,-11.877 C39.606988403320315,97.57000775146486 35.91398840332032,95.55800775146486 32.67098840332031,95.53900775146485 z" id="svg_22"/>
	<path fill="#CB7B26" d="M246.05098840332033,223.32300775146484 c-0.529,-2.587 -1.709,-4.7780000000000005 -3.717,-6.625 c-2.241,-2.059 -5.163,-2.487 -7.7330000000000005,-3.744 c-1.8450000000000002,-0.9 -3.7600000000000002,-1.023 -5.772,-0.8540000000000001 c-4.041,0.3490000000000001 -7.3950000000000005,2.258 -10.44,4.692 c-1.592,1.274 -2.8600000000000003,1.537 -4.846,0.7660000000000001 c-7.909,-3.067 -15.921,-3.783 -23.897,-0.11500000000000002 c-0.6790000000000002,0.31200000000000006 -1.247,0.401 -1.903,-0.06000000000000001 c-3.87,-2.716 -8.012,-4.022 -12.869,-3.274 c-2.134,0.32900000000000007 -3.943,0.7260000000000001 -5.474,2.286 c-2.908,2.967 -5.004,6.462 -6.813,10.158 c-1.196,2.448 -2.191,4.994 -4.093,7.055 c-3.8890000000000002,4.215 -10.516,4.62 -14.891,0.934 c-4.116,-3.467 -7.027,-7.947 -10.372,-12.064 c-2.454,-3.019 -4.943,-5.913 -8.563,-7.672000000000001 c-7.639,-3.713 -14.646,-1.725 -21.413,2.234 c-2.218,1.296 -3.641,3.487 -4.546,5.854 c-1.1360000000000001,2.957 -1.397,5.963 0.9630000000000001,8.56 c1.231,1.355 2.012,1.137 2.475,-0.6010000000000001 c0.3340000000000001,-1.255 0.465,-2.534 0.269,-3.839 c-0.14800000000000002,-0.996 -0.06000000000000001,-1.975 0.465,-2.866 c2.063,-3.51 5.098,-5.574 9.164,-5.932 c7.285,-0.6340000000000001 13.337,2.189 18.658,6.901 c4.658,4.126 8.715,8.872 13.456,12.938 c4.327,3.709 9.139,4.898 14.584,4.088 c3.048,-0.458 5.3100000000000005,-2.121 6.646,-4.968 c0.9670000000000001,-2.063 1.8490000000000002,-4.145 2.559,-6.325 c1.389,-4.273 3.376,-8.292 5.841,-12.058 c0.8650000000000001,-1.328 2.05,-2.346 3.731,-2.201 c2.373,0.20800000000000002 4.574,0.977 6.557,2.367 c1.09,0.7680000000000001 1.448,1.4460000000000002 0.268,2.436 c-1.703,1.425 -2.9290000000000003,3.201 -3.955,5.181 c-2.68,5.173 -1.105,12.351 3.566,15.78 c3.285,2.412 9.073,1.79 11.214,-1.181 c1.97,-2.729 2.591,-5.77 2.1630000000000003,-9.071 c-0.38000000000000006,-2.927 -1.573,-5.54 -3.093,-8.02 c-0.6220000000000001,-1.006 -0.6340000000000001,-1.6310000000000002 0.49200000000000005,-2.4050000000000002 c3.6390000000000002,-2.498 7.654,-3.5620000000000003 12.16,-3.624 c1.754,0.10600000000000001 3.569,0.6200000000000001 5.39,1.186 c1.754,0.543 1.86,1.075 0.7150000000000001,2.569 c-3.088,4.022 -4.918,8.57 -4.148,13.748 c0.554,3.723 1.546,7.208 5.396,9.185 c3.801,1.9500000000000002 9.443,-0.0020000000000000005 10.751,-4.095 c0.921,-2.8770000000000002 1.042,-5.827 0.232,-8.766 c-0.934,-3.391 -2.362,-6.578 -4.298,-9.513 c-0.6110000000000001,-0.923 -0.7070000000000001,-1.6440000000000001 0.14600000000000002,-2.372 c2.316,-1.991 4.659,-3.8770000000000002 7.852,-4.321 c4.714,-0.6560000000000001 9.128,-0.3960000000000001 12.496,3.572 c2.055,2.42 2.373,5.34 0.8720000000000001,7.803 c-0.6630000000000001,1.09 -2.826,1.51 -4.067,0.7300000000000001 c-1.206,-0.7570000000000001 -1.016,-1.706 -0.279,-2.71 c0.17500000000000002,-0.23800000000000002 0.269,-0.546 0.3480000000000001,-0.8400000000000001 c0.21100000000000002,-0.771 0.30200000000000005,-1.617 -0.6310000000000001,-1.907 c-0.8620000000000001,-0.264 -1.83,-0.36700000000000005 -2.484,0.544 c-1.5510000000000002,2.154 -0.201,6.902 2.3200000000000003,7.618 c2.151,0.6130000000000001 4.503,0.7080000000000001 6.333,-0.805 C245.75598840332032,228.09300775146482 246.56998840332034,225.85400775146485 246.05098840332033,223.32300775146484 zM99.71398840332031,228.59000775146484 c-0.31700000000000006,-0.019000000000000003 -0.29400000000000004,-0.457 -0.31900000000000006,-0.7550000000000001 c-0.030000000000000006,-0.37400000000000005 -0.06600000000000002,-0.7500000000000001 -0.09900000000000003,-1.122 c-0.06300000000000001,-0.47900000000000004 0.03900000000000001,-1.167 0.465,-1.098 c0.538,0.08900000000000002 0.019000000000000003,0.7530000000000001 0.129,1.162 c0.09900000000000003,0.35900000000000004 0.128,0.7400000000000001 0.16800000000000004,1.115 C100.08398840332032,228.19200775146487 100.02898840332031,228.60700775146483 99.71398840332031,228.59000775146484 zM128.60198840332032,220.51300775146484 c-3.744,-2.901 -8.284,-3.817 -12.674,-5.122 c-0.37000000000000005,-0.11300000000000002 -0.93,0.08400000000000002 -1.11,-0.49100000000000005 c0.36900000000000005,-0.05600000000000001 0.7380000000000001,-0.139 1.11,-0.16000000000000003 c0.6750000000000002,-0.04100000000000001 1.356,-0.04100000000000001 2.054,-0.06200000000000001 c4.158,0.554 7.818,2.148 10.753,5.232 c0.18600000000000003,0.19600000000000004 0.458,0.525 0.3980000000000001,0.6930000000000002 C129.0469884033203,220.85600775146486 128.7779884033203,220.64900775146486 128.60198840332032,220.51300775146484 zM171.06598840332032,219.47800775146482 c-1.8130000000000002,3.591 -3.512,7.229 -4.724,11.074 c-0.505,1.5990000000000002 -1.267,3.082 -1.972,4.6 c-1.955,4.22 -5.583,5.238 -9.786,5.289 c-0.38500000000000006,-0.10700000000000001 -1.008,0.18800000000000003 -1.147,-0.39200000000000007 c-0.18900000000000003,-0.772 0.5990000000000001,-0.774 1.024,-0.936 c4.086,-1.558 6.775,-4.5120000000000005 8.428,-8.456 c1.208,-2.883 2.817,-5.543 4.332,-8.256 c0.781,-1.403 1.7590000000000001,-2.664 3.01,-3.686 c0.3460000000000001,-0.28 1.085,-0.6870000000000002 1.133,-0.6260000000000001 C171.7709884033203,218.60100775146486 171.2839884033203,219.05000775146482 171.06598840332032,219.47800775146482 zM183.0799884033203,232.45300775146484 c-0.10600000000000001,0.28400000000000003 -0.16900000000000004,0.5960000000000001 -0.32900000000000007,0.8480000000000001 c-0.48100000000000004,0.7460000000000001 -0.127,1.7400000000000002 -0.7490000000000001,2.439 c-0.906,-0.8590000000000001 -0.903,-2.011 -0.994,-3.126 c-0.024000000000000004,-0.30000000000000004 0.021000000000000005,-0.6060000000000001 0.038000000000000006,-0.908 c0.31300000000000006,-3.8890000000000002 2.513,-6.734 5.214,-9.277 c0.459,-0.43400000000000005 1.034,-0.9590000000000001 1.766,-0.22800000000000004 c0.7330000000000001,0.7380000000000001 0.6760000000000002,1.326 0.028000000000000004,2.134 C186.05498840332032,226.82400775146482 184.2479884033203,229.44900775146482 183.0799884033203,232.45300775146484 zM194.4559884033203,234.40300775146483 c-0.07500000000000001,4.473 -3.441,7.366 -7.542,6.509 c-1.798,-0.37600000000000006 -2.766,-1.3880000000000001 -2.867,-3.265 c-0.15400000000000003,-2.793 1.101,-5.142 2.294,-7.502 c0.792,-1.558 1.923,-2.896 3.036,-4.245 c0.6670000000000001,-0.81 1.163,-0.6930000000000002 1.778,0.07900000000000001 C193.13798840332032,228.44700775146487 194.7529884033203,231.04600775146486 194.4559884033203,234.40300775146483 zM196.92998840332032,217.92200775146483 c-1.45,0.798 -2.908,1.586 -4.383,2.335 c-0.44800000000000006,0.22500000000000003 -0.901,0.05900000000000001 -1.188,-0.36000000000000004 c-0.37300000000000005,-0.548 0.04500000000000001,-0.8640000000000001 0.44100000000000006,-1.06 c1.568,-0.773 3.298,-1.041 4.97,-1.492 c0.14600000000000002,0.027000000000000007 0.28700000000000003,0.06000000000000001 0.42900000000000005,0.08900000000000002 C197.11498840332033,217.60000775146483 197.0689884033203,217.84700775146484 196.92998840332032,217.92200775146483 zM212.6699884033203,238.61900775146484 c0.020000000000000004,0.29900000000000004 0.30200000000000005,0.8310000000000001 -0.32600000000000007,0.8330000000000001 c-0.19100000000000003,0.004000000000000001 -0.458,-0.35000000000000003 -0.5700000000000001,-0.5960000000000001 c-0.7530000000000001,-1.673 -1.069,-3.455 -1.246,-4.876 c0.5630000000000001,-4.594 1.6420000000000001,-8.552 4.961,-11.518 c0.31300000000000006,-0.281 0.561,-0.8830000000000001 1.049,-0.544 c0.38800000000000007,0.271 -0.07,0.6640000000000001 -0.21600000000000003,0.98 C214.02898840332034,227.88900775146482 212.29198840332032,233.00700775146487 212.6699884033203,238.61900775146484 zM223.45498840332033,235.73200775146483 c-0.127,4.161 -1.449,6.093 -4.646,6.787 c-2.177,0.47400000000000003 -3.707,-0.256 -4.114,-2.417 c-1.087,-5.708 0.6820000000000002,-10.89 3.355,-15.839 c0.49200000000000005,-0.906 1.043,-0.6340000000000001 1.498,0.11800000000000002 C221.6649884033203,227.88800775146484 223.7589884033203,231.39700775146486 223.45498840332033,235.73200775146483 z" id="svg_23"/>
	<path fill="#CB7B26" d="M87.0089884033203,23.371007751464845 c0.529,2.588 1.709,4.7780000000000005 3.717,6.625 c2.241,2.059 5.163,2.487 7.7330000000000005,3.7430000000000003 c1.8450000000000002,0.9 3.7600000000000002,1.023 5.772,0.8540000000000001 c4.041,-0.3490000000000001 7.3950000000000005,-2.258 10.44,-4.692 c1.592,-1.274 2.8600000000000003,-1.537 4.846,-0.7670000000000001 c7.909,3.067 15.921,3.783 23.897,0.11500000000000002 c0.6790000000000002,-0.31200000000000006 1.247,-0.4 1.903,0.06100000000000001 c3.87,2.716 8.012,4.022 12.869,3.274 c2.134,-0.32900000000000007 3.943,-0.7260000000000001 5.474,-2.286 c2.908,-2.967 5.004,-6.463 6.813,-10.158 c1.196,-2.448 2.191,-4.994 4.093,-7.056 c3.8890000000000002,-4.215 10.516,-4.619 14.891,-0.934 c4.116,3.467 7.027,7.946 10.372,12.063 c2.454,3.02 4.943,5.913 8.563,7.672000000000001 c7.639,3.713 14.646,1.726 21.413,-2.233 c2.218,-1.2970000000000002 3.641,-3.487 4.546,-5.854 c1.1360000000000001,-2.957 1.397,-5.964 -0.9630000000000001,-8.561 c-1.231,-1.354 -2.012,-1.137 -2.475,0.6010000000000001 c-0.3340000000000001,1.255 -0.465,2.534 -0.269,3.839 c0.14800000000000002,0.996 0.06000000000000001,1.975 -0.465,2.866 c-2.063,3.51 -5.098,5.574 -9.164,5.932 c-7.285,0.6340000000000001 -13.337,-2.189 -18.658,-6.901 c-4.658,-4.126 -8.715,-8.872 -13.456,-12.938 c-4.327,-3.709 -9.139,-4.897 -14.584,-4.088 c-3.048,0.458 -5.3100000000000005,2.121 -6.646,4.969 c-0.9670000000000001,2.063 -1.8490000000000002,4.145 -2.559,6.325 c-1.389,4.273 -3.376,8.292 -5.841,12.058 c-0.8650000000000001,1.328 -2.05,2.346 -3.731,2.201 c-2.373,-0.20800000000000002 -4.574,-0.977 -6.557,-2.367 c-1.09,-0.7690000000000001 -1.448,-1.4460000000000002 -0.268,-2.436 c1.703,-1.4260000000000002 2.9290000000000003,-3.201 3.955,-5.181 c2.68,-5.173 1.105,-12.351 -3.566,-15.78 c-3.285,-2.412 -9.073,-1.7890000000000001 -11.214,1.182 c-1.97,2.729 -2.591,5.77 -2.1630000000000003,9.071 c0.38000000000000006,2.927 1.573,5.54 3.093,8.02 c0.6220000000000001,1.006 0.6340000000000001,1.6310000000000002 -0.49200000000000005,2.4050000000000002 c-3.6390000000000002,2.498 -7.654,3.5620000000000003 -12.16,3.623 c-1.754,-0.10500000000000001 -3.569,-0.6200000000000001 -5.39,-1.186 c-1.754,-0.544 -1.86,-1.075 -0.7150000000000001,-2.569 c3.088,-4.022 4.918,-8.569 4.148,-13.748 c-0.554,-3.723 -1.546,-7.207 -5.396,-9.185 c-3.801,-1.9500000000000002 -9.443,0.0020000000000000005 -10.751,4.095 c-0.921,2.8770000000000002 -1.042,5.827 -0.232,8.766 c0.934,3.392 2.362,6.578 4.298,9.514 c0.6110000000000001,0.923 0.7070000000000001,1.6440000000000001 -0.14600000000000002,2.372 c-2.316,1.991 -4.659,3.8770000000000002 -7.852,4.32 c-4.714,0.6560000000000001 -9.128,0.3960000000000001 -12.496,-3.571 c-2.055,-2.4210000000000003 -2.373,-5.34 -0.8720000000000001,-7.803 c0.6630000000000001,-1.09 2.826,-1.51 4.067,-0.7300000000000001 c1.206,0.7580000000000001 1.016,1.706 0.279,2.7110000000000003 c-0.17500000000000002,0.23800000000000002 -0.269,0.546 -0.3480000000000001,0.8400000000000001 c-0.21100000000000002,0.771 -0.30200000000000005,1.616 0.6310000000000001,1.9060000000000001 c0.8620000000000001,0.264 1.83,0.36700000000000005 2.484,-0.544 c1.5510000000000002,-2.154 0.201,-6.901 -2.3200000000000003,-7.617 c-2.151,-0.6130000000000001 -4.503,-0.7080000000000001 -6.333,0.805 C87.30298840332031,18.600007751464844 86.48998840332033,20.84000775146484 87.0089884033203,23.371007751464845 zM233.3459884033203,18.10400775146485 c0.31700000000000006,0.019000000000000003 0.29400000000000004,0.457 0.31900000000000006,0.7550000000000001 c0.030000000000000006,0.37400000000000005 0.06600000000000002,0.7490000000000001 0.09900000000000003,1.122 c0.06300000000000001,0.47900000000000004 -0.03900000000000001,1.167 -0.465,1.098 c-0.538,-0.08900000000000002 -0.019000000000000003,-0.7530000000000001 -0.129,-1.161 c-0.09900000000000003,-0.35900000000000004 -0.128,-0.7400000000000001 -0.16800000000000004,-1.115 C232.9749884033203,18.502007751464845 233.02998840332032,18.08700775146484 233.3459884033203,18.10400775146485 zM204.4569884033203,26.181007751464847 c3.744,2.901 8.284,3.817 12.674,5.122 c0.37000000000000005,0.11200000000000002 0.93,-0.08400000000000002 1.11,0.49000000000000005 c-0.36900000000000005,0.05700000000000001 -0.7380000000000001,0.139 -1.11,0.16000000000000003 c-0.6750000000000002,0.04100000000000001 -1.356,0.04100000000000001 -2.054,0.06200000000000001 c-4.158,-0.554 -7.818,-2.1470000000000002 -10.753,-5.231 c-0.18600000000000003,-0.19600000000000004 -0.458,-0.525 -0.3980000000000001,-0.6930000000000002 C204.01198840332032,25.838007751464843 204.28198840332033,26.045007751464837 204.4569884033203,26.181007751464847 zM161.9929884033203,27.216007751464844 c1.8130000000000002,-3.591 3.512,-7.229 4.724,-11.074 c0.505,-1.5990000000000002 1.267,-3.082 1.972,-4.6 c1.955,-4.22 5.583,-5.238 9.786,-5.288 c0.38500000000000006,0.10700000000000001 1.008,-0.18800000000000003 1.147,0.39200000000000007 c0.18900000000000003,0.772 -0.5990000000000001,0.774 -1.024,0.936 c-4.086,1.5590000000000002 -6.775,4.5120000000000005 -8.428,8.456 c-1.208,2.8840000000000003 -2.817,5.543 -4.332,8.257 c-0.781,1.4020000000000001 -1.7590000000000001,2.664 -3.01,3.686 c-0.3460000000000001,0.28 -1.085,0.6880000000000002 -1.133,0.6270000000000001 C161.2879884033203,28.09300775146484 161.77498840332032,27.64400775146484 161.9929884033203,27.216007751464844 zM149.9789884033203,14.240007751464844 c0.10600000000000001,-0.28300000000000003 0.16900000000000004,-0.5960000000000001 0.32900000000000007,-0.8480000000000001 c0.48100000000000004,-0.7460000000000001 0.127,-1.7400000000000002 0.7490000000000001,-2.439 c0.906,0.8590000000000001 0.903,2.012 0.994,3.126 c0.024000000000000004,0.30000000000000004 -0.021000000000000005,0.6060000000000001 -0.038000000000000006,0.908 c-0.31300000000000006,3.89 -2.513,6.734 -5.214,9.277 c-0.459,0.43400000000000005 -1.034,0.9590000000000001 -1.766,0.22800000000000004 c-0.7330000000000001,-0.7380000000000001 -0.6760000000000002,-1.326 -0.028000000000000004,-2.135 C147.0049884033203,19.87000775146484 148.81098840332032,17.24500775146484 149.9789884033203,14.240007751464844 zM138.60298840332032,12.291007751464846 c0.07500000000000001,-4.473 3.441,-7.366 7.542,-6.509 c1.798,0.37600000000000006 2.766,1.3880000000000001 2.867,3.265 c0.15400000000000003,2.794 -1.101,5.143 -2.294,7.503 c-0.792,1.558 -1.923,2.896 -3.036,4.245 c-0.6670000000000001,0.81 -1.163,0.6930000000000002 -1.778,-0.07900000000000001 C139.9209884033203,18.24700775146485 138.3059884033203,15.648007751464846 138.60298840332032,12.291007751464846 zM136.1289884033203,28.77100775146485 c1.45,-0.798 2.908,-1.586 4.383,-2.335 c0.44800000000000006,-0.22500000000000003 0.901,-0.05900000000000001 1.188,0.36000000000000004 c0.37300000000000005,0.548 -0.04500000000000001,0.8640000000000001 -0.44100000000000006,1.061 c-1.568,0.772 -3.298,1.04 -4.97,1.492 c-0.14600000000000002,-0.027000000000000007 -0.28700000000000003,-0.06000000000000001 -0.42900000000000005,-0.09000000000000002 C135.9449884033203,29.094007751464844 135.9909884033203,28.847007751464844 136.1289884033203,28.77100775146485 zM120.38898840332033,8.074007751464848 c-0.020000000000000004,-0.29900000000000004 -0.30200000000000005,-0.8300000000000001 0.32600000000000007,-0.8330000000000001 c0.19100000000000003,-0.004000000000000001 0.458,0.35100000000000003 0.5700000000000001,0.5970000000000001 c0.7530000000000001,1.673 1.069,3.455 1.246,4.876 c-0.5630000000000001,4.594 -1.6420000000000001,8.552 -4.961,11.518 c-0.31300000000000006,0.281 -0.561,0.8830000000000001 -1.049,0.544 c-0.38800000000000007,-0.271 0.07,-0.6630000000000001 0.21600000000000003,-0.979 C119.02998840332032,18.805007751464842 120.76698840332031,13.686007751464842 120.38898840332033,8.074007751464848 zM109.6039884033203,10.962007751464839 c0.127,-4.16 1.449,-6.093 4.646,-6.786 c2.177,-0.47500000000000003 3.707,0.256 4.114,2.416 c1.087,5.708 -0.6820000000000002,10.891 -3.355,15.84 c-0.49200000000000005,0.906 -1.043,0.6340000000000001 -1.498,-0.11800000000000002 C111.39398840332032,18.806007751464847 109.3009884033203,15.297007751464847 109.6039884033203,10.962007751464839 z" id="svg_24"/>
</g></g></svg>