<?xml version="1.0" encoding="utf-8"?>
<!-- Generator: Adobe Illustrator 20.1.0, SVG Export Plug-In . SVG Version: 6.00 Build 0)  -->
<svg version="1.1" id="Calque_1" xmlns="http://www.w3.org/2000/svg" xmlns:xlink="http://www.w3.org/1999/xlink" x="0px" y="0px"
	 viewBox="0 0 432 432" style="enable-background:new 0 0 432 432;" xml:space="preserve">
<style type="text/css">
	.st0{fill:#7B6A58;}
	.st1{fill:#CA9E67;}
	.st2{fill:#BE1622;}
	.st3{fill:#6B993B;}
	.st4{fill:#008D36;}
	.st5{fill:#AC1920;}
	.st6{fill:#5E2C28;}
	.st7{fill:#D85759;}
</style>
<g>
	<g>
		<g>
			<path d="M154.7,160.7c-1.5,0-2.8,0.2-4.2,0c-2.7-0.5-5.5-0.9-6.2,0.2c-0.2,0.2-0.6,0.5-0.6,0.6c-0.2,0.6-3.3,9.7-4.9,17.6
				c-0.1,0.8-1.6,6.6-1.9,8.6c-0.1,0.4-0.2,0.5-0.2,0.9c-0.3-0.1-0.3-0.5-0.3-0.6c-0.1-0.3-0.1-0.7-0.2-1c-0.1-0.6-0.3-1.2-0.4-1.8
				c-0.5-2.5-1.1-5-1.4-7.4c-0.3-1.8-0.9-3.4-1.7-4.9c-0.6-1.2-1.4-1.9-2.5-2.3c-0.6-0.6-1.6-0.7-2.3-1.1c-1.4,0.2-2.7,4.1-2.9,4.3
				c-1.4,2.4-2.6,4.7-4,7.1c-1.6,2.7-2.7,6-3.8,9c-0.4,1.1-0.9,2.3-1.4,3.8c-0.2-0.4-0.2-0.8-0.3-0.9c-0.4-1.8-0.8-3.5-1-5.3
				c-0.6-3.4-0.9-6.7-1.4-10c-0.2-2.7-0.6-5.2-0.8-7.8c-0.2-1.6-0.8-3.4-1.4-5c-0.2-0.8-1-1.5-1.5-1.8c-0.7-0.3-3.8-0.6-4.3-0.7
				c-1-0.5-1.9-0.3-2.9-0.2c-0.6,0-1,0.5-1.1,1.2c0,0.9,0.2,1.7,0.2,2.6c-0.1,0.5,2.4,18,2.7,19.3c0.5,1.9,1,3.9,1.8,6
				c1.6,4.6,3.5,14.5,7.7,15.5c0.7,0.2,6.7,1,7,0.9c0.7-0.1,1.2-0.5,1.4-1.3l0.4-0.7l2.6-12.7c0.6-2.8,1.4-5.4,2.5-8.1
				c0.2-0.7,0.5-1.4,0.8-1.9c0-0.2,0-0.4,0.3-0.3c0.2,0.6,0.2,1,0.5,1.5c0.3,3.7,0.7,7.4,1.2,11c0.2,2.4,0.8,4.8,1.6,7.3
				c0.6,2.4,1.4,4.7,2.6,6.9c0.4,1,1.1,1.6,2.1,2.1c0.1,0.2,0.5,0.2,0.6,0.5c0.5,0.5,1.2,0.6,2,0.9l1.8,0.2c0.7,0.1,1.2,0,1.8-0.4
				c0.3-0.2,0.7-0.6,0.7-0.9c0.2-0.6,0.3-1.2,0.4-1.8c0.4-1.8,0.7-3.6,1.4-5.4c0.4-1.4,0.9-3.2,1.1-4.7c0.4-1.8,3.6-12.4,4.3-15.3
				c0-0.2,0.1-0.6,0.2-0.9c0.5-0.6,7-19.3,7.3-20C159.2,162.1,156.7,160.6,154.7,160.7z"/>
			<path d="M163.8,195.1c0.1,2.1,0.5,4.1,0.6,6.2c0,0.3,0,0.6,0.1,0.8c-0.1,2.2,1,3.5,1.3,5.8c0.4,2.5,1.1,3,2.1,3.1
				c1.8,0.2,3.6,0.2,5.4,0.3c0.7,0,1-0.3,1.2-0.8c0.1-0.3,1-4.6,0.9-5c-0.1-1.9-0.2-2.8-0.6-4.6v-1.1c-0.1-0.3,0.3-0.4,0.6-0.4
				c0.2,0.1,0.3,0.1,0.6,0.2c0.9,0.2,7.4-0.3,9.8-0.1c0.7-0.1,1.7,0.1,2.5,0.1c0.6,0.2,0.8,0.5,1,1.2l0.1,0.6c0.2,2,0.3,3.9,0.6,5.8
				c0,1,0.2,2.1,0.2,3.2c0.2,0.6,0.3,0.9,0.8,1.4c0.4,0.5,0.9,0.7,1.8,0.7c0.6,0.2,1,0.5,1.6,0.6c0.7,0.1-0.2,0.3,0.4,0.4
				c0.2,0.1,0.5,0.1,0.7,0.2l2.5-0.2c0.8,0,1.2-0.7,1.9-1c0.2-0.4,0.2-0.9,0.4-1.4c-0.2-2.4-0.2-4.8-0.2-7c0-2.5-0.1-4.6,0.1-7
				c-0.1-0.6,0.1-1.2,0.1-1.8c0.1-2.2,0.1-4.4,0.2-6.6c0.3-2,0.2-3.9,0.2-5.9c0.2-1.4,0.1-2.8,0.2-4.2c0.2-2.6,0.4-5.4,0.3-8
				c0-2.1,0.1-4.2,0.2-6.5c0-0.7-0.2-1.5-0.3-2.4c-0.2-1.2-1.2-2.3-2.6-2.3c-0.9,0-1.8-0.1-2.7-0.2c-1.4-0.1-1.2,0.1-2.6,0
				c-0.2,0.2-0.7,0.1-1.1-0.1c-0.4-0.2-0.7,0-0.8,0.5c-0.2,0.5-0.4,1-0.4,1.6c-0.1,0.6,0,1.4-0.2,2c0,1-0.3,2.2-0.3,3.2
				c-0.2,2.2-0.3,4.5-0.6,6.7l-0.2,5.1c0.2,1.2,0,2,0,3c-0.2,1.4-0.2,2.8-0.2,4.2c0,1-0.2,8.3-0.2,10.7c-0.1,0.3-0.3,0.4-0.3,0.5
				c-0.2,0.1,0.2,0.2-0.2,0.2c-1.7-0.1-3.4-0.2-5-0.2c-0.7-0.3-6.6,0.5-8.7,0c-0.1,0-0.1-0.2-0.3-0.2c-0.1-0.6-0.1-1.4-0.2-1.9
				c-0.2-1.8-0.2-3.4-0.2-5.4c-0.2-2.6-0.2-5.4-0.2-8.1c-0.1-1.5-0.2-3-0.2-4.5c0-2.3,0.1-4.7,0.2-7c-0.1-2,0.1-3.7,0.2-5.6
				c0-0.5-0.2-1-0.2-1.4c0-0.7-0.6-1.2-1.4-1.4c-0.2-0.1-0.3-0.1-0.4-0.1c-1.1-0.2-2.2-0.5-3.2-0.6c-1.1-0.2-2.2-0.3-3.2-0.2
				c-0.6,0.2-0.8,0.2-1,1c-0.4,1.6-0.9,3.3-0.8,5c-0.1,0.4-0.1,0.8-0.1,1.3c-0.4,1.8-0.4,3.5-0.4,5.3c0.1,2.6,0.3,5.2,0.5,7.9
				C163.7,183,163.8,193.8,163.8,195.1z"/>
			<path d="M206.3,209.7c0.1,1,0.5,1.9,1.2,2.6c0.2,0.1,0.3,0.2,0.5,0.4c0.2,0.2,0.6,0.3,0.8,0.3c0.5,0.2,1,0.1,1.4,0
				c0.5-0.2,0.9-0.2,1.4-0.3c1.3-0.3,2.6-0.9,3.8-1.2c0.6-0.2,0.8-0.5,0.9-1.1c0.1-0.3-0.1-0.6,0-1c-0.2-1.9-0.6-3.8-0.5-5.8v-1.8
				c-0.2-1.5-0.2-2.8-0.2-4.2c0.1-1.9,0.1-3.9,0.1-5.8c0-1.2,0-2.2,0.1-3.4c0.2-2,0.1-4,0.3-6.2c0.2-1.7,0.2-3.4,0.2-5.2
				c0-1.9,0.1-3.9,0.1-5.8c-0.2-1,0.1-1.9,0.2-2.9c0.1-0.6,0.2-1.3,0.2-1.8c0-1,0-1.9,0.1-3c0-0.2,0.1-0.3,0.1-0.5
				c0-0.9-0.2-1.4-0.8-1.9c-0.4-0.4-0.9-0.5-1.4-0.5c-0.6,0-1.1,0-1.6-0.1c-1-0.1-1.8-0.2-2.8,0.1c-2.7,0-3.4-0.6-3.9,7.6
				c-0.1,0.4-0.1,0.8-0.1,1.3c0,1.2,0,2.5-0.1,3.8c0,1.4-0.1,3-0.1,4.5c-0.2,3.5-0.3,7-0.3,10.5c0,2.8,0,5.4,0.1,8.1
				c0.1,1.8,0,3.7-0.1,5.6c-0.1,1.1-0.1,2.2,0,3.4C206.1,206.8,206.2,208.2,206.3,209.7z"/>
			<path d="M221.9,194.6c0,2.6,0,5.2,0.2,7.7c0,2.1,0.3,4,0.4,6.1c0.1,0.6,0.2,1.3,0.3,2c0.3,3.8,0.7,2.7,1.5,3.5
				c2.2,1,2.8,0.9,5.1,0.2c0.8-0.2,1.4-0.3,2.1-0.3c0.7,0.1,1.2-0.1,1.8-0.2c0.8-0.2,1.3-0.8,1.3-1.5c0.1-0.5,0-0.9,0-1.4l-0.2-1.8
				c-0.2-3.1-0.2-6.2-0.6-9.1c-0.2-2-0.1-3.9-0.2-5.8c-0.1-0.6-0.2-1-0.1-1.4c0-0.6,0.2-1,0.9-1.1c0.6-0.2,1.4-0.4,2.2-0.5
				c0.7-0.2,1.4-0.2,2.1-0.4c2.2-0.7,4.1-1.9,5.8-3.3c1.2-1,2.5-2.1,3.8-3.1c1.8-1.4,3-3.1,4.5-4.6c0.1-0.1,0.2-0.2,0.2-0.2
				c1.4-1.9,2.5-3.8,3.1-5.8c0.6-2.1,0.6-5.4-0.1-7.5c-0.6-1.4-1.6-2.2-2.8-3.2c-3.5-2.4-9-0.5-11.1,0.6c-2.7,1.2-5.1,2.9-7.2,4.9
				c-0.3,0.4-0.6,0.7-1.1,0.9c-0.3-0.2-0.5-0.5-0.4-0.9c0-0.4,0.1-0.9,0.1-1.3c0.1-1.8,0-3.4,0.2-5.2c0-0.2,0-0.2,0.1-0.4
				c0.1-0.7-0.6-1.4-1.5-1.7c-2-0.6-6.1-0.3-7.8-0.3c-0.4,0.2-0.8,0.1-1.1,0.3c-0.8,0.2-0.7,4.9-0.6,6.1l-0.2,6.2
				c-0.1,1.6-0.2,3.4-0.2,5c-0.2,2-0.2,3.9-0.4,5.8c0.1,0.4,0,0.6,0,1c0.1,3-0.2,5.9-0.1,8.7C221.7,193.2,221.9,193.9,221.9,194.6z
				 M234,176.6c1.4-2.6,3.2-4.8,5.5-6.8c0.4-0.3,0.7-0.7,1-1c1.5-1.4,3.3-2.5,5-3.4c1-0.5,2.1-0.6,3.1-1c1.1-0.1,2.2,0.6,2.8,1.6
				c0.6,0.8,0.6,1.8,0.5,2.8c0,1.1-1.5,5.2-3.2,8.6c-0.9,1.6-2.1,3.3-4.6,5.5c-0.8,0.6-1.5,1.1-2.2,1.8c-1.4,1.1-2.9,2.2-4.6,3.1
				c-0.9,0.4-1.8,0.6-2.8,0.7c-0.2,0-0.4,0-0.7-0.1c-0.2-0.1-0.4-0.2-0.5-0.4c0-0.3-0.1-0.5-0.1-0.7c-0.1-1.5-0.2-3.1-0.2-4.6
				c-0.2-0.9-0.1-1.8-0.2-2.6C233,178.8,233.4,177.5,234,176.6z"/>
			<path d="M285.2,160.6c-0.6,0-1.1,0-1.6-0.1c-1-0.1-1.8-0.2-2.8,0.1c-2.7,0-3.4-0.6-3.9,7.6c-0.1,0.4-0.1,0.8-0.1,1.3
				c0,1.2,0,2.5-0.1,3.8c0,1.4-0.1,3-0.1,4.5c-0.2,3.5-0.3,7-0.3,10.5c0,2.8,0,5.4,0.1,8.1c0.1,1.8,0,3.7-0.1,5.6
				c-0.1,1.1-0.1,2.2,0,3.4c0.2,1.4,0.2,2.9,0.4,4.3c0.1,1,0.5,1.9,1.2,2.6c0.2,0.1,0.3,0.2,0.5,0.4c0.2,0.2,0.6,0.3,0.8,0.3
				c0.5,0.2,1,0.1,1.4,0c0.5-0.2,0.9-0.2,1.4-0.3c1.3-0.3,2.6-0.9,3.8-1.2c0.6-0.2,0.8-0.5,0.9-1.1c0.1-0.3-0.1-0.6,0-1
				c-0.2-1.9-0.6-3.8-0.5-5.8v-1.8c-0.2-1.5-0.2-2.8-0.2-4.2c0.1-1.9,0.1-3.9,0.1-5.8c0-1.2,0-2.2,0.1-3.4c0.2-2,0.1-4,0.3-6.2
				c0.2-1.7,0.2-3.4,0.2-5.2c0-1.9,0.1-3.9,0.1-5.8c-0.2-1,0.1-1.9,0.2-2.9c0.1-0.6,0.2-1.3,0.2-1.8c0-1,0-1.9,0.1-3
				c0-0.2,0.1-0.3,0.1-0.5c0-0.9-0.2-1.4-0.8-1.9C286.2,160.7,285.7,160.6,285.2,160.6z"/>
			<path d="M331,157c-0.2-0.2-0.6-0.5-1-0.3c-1.4,0.1-2.6,0.1-4,0.2c-3.4,0.5-6.8,1.2-10.2,2c-1.4,0.2-2.9,0.5-4.4,0.6
				c-4.6,1.1-15.8,3-18.6,4.1c-0.2,0.2-0.6,0.3-0.6,0.8l0.9,1c0.3,0.2,0.7,0.2,1.1,0.3c0.4,0.1,0.9,0.1,1.3,0.1s0.6,0,1-0.1
				c0.7-0.1,1.6-0.2,2.3-0.2c0.4-0.1,0.7,0,1.1,0c0,0.5,0.2,0.6,0.2,1c-0.2,1.4-0.3,2.7-0.5,4.1c-0.1,0.9-0.3,1.7-0.4,2.6
				c-0.2,1.5-0.2,3-0.2,4.5c-0.3,2.8-0.4,5.6-0.5,8.3c-0.2,2.4-0.3,4.9-0.5,7.1c0,1.4-0.1,2.7-0.1,4.1l-0.6,9.8
				c-0.2,0.3-0.2,0.7,0,0.9c0.2,0.6,0.4,1.4,0.6,1.7c0.2,0.3,0.5,0.4,0.6,0.5c0.5,0.2,0.9,0.3,1.3,0.3c1.9,0.7,3.8,1.4,5.7,2.2
				c1.2,0.4,2.3,0.4,3.5,0.1c1-0.3,1.4-0.9,1.7-1.7c0.2-0.9,0.4-1.8,0.2-2.6c-0.2-1-0.2-2,0-3c0-0.5,0-1-0.2-1.5
				c-0.1-1.8-0.2-9.1-0.2-10.6c0.1-2.2-0.2-4.5,0.1-6.7c0.1-0.2,0-0.6,0-0.8c0-0.3-0.1-0.8-0.1-1.3c0.1-1.6,0.2-3.2,0.3-4.8
				c0.1-2.8,0.6-5.6,0.9-8.3c0.4-3.6,0.8-4.7,0.9-5.8c0.2-1.8,0.6-2,2.3-2.5c1.2-0.2,2.5-0.6,3.8-0.7c2.7-0.5,5.2-1,7.8-1.4
				c1.3-0.3,2.6-0.5,3.8-0.6c0.6,0,1-0.1,1.4-0.2c0.7-0.6,0.8-1.4,0.2-2.1C331.9,157.6,331.4,157.4,331,157z"/>
		</g>
		<path d="M369.8,267.1c-1.8,2.1-4.5,17.3-10.5,13.4c-0.4,0.5-1.3-0.8-1.7-1.3c-0.8-0.8-1.4-1.6-2.1-2.6c-0.9-1.2-1.6-2.5-2.1-3.8
			c-1.4-3-4.7-19-5.3-22.2c-0.6-3.1-1.3-6-0.1-9.1c1.8-5.1,3.6-10.1,5.2-15.2c2.1-5.8,3.8-11.8,5.2-17.8c1.2-4.9,1.7-9.7,1-14.8
			c-0.1-2.1-0.8-3.9-2.1-5.6c-1.4-1.6-6.1-4-8.2-4.2c-1.6-0.1-3.1-0.3-4.7-0.3c-2.5,0.1-4.9,0.9-6.5,3.1c-1,1.6-2.1,3.4-2.9,5.1
			c-1.6,3.2-3,6.6-4.3,9.9c-0.4,0.9-0.6,1.9-0.9,2.9c-0.8,3.4-1.3,6.9-1,10.4c0.1,4.7,0.5,9.5,0.6,14.3c0,0.7-0.1,1.3-0.1,2.1
			c-0.8,0-1.4-0.1-2.1-0.1c-1.2,0.1-2.6,0-3.6,0.5c-2.9,1.2-5.5,2.9-7.1,5.7c-0.2,0.4-0.4,0.7-0.7,1.1c-1.5,0.5-2.7,1.8-4.1,2.7
			c-7.5,4.8-12.3,8.4-15.3,8.4c-1.3-0.4-1.3-1.4-1.2-2.2c-0.3-2.6-0.6-6.6-2.5-8.7c-2.7-3.8-6.8-5.3-11.6-4.9
			c-1.8,0.1-3.5,0.8-5.3,1.3c-1.7,0.3-3.4,1-4.7,2.2c-0.5,0.3-1,0.7-1.3,1c-2.1,0.1-3.4,1.8-5.2,2.9c-7.5,4.8-12.3,8.4-15.3,8.4
			c-1.3-0.4-1.3-1.4-1.2-2.2c-0.3-2.6-0.6-6.6-2.5-8.7c-2.7-3.8-6.8-5.3-11.6-4.9c-1.8,0.1-3.5,0.8-5.3,1.3c-1.7,0.3-3.4,1-4.7,2.2
			c-0.7,0.4-1.4,1-1.8,1.5c-0.9-0.1-1.9,0.1-2.8,1.1c-0.9,0.8-1.6,1.6-2.3,2.6c-1.2,0.9-7,7.4-15.2,11.2c-0.3,0.1-0.5,0.3-1,0.4
			c-0.5,0.3-0.9,0.7-1.4,0.8c-0.3,0.3-0.8,0.3-1,0.4c-0.8-1-0.8-1.9-0.8-2.9l-0.4-4.7c-0.4-1.8-0.7-3.2-0.7-4.8
			c-0.4-3.2-2.1-5.6-4.5-7.3l-1.3-1.4c-2.6-4.4-10.5-4.9-14-2.3c-0.8,0.5-1.3,1-1.6,1.8c-0.8,0.8-1.2,1.7-1.7,2.6
			c-0.5,0.6-0.9,1.6-1.3,2.2c-1.8,3.1-5.7,20.4,0.9,23c1.2,0.5,3.6,1.8,4.5,1.8c2.3,0.1,4-0.6,5.1-2.1c1-1.3,1.7-2.6,2.2-4.2
			c0.8-1.7,1.7-3.5,2.6-5.2c-0.1-0.1,0.1-0.1,0.3-0.3c0.1,0.1,0.3,0.3,0.3,0.5v8.1c-0.1,0.8-0.4,1.3-1,1.6c-1,0.5-1.9,0.9-2.6,1.4
			c-2.3,1.4-4.8,2.6-6.9,4.3c-4.3,3.1-8.4,6.4-11.7,10.9c0.1,0.1,0.1,0.1,0,0.1c-1.7,2.2-3.4,4.5-4.3,7.4c-0.7,2.2-1.8,4.3-2.3,6.5
			c-0.6,2.7-0.8,7.9-0.9,8.4c0,1.6,0.4,2.9,1.3,4.4c1,1.6,2.3,3.1,3.5,4.8c1.4,1.8,2.9,3.5,4.7,4.7c2.3,1.9,4.9,3.1,7.8,3.2
			c0.6,0,1,0.3,1.7,0.3c1.8,0.4,3.2,0.5,4.9,0c1.7-0.4,3-1,4.5-1.4c0.7-0.3,1.3-0.8,1.9-1.4c1.6-1.4,3-3,4.7-4.5
			c2.6-2.6,4.4-5.6,5.8-8.8c1.3-3.9,2.5-7.5,2.7-11.6c0.3-3.5-0.1-7-0.1-10.5l-0.4-1.8c-0.5-2.5-1-5.3-1.4-7.8
			c-0.4-1.7-0.4-3.1-0.6-4.8c-0.1-1,0.3-1.4,0.9-2.1c2.3-1.3,4.4-2.7,6.4-3.9c2.3-1.2,4.5-2.6,6.4-4.7c0.1-0.2,1.3-1.6,2.8-3.5
			c-0.1,0.6-0.2,1.2-0.2,1.8c-0.3,4,0.1,7.9,3,11.4c0.5,0.4,0.6,1,1,1.6c0.5,0.5,0.8,1,1.2,1.2c1.6,1.4,3.1,2.5,4.9,3.6
			c3,2.1,6.8,2.1,10.1,0.6c5.5-2.2,9.7-8.4,11.2-14.3c7.5-1.3,11.4-3.9,16.2-7.7c-0.3,1.2-0.6,2.3-0.6,3.5c-0.3,4,0.1,7.9,3,11.4
			c0.5,0.4,0.6,1,1,1.6c0.5,0.5,0.8,1,1.2,1.2c1.6,1.4,3.1,2.5,4.9,3.6c3,2.1,6.8,2.1,10.1,0.6c5.5-2.2,9.7-8.4,11.2-14.3
			c8.2-1.4,12.1-4.4,17.7-8.8c0.1-0.1,0.1-0.2,0.2-0.2c-0.4,1.5-0.6,3-0.9,4.5c-0.3,1.3-0.1,2.9,0.4,4.3c1,2.7,2.5,5.2,4.5,7.3
			c1,1,2.2,1.7,3.8,2.1c3.5,0.6,6.9,0.1,10-1.6c1.9-1,3.9-2.1,5.6-3.6c0.4-0.4,0.7-0.6,1-0.9c1-0.8,1.8-0.6,2.6,0.3
			c0.4,0.4,0.6,1,0.9,1.4c1,2.1,6.6,24.2,17.5,25c3,0.3,5.7,0.9,8.6,0c0.9-0.4,1.6-0.8,2.1-1.6c2.1-3.5,2.3-6.1,3.9-10.7
			c0.3-0.7,0.5-1.4,0.5-2.2C372.9,270.3,372.7,268.1,369.8,267.1z M184.4,237.2c-0.3,3-0.3,5.7-1.3,8.4c-0.9,3-2.5,5.8-4.4,8.3
			c-0.4,0.6-1.3,1.3-1.7,1.9h-0.6c-0.1-0.4-0.4-0.5-0.4-0.8c0.3-1.4,0.3-2.7,0.8-4.3c0.9-3.2,2.1-6.4,3.1-9.7c0.3-0.9,1-1.8,1.4-2.7
			c0.5-0.8,1.2-1.4,1.8-1.8C184.5,235.6,184.4,237.2,184.4,237.2z M186.3,273c-0.3,2.9-0.6,5.8-1,9c-0.1,0.5-0.3,1-0.3,1.6
			c-0.1,2.2-0.6,4.4-1.4,6.5c-0.9,3.6-2.2,7.3-3.9,10.7c-0.3,1-0.6,1.7-1.2,2.3c-0.5,0.9-1.4,1.8-2.1,2.9c-0.9,1.2-2.1,2.5-3.4,3.1
			c-1.7,1.2-4.4,0.8-5.2-1.4c-0.1-0.6-0.4-1.3-0.6-1.8c-0.1-0.6-0.1-1.4-0.4-2.5v-2.7c-0.1-1.2-0.1-2.6-0.1-4c0-0.3,0.1-0.6,0.3-1.3
			c0.4-2.2,1-4.8,2.5-7.1c0.5-0.9,1-2.2,1.4-3.1c0.6-1,1.3-2.1,2.1-3c1.7-1.9,3.4-3.9,5.3-5.7c1.8-1.8,4.2-3.4,6.4-4.9l0.9-0.3
			c0.4,0,0.8,0.5,0.8,0.9C186.4,272.3,186.3,272.7,186.3,273z M237.2,259.5c-1,1.6-2.1,3.1-3.6,4c-0.8,0.1-1.4,0-2.1-0.5
			c-0.8-1.8-0.9-3.6-0.1-5.5c0.1-0.3,0.5-0.6,1-0.6c0.8,0,1.6,0.1,2.2,0.1l1.7,0.3C237.4,257.8,237.9,258.7,237.2,259.5z
			 M241.3,250.4c0,0.8-0.1,1.4-1.3,2.1c-3.4,1-7.1,0.5-7.9-0.4c0.3-0.9,0.3-1.7,0.5-2.6c0.8-2.2,1.6-4.2,2.2-6.5
			c0.3-0.6,0.9-1.2,1.7-1.3c3.8-0.1,3.9-0.6,4.7,3.4C241.5,246.9,241.4,248.7,241.3,250.4z M284.3,259.5c-1,1.6-2.1,3.1-3.6,4
			c-0.8,0.1-1.4,0-2.1-0.5c-0.8-1.8-0.9-3.6-0.1-5.5c0.1-0.3,0.5-0.6,1-0.6c0.8,0,1.6,0.1,2.2,0.1l1.7,0.3
			C284.4,257.8,284.9,258.7,284.3,259.5z M288.3,250.4c0,0.8-0.1,1.4-1.3,2.1c-3.4,1-7.1,0.5-7.9-0.4c0.3-0.9,0.3-1.7,0.5-2.6
			c0.8-2.2,1.6-4.2,2.2-6.5c0.3-0.6,0.9-1.2,1.7-1.3c3.8-0.1,3.9-0.6,4.7,3.4C288.6,246.9,288.5,248.7,288.3,250.4z M332.9,252.1
			c-2.5,3.5-5.7,6-9.4,7.8c-0.5,0.1-0.8,0.4-1.2,0.5c-1.6,0.5-2.7,0-3.1-1.7v-1c0.3-4.3,0.6-8.2,2.2-12c0.9-2.2,1.7-4.4,2.3-6.6
			c0.5-1.4,1.4-2.3,2.9-2.5c0.6-0.1,1.3-0.3,1.9-0.3c0.9,0,1.6,0.3,1.8,1.2l0.4,0.9c1,3.4,1.9,6.6,3,9.9
			C334.2,249.9,333.8,251,332.9,252.1z M345.6,219.4c-0.8-0.9-0.5-1.8-0.5-2.6c0.6-5.3,1.2-10.7,2.7-15.7c0.5-2.2,0.9-4.4,1.8-6.5
			c0.1-0.1,0.3-0.4,0.7-0.6c0.1-0.1,0.4,0.1,0.6,0.1c0,0,0.1,0.1,0,0.3c0,2.2,0.1,4.5-0.3,6.6c-0.8,5.5-2.2,10.7-3.8,15.9
			C346.7,217.7,346.6,218.7,345.6,219.4z"/>
	</g>
	<path class="st0" d="M134.4,251.5c-6.1-9.1-13.2-17.6-21.7-24.5c-4.7-3.9-10.5-8.1-16.8-9c3.1-2,3.8-4.2,2.2-7.7
		c-4.9-11.2-10.8-22-16.2-32.9c-2.2-4.4-4-9.4-6.6-13.5c-1.6-2.6-3.9-2.8-6.2-2.2c-0.4-1.3-1-2.5-1.5-3.5c-1.2-2.2-3.7-5.9-6.7-4.4
		c-3.2,1.6-1.2,6.4,0,8.7c0.4,0.8,0.9,1.6,1.5,2.4c-3.6,2.8-2.5,5.4-0.8,8.9c2.5,5.1,5.1,10.3,7.6,15.4c3.1,6.3,6.2,12.6,9.3,19
		c1.6,3.3,3,7.6,5.2,10.6c1.7,2.4,4,2.6,6.4,1.9c-2,4.4-2.2,9.6-2.2,14.3c0,8.7,1.4,17.4,3.3,25.9c3.7,15.8,9.9,35.4,23.3,45.7
		c10.5,8.1,26.4,4.7,32.1-7.7C153.7,283.7,142.7,263.9,134.4,251.5z M136,306.1c-0.2,0.1-0.4,0.2-0.6,0.4c-0.3-0.2-0.6-0.5-0.9-0.8
		c-1.8-1.5-3.2-3.6-4.5-5.5c-8.8-12.9-15.1-27.7-21.3-42c-3.5-8-6.8-16.1-9.7-24.4c-1.2-3.3-2.7-6.9-3.7-10.5c1.5,2,2.8,4.2,4.1,6
		c4.2,6.3,8.1,12.8,11.8,19.4c8,14.1,15.7,28.5,21.5,43.7C134.4,296.9,135.7,301.3,136,306.1z M95.2,233.3
		c2.9,8.3,6.2,16.4,9.7,24.5c6.6,15.4,13.4,32,23.4,45.6c0.8,1.1,1.7,2.4,2.8,3.5c-2.7-0.7-5.3-2.8-7.2-4.6
		c-10.7-10.4-16.7-26.5-21.6-40.4c-2.9-8.3-5.4-16.7-7-25.3c-0.4-2-0.9-4.3-1.3-6.6C94.4,231.1,94.8,232.2,95.2,233.3z M139.1,301.9
		c0-0.1,0-0.3-0.1-0.4c-1.1-6.5-4-12.8-6.7-18.8c-3.9-8.8-8.2-17.4-12.8-25.8c-4.7-8.7-9.6-17.3-15-25.7c-1-1.5-2-3.3-3.1-5.1
		c0.9,0.9,1.8,1.9,2.6,2.7c5.3,5.6,10,11.8,14.4,18.2c8.7,12.9,17.4,27.5,20.5,42.9C139.6,293.3,140.3,298.1,139.1,301.9z
		 M64.8,160.1c0.5,0.9,0.8,1.9,1.1,2.9c-0.2,0.1-0.3,0.2-0.5,0.3c-0.6-0.7-1.1-1.5-1.5-2.3c-0.5-0.9-0.9-2-1.1-3
		c-0.1-0.3-0.1-0.6-0.2-0.9c0.2,0.1,0.3,0.3,0.4,0.4C63.8,158.1,64.3,159.1,64.8,160.1z M116.5,304.2c-11.4-9.5-17.1-25.8-20.8-39.6
		c-2.3-8.7-4-17.6-4.4-26.5c-0.1-1.7-0.2-3.5-0.2-5.3c0.1,0.5,0.2,1,0.2,1.5c1.4,8.7,3.8,17.3,6.6,25.6
		c5.1,15.2,11.6,34.2,24.1,45.1c2.3,2,4.9,3.2,7.5,3.6C125.2,308.9,120.6,307.6,116.5,304.2z M145.3,291.3c-0.2,3.6-1.3,6.8-3,9.4
		c0.2-0.5,0.3-1.1,0.4-1.7c1.1-6.8-1.3-14.3-3.7-20.6c-3.4-9-7.9-17.5-13-25.7c-5.3-8.5-11.1-16.8-17.9-24.2
		c-1.1-1.2-2.3-2.5-3.5-3.7c1.5,1.1,3,2.2,4.3,3.3c6.3,5.1,11.9,11.1,16.9,17.4C135.6,257.9,146.3,274.8,145.3,291.3z"/>
</g>
</svg>
